<?xml version="1.0" encoding="UTF-8" standalone="no"?>
<!-- Created with Inkscape (http://www.inkscape.org/) -->

<svg
   xmlns:dc="http://purl.org/dc/elements/1.1/"
   xmlns:cc="http://creativecommons.org/ns#"
   xmlns:rdf="http://www.w3.org/1999/02/22-rdf-syntax-ns#"
   xmlns:svg="http://www.w3.org/2000/svg"
   xmlns="http://www.w3.org/2000/svg"
   xmlns:sodipodi="http://sodipodi.sourceforge.net/DTD/sodipodi-0.dtd"
   xmlns:inkscape="http://www.inkscape.org/namespaces/inkscape"
   width="298.66666"
   height="352"
   id="svg27450"
   version="1.1"
   inkscape:version="0.92.0 r"
   sodipodi:docname="tux-bw-inverted.svg"
   inkscape:export-filename="./tux-large-bw.png"
   inkscape:export-xdpi="300"
   inkscape:export-ydpi="300">
  <title
     id="title20046">Tux</title>
  <sodipodi:namedview
     id="base"
     pagecolor="#ffffff"
     bordercolor="#666666"
     borderopacity="0.41176471"
     inkscape:pageopacity="0.0"
     inkscape:pageshadow="2"
     inkscape:zoom="1.4142136"
     inkscape:cx="26.334763"
     inkscape:cy="197.94762"
     inkscape:document-units="px"
     inkscape:current-layer="g1768"
     showgrid="false"
     inkscape:window-width="1920"
     inkscape:window-height="1163"
     inkscape:window-x="1920"
     inkscape:window-y="0"
     inkscape:window-maximized="1"
     fit-margin-top="0"
     fit-margin-left="0"
     fit-margin-right="0"
     fit-margin-bottom="0"
     showguides="true"
     inkscape:guide-bbox="true"
     inkscape:showpageshadow="false"
     showborder="true"
     inkscape:snap-global="false" />
  <defs
     id="defs27452" />
  <metadata
     id="metadata27455">
    <rdf:RDF>
      <cc:Work
         rdf:about="">
        <dc:format>image/svg+xml</dc:format>
        <dc:type
           rdf:resource="http://purl.org/dc/dcmitype/StillImage" />
        <dc:title>Tux</dc:title>
        <dc:date>20 June 2012</dc:date>
        <dc:creator>
          <cc:Agent>
            <dc:title>Garrett LeSage</dc:title>
          </cc:Agent>
        </dc:creator>
        <cc:license
           rdf:resource="http://creativecommons.org/licenses/publicdomain/" />
        <dc:contributor>
          <cc:Agent>
            <dc:title>Larry Ewing, the creator of the original Tux graphic</dc:title>
          </cc:Agent>
        </dc:contributor>
        <dc:subject>
          <rdf:Bag>
            <rdf:li>tux</rdf:li>
            <rdf:li>Linux</rdf:li>
            <rdf:li>penguin</rdf:li>
            <rdf:li>logo</rdf:li>
          </rdf:Bag>
        </dc:subject>
        <dc:rights>
          <cc:Agent>
            <dc:title>Larry Ewing, Garrett LeSage</dc:title>
          </cc:Agent>
        </dc:rights>
        <dc:source>https://github.com/garrett/Tux</dc:source>
      </cc:Work>
      <cc:License
         rdf:about="http://creativecommons.org/licenses/publicdomain/">
        <cc:permits
           rdf:resource="http://creativecommons.org/ns#Reproduction" />
        <cc:permits
           rdf:resource="http://creativecommons.org/ns#Distribution" />
        <cc:permits
           rdf:resource="http://creativecommons.org/ns#DerivativeWorks" />
      </cc:License>
    </rdf:RDF>
  </metadata>
  <g
     inkscape:label="tux"
     inkscape:groupmode="layer"
     id="g1768"
     transform="translate(170.66667,-61.186329)">
    <path
       style="opacity:1;fill:#000000;fill-opacity:1;stroke:none;stroke-width:3.77952766;stroke-miterlimit:4;stroke-dasharray:none;stroke-opacity:1"
       d="m -203.16667,43.686337 h 364.5 V 441.18634 h -364.5 z"
       id="rect4505" />
    <path
       id="path4498"
       style="color:#000000;font-style:normal;font-variant:normal;font-weight:normal;font-stretch:normal;font-size:medium;line-height:normal;font-family:sans-serif;font-variant-ligatures:normal;font-variant-position:normal;font-variant-caps:normal;font-variant-numeric:normal;font-variant-alternates:normal;font-feature-settings:normal;text-indent:0;text-align:start;text-decoration:none;text-decoration-line:none;text-decoration-style:solid;text-decoration-color:#000000;letter-spacing:normal;word-spacing:normal;text-transform:none;writing-mode:lr-tb;direction:ltr;text-orientation:mixed;dominant-baseline:auto;baseline-shift:baseline;text-anchor:start;white-space:normal;shape-padding:0;clip-rule:nonzero;display:inline;overflow:visible;visibility:visible;opacity:1;isolation:auto;mix-blend-mode:normal;color-interpolation:sRGB;color-interpolation-filters:linearRGB;solid-color:#000000;solid-opacity:1;vector-effect:none;fill:#ffffff;fill-opacity:1;fill-rule:nonzero;stroke:none;stroke-width:3.77952766;stroke-linecap:butt;stroke-linejoin:miter;stroke-miterlimit:4;stroke-dasharray:none;stroke-dashoffset:0;stroke-opacity:1;color-rendering:auto;image-rendering:auto;shape-rendering:auto;text-rendering:auto;enable-background:accumulate"
       d="m -19.72136,76.440235 -1.91406,0.02344 c -9.1325,0.11132 -18.13291,2.338489 -25.80664,6.847656 -5.36404,3.151959 -11.85768,9.665286 -15.01367,15.033203 -2.91645,4.960466 -5.40264,11.955806 -6.47852,17.943356 -1.28155,7.13221 -1.53638,17.92247 -0.875,28.49024 0.28963,4.62777 0.8014,16.68384 1.11719,26.48047 l 0.53125,16.5039 -1.0625,2.10938 c 0.08436,-0.16713 -0.08289,0.13579 -0.27734,0.4375 -0.19508,0.30267 -0.47051,0.71861 -0.8086,1.21679 -0.676171,0.99638 -1.605847,2.32308 -2.679686,3.77344 -2.164096,2.9229 -5.044759,6.66009 -8.294922,10.73438 -8.254455,10.34748 -12.51726,15.6523 -15.398437,20.45312 -2.892472,4.81965 -4.066655,8.84942 -5.849605,15.23633 -2.86589,10.26614 -4.94854,15.37381 -11.66407,28.54883 -3.53574,6.93668 -5.55017,10.96933 -6.75195,14.5625 -1.22022,3.64827 -1.35285,6.78941 -1.16211,10.13476 0.0603,1.05685 0.0833,1.83512 0.0898,2.34766 0.001,0.0922 -1.8e-4,0.12812 0,0.20312 -0.0245,0.0316 -0.0263,0.0281 -0.0547,0.0645 -1.17754,1.50948 -2.61655,3.80972 -3.85352,5.94531 -0.86524,1.49381 -1.8071,2.55589 -2.49609,3.23828 -0.26377,0.26124 -0.44927,0.42244 -0.63281,0.58594 -0.37435,0.0286 -0.82011,0.0596 -1.38868,0.0918 -1.31405,0.0744 -3.0275,0.14877 -4.77148,0.20312 -5.07274,0.15812 -9.15764,0.67533 -12.76172,2.39649 -3.68015,1.75748 -6.30363,4.80906 -8.02344,8.32421 -2.48162,5.07226 -2.58753,10.78589 -1.50976,21.86133 0.51695,5.31244 0.70533,8.32413 0.44531,10.64063 -0.26002,2.3165 -0.94151,4.10286 -2.41406,7.26562 -1.32734,2.85087 -2.58977,5.85847 -3.14844,8.36524 -1.77958,7.98494 1.85624,16.18265 9.08594,19.90429 1.50372,0.77407 3.23515,1.36073 5.60742,2.14649 2.39415,0.793 5.3379,1.69641 8.59375,2.64453 6.51255,1.89646 14.25097,3.96563 21.04297,5.56836 15.77211,3.72181 17.08225,4.09283 25.365232,7.4375 9.419903,3.80377 12.524875,4.6478 18.03125,5.00781 14.660908,0.95855 28.124368,-8.2563 32.373048,-22.24414 0.0035,-0.0115 5e-4,-0.002 0.0039,-0.0137 3.08468,-0.39779 8.73753,-0.64026 15.22852,-0.56446 7.09201,0.0828 14.91467,0.48842 20.74414,1.22852 5.82374,0.73938 15.52161,2.54764 18.95117,3.41016 2.76111,8.04389 9.67346,13.76634 18.99024,16.8164 6.38632,2.09071 12.83423,2.51818 19.15234,1.17969 5.17313,-1.09592 10.55406,-3.56279 14.79102,-6.76172 2.01943,-1.52468 5.58548,-4.72881 8.86718,-7.82031 7.32326,-6.89879 11.46413,-9.68569 22.99219,-15.42969 11.89844,-5.92855 16.21217,-8.55162 19.89453,-12.59179 3.99756,-4.386 6.32196,-9.11577 6.26758,-14.28907 -0.0334,-3.17773 -0.73449,-6.60786 -2.98633,-9.55859 -2.15639,-2.82565 -5.10079,-5.08116 -9.67382,-8.45899 -2.79498,-2.06448 -5.2805,-4.14716 -7.09766,-5.88867 -0.88437,-0.84755 -1.63006,-1.68014 -2.1582,-2.32031 -0.26408,-0.32008 -0.47438,-0.59232 -0.61524,-0.78516 -0.10559,-0.14454 -0.11242,-0.16174 -0.0957,-0.12109 -0.0242,-0.0828 -0.0517,-0.18432 -0.0898,-0.32422 -0.0888,-0.32552 -0.20707,-0.78212 -0.33007,-1.29883 -0.24602,-1.03342 -0.51103,-2.32959 -0.61719,-3.30273 -0.47511,-4.35551 -1.37625,-8.10693 -3.11328,-11.3418 -1.47803,-2.75254 -3.71131,-4.86007 -6.2793,-6.45312 1.93991,-6.82883 2.4133,-12.78174 2.17773,-18.33594 v -0.004 l -0.002,-0.004 c -0.8738,-18.62116 -9.12004,-44.58 -19.04297,-59.58985 -1.63097,-2.46706 -4.80862,-6.34465 -7.72265,-9.61718 -10.57814,-11.87955 -13.53373,-16.26719 -18.88867,-28.04493 -2.35252,-5.17415 -5.209,-11.13096 -6.67383,-13.83789 -1.39147,-2.57133 -1.54067,-2.49208 -1.97266,-5.76367 -0.42178,-3.19422 -0.72,-9.276 -1.24219,-21.16992 C 35.9674,124.00746 34.48288,116.64818 28.93099,106.35039 23.29242,95.891824 15.04625,87.549619 5.1556,82.565235 -2.61124,78.651151 -11.20747,76.723018 -19.72136,76.551563 Z m -1.86719,3.800782 c 8.54649,-0.104179 17.27471,1.783431 25.04493,5.699218 9.13024,4.601177 16.83991,12.360351 22.14648,22.203125 5.34105,9.90671 6.5926,16.15118 7.54883,37.93164 0.5224,11.89882 0.80265,17.93659 1.27344,21.50195 0.46056,3.48799 1.03789,4.55749 2.39453,7.06446 1.33404,2.46523 4.22986,8.48597 6.55664,13.60351 5.43027,11.94341 8.84705,17.02401 19.50586,28.99414 2.82881,3.17683 6.01952,7.11154 7.39453,9.19141 9.33243,14.11665 17.5938,40.03305 18.42187,57.67969 l -0.0019,-0.008 c 0.2258,5.32383 -0.19279,10.86131 -2.08789,17.4082 l -0.92383,2.41992 1.54883,0.75977 c 2.53592,1.24183 4.62003,3.23469 6.01367,5.83007 1.41617,2.63732 2.23925,5.88939 2.6836,9.9629 0.13814,1.26634 0.43066,2.6496 0.69726,3.76953 0.13331,0.55996 0.26108,1.04861 0.36133,1.41601 0.05013,0.1837 0.09264,0.33685 0.12891,0.45899 0.01813,0.0611 0.0351,0.11355 0.05273,0.16797 0.01763,0.0544 -0.01673,0.0185 0.11328,0.29101 0.20757,0.43479 0.29187,0.49551 0.48633,0.76172 0.19446,0.2662 0.44515,0.59101 0.75195,0.96289 0.6136,0.74375 1.44899,1.67658 2.45899,2.64453 1.97156,1.88948 4.55562,4.04839 7.46484,6.19727 4.54115,3.35427 7.19111,5.45264 8.91602,7.71289 1.62946,2.13518 2.18098,4.6402 2.20898,7.30469 0.0425,4.04026 -1.68805,7.76292 -5.2793,11.70312 -3.25133,3.56726 -6.9589,5.86231 -18.7871,11.75586 -11.64958,5.80454 -16.41603,9.01563 -23.89649,16.0625 -3.22995,3.04274 -6.88352,6.29295 -8.55469,7.55469 -3.7417,2.825 -8.74549,5.1135 -13.29882,6.07812 -5.65393,1.19779 -11.36998,0.83156 -17.19141,-1.07422 -8.65041,-2.83191 -14.46693,-7.81478 -16.7168,-14.69336 -0.14664,-0.44837 -0.2399,-0.72932 -0.22461,-0.67773 -0.292608,-0.86286 -0.649371,-1.04113 -1.53324,-1.37335 -3.64001,-0.98014 -13.8912,-2.84203 -20.16602,-3.63867 -6.07491,-0.77126 -13.97367,-1.1737 -21.17578,-1.25781 -7.2021,-0.0841 -13.58492,0.12305 -17.01562,0.70703 l -1.15625,0.19726 -0.33789,1.12305 c -0.02782,0.0926 -0.05827,0.15752 -0.38477,1.23242 -3.73786,12.30612 -15.57062,20.41629 -28.509764,19.57032 -5.246011,-0.34299 -7.518493,-0.96679 -16.863282,-4.74024 -8.326411,-3.36221 -10.127984,-3.88863 -25.912114,-7.61328 -6.7087,-1.58307 -14.40235,-3.63956 -20.85156,-5.51758 -3.22503,-0.93914 -6.13677,-1.83044 -8.46484,-2.60156 -2.34996,-0.77837 -3.93808,-1.3401 -5.06445,-1.91992 -5.68695,-2.92748 -8.5542,-9.32936 -7.12891,-15.72461 0.4262,-1.91235 1.60964,-4.84888 2.88672,-7.5918 1.51695,-3.25813 2.42368,-5.58257 2.74414,-8.4375 0.32046,-2.85493 0.0816,-6.07529 -0.43945,-11.42969 -1.06322,-10.92591 -0.86786,-15.7248 1.14257,-19.83398 1.43746,-2.93804 3.47518,-5.24535 6.25782,-6.57422 2.8587,-1.36519 6.37774,-1.87743 11.25,-2.0293 1.77383,-0.0553 3.51187,-0.1302 4.86914,-0.20703 0.67834,-0.0384 1.25969,-0.0774 1.69922,-0.11328 0.27306,-0.0224 0.51429,-0.0546 0.61914,-0.0684 0.008,-10e-4 0.004,-10e-4 0.01,-0.002 -0.009,10e-4 -0.0105,7.4e-4 -0.0684,0.004 -0.005,2.9e-4 -0.0269,4e-5 -0.0391,0 0.0242,-0.005 0.0873,0.001 0.10742,-0.004 0.002,-2.4e-4 0.0125,-0.002 0.0137,-0.002 0.0154,-0.004 0.0697,10e-4 0.084,-0.002 0.0466,-0.01 0.0816,-0.0174 0.125,-0.0273 0.0217,-0.005 0.0421,-0.0101 0.0918,-0.0234 0.0248,-0.007 0.0531,-0.0126 0.125,-0.0371 0.036,-0.0122 0.17147,-0.0682 0.17188,-0.0684 2e-4,-9e-5 0.18736,-0.0976 0.1875,-0.0977 1.3e-4,-8e-5 0.39642,-0.31439 0.39648,-0.31446 3e-5,-2e-5 0.19446,-0.27632 0.27344,-0.38867 0.19598,-0.1756 0.37526,-0.32925 0.66992,-0.62109 0.85946,-0.85122 2.03309,-2.17788 3.10547,-4.0293 1.18363,-2.04349 2.63005,-4.31782 3.56446,-5.51562 0.0533,-0.061 0.10546,-0.11458 0.14452,-0.18555 0.13854,-0.1636 0.11827,-0.14061 0.17578,-0.20898 0.0539,-0.0555 0.21071,-0.25551 0.21094,-0.25585 1.1e-4,-1.7e-4 0.20503,-0.40028 0.20507,-0.40039 2e-5,-4e-5 0.0435,-0.20581 0.0781,-0.37305 1.4e-4,-8.2e-4 -1.5e-4,-0.003 0,-0.004 0.0172,-0.0832 0.0391,-0.18748 0.0391,-0.1875 0.005,-0.0865 0,-0.24813 0,-0.33403 0.004,-0.17542 0.004,-0.40171 0,-0.69141 -0.007,-0.57939 -0.0327,-1.40799 -0.0957,-2.51367 -0.17842,-3.12913 -0.0722,-5.59088 0.97461,-8.7207 1.06524,-3.18494 3.00464,-7.1243 6.5332,-14.04688 6.753,-13.24852 9.02984,-18.83223 11.937501,-29.24805 1.778606,-6.37131 2.799544,-9.8883 5.451171,-14.30664 2.662924,-4.43715 6.853607,-9.69383 15.109376,-20.04297 3.273227,-4.10319 6.178417,-7.86515 8.380862,-10.83984 1.10892,-1.49775 2.06507,-2.86233 2.76953,-3.90039 0.35223,-0.51903 0.64082,-0.95691 0.85742,-1.29297 0.2166,-0.33606 0.30742,-0.4523 0.47461,-0.7832 l 1.49609,-2.9707 -0.5625,-17.46485 c -0.31679,-9.82773 -0.82332,-21.8358 -1.12109,-26.59375 -0.64721,-10.34132 -0.35664,-21.03782 0.82031,-27.58789 0.98377,-5.47493 3.42426,-12.28639 6.01758,-16.69726 2.64039,-4.490948 9.1946,-11.059714 13.66992,-13.689459 7.02759,-4.129487 15.39258,-6.223943 23.93945,-6.328124 z m 18.73633,39.966793 c -0.38707,-0.0156 -0.77756,-0.008 -1.17578,0.0117 -0.59611,0.0295 -1.38429,-0.0693 -1.69336,0.57813 1.93963,0.41793 3.79353,1.21683 5.44922,2.3164 3.20355,2.12744 5.63569,5.23754 7.3418,8.69727 0.3983,-0.44108 0.07272,-1.86903 -0.26758,-2.71094 -1.24182,-3.07211 -2.85465,-5.59127 -6.16992,-7.79297 -1.1944,-0.79318 -2.32315,-1.05292 -3.48438,-1.09961 z m -45.28906,2.44922 v 0.002 c -0.19625,-0.007 -0.38757,0.0121 -0.58398,0.0215 -0.12622,0.007 -0.25538,0.0101 -0.38086,0.0215 1.14692,0.10023 2.2864,0.39617 3.32226,0.84375 1.41114,0.60966 2.75994,1.47865 3.96485,2.4668 2.23246,1.83086 3.89214,4.08995 5.01562,6.48633 -0.27758,-1.84615 -0.79384,-3.63139 -1.83984,-5.19727 -0.34102,-0.5105 -0.87852,-0.9054 -1.39258,-1.28906 -1.26676,-0.94555 -2.71387,-1.85714 -4.125,-2.4668 -1.23475,-0.53344 -2.60663,-0.86499 -3.98047,-0.88867 z m 40.1875,4.44141 c -1.46985,-0.0235 -2.94322,0.22189 -4.3125,0.75391 -1.0405,0.40427 -2.01353,0.96945 -2.93359,1.60156 -2.96579,2.03758 -5.45063,4.87882 -6.66602,8.26562 -1.0705,2.98306 -1.09182,6.21403 -0.51172,9.35352 0.6286,0.81737 1.15953,1.71463 1.60547,2.64648 0.26081,0.54499 0.5059,1.10197 0.75977,1.65235 0.9546,0.44094 1.8837,0.92553 2.79882,1.41601 0.84932,0.4552 1.69147,0.91678 2.53321,1.37305 -0.17114,-0.34963 -0.32417,-0.70903 -0.45313,-1.07617 -0.55624,-1.58363 -0.74112,-3.28186 -0.67382,-4.95899 0.08967,-2.23428 0.64546,-4.49516 1.9121,-6.33789 0.63332,-0.92136 1.44062,-1.7285 2.38672,-2.32422 0.94612,-0.59572 2.03131,-0.97673 3.14649,-1.05664 0.26105,-0.0187 0.52415,-0.0206 0.78515,-0.008 0.78303,0.0383 1.56014,0.21295 2.29688,0.48438 2.268,0.83555 4.14627,2.60365 5.2539,4.75195 1.10764,2.14829 1.46219,4.65029 1.14844,7.04687 -0.17762,1.3568 -0.56609,2.69349 -1.21094,3.90039 -0.64485,1.2069 -1.55076,2.28268 -2.67382,3.06446 -0.58088,0.40435 -1.21888,0.72015 -1.88672,0.95312 1.44487,0.4814 2.90291,0.92395 4.38281,1.28125 1.11296,0.26872 2.27389,0.51877 3.4043,0.94727 0.8902,-1.02291 1.63951,-2.17764 2.20898,-3.40821 1.18865,-2.56851 1.69455,-5.40862 1.85352,-8.23437 0.20255,-3.60049 -0.15049,-7.25957 -1.33399,-10.66602 -1.28561,-3.70036 -3.61608,-7.11501 -6.90429,-9.24414 -1.64411,-1.06456 -3.51098,-1.7961 -5.45118,-2.06445 -0.48505,-0.0671 -0.97489,-0.10548 -1.46484,-0.11328 z m -40.86523,2.35547 c -1.8997,0.10347 -3.71731,0.97845 -5.10743,2.27734 -1.39011,1.2989 -2.36824,3.00008 -2.9707,4.80469 -1.20492,3.60921 -0.93409,7.52125 -0.66015,11.31641 0.24799,3.43639 0.5003,6.93875 1.7871,10.13476 0.61338,1.52342 1.47319,2.95684 2.59571,4.1543 0.91351,-0.83222 1.84489,-1.6439 2.79687,-2.43164 0.0048,-0.006 0.01063,-0.01 0.01563,-0.0156 0.52189,-0.60961 1.07562,-1.19042 1.64453,-1.75586 -0.64127,-0.41959 -1.21574,-0.94402 -1.73828,-1.50781 -1.0899,-1.17594 -1.98748,-2.54441 -2.53125,-4.05274 -0.82349,-2.2842 -0.80902,-4.79595 -0.41211,-7.1914 0.18046,-1.08917 0.44186,-2.17869 0.95117,-3.1582 0.50932,-0.97952 1.28785,-1.84993 2.29297,-2.30665 0.45269,-0.20569 0.9416,-0.32128 1.4375,-0.35742 0.49589,-0.0361 0.99865,0.008 1.48242,0.12305 0.96754,0.22987 1.85854,0.73239 2.61914,1.37305 1.5942,1.34278 2.61326,3.26243 3.22852,5.2539 0.61195,1.98082 0.84209,4.09331 0.60156,6.14649 1.11332,-0.55094 2.2573,-1.03943 3.43164,-1.44727 0.07062,-0.0245 0.14398,-0.0424 0.21484,-0.0664 0.52948,-0.79716 1.06177,-1.59329 1.63672,-2.35547 -0.09602,-2.68413 -0.47487,-5.36488 -1.31445,-7.91406 -0.9225,-2.80095 -2.39565,-5.4441 -4.45117,-7.5586 -0.99553,-1.02409 -2.13124,-1.92481 -3.41211,-2.55664 -1.28088,-0.63183 -2.71256,-0.98588 -4.13867,-0.9082 z M -6.47526,141.075 c -0.49693,0.0195 -1.01795,0.17771 -1.23438,0.625 -0.18598,0.38421 0.04344,0.94308 0.29883,1.27148 0.41358,0.53175 1.18532,0.45683 1.73437,0.79297 0.53329,0.32635 1.09041,0.66124 1.49415,1.17578 0.77275,0.98483 0.56347,3.02911 1.64843,3.49219 0.34056,0.14527 0.85446,-0.0698 1.01953,-0.43945 0.64567,-1.44657 -0.25486,-3.41317 -1.125,-4.69727 -0.7899,-1.16529 -2.07643,-2.03863 -3.35937,-2.20117 -0.14831,-0.0188 -0.31092,-0.026 -0.47656,-0.0195 z m -39.81641,0.81836 c -0.29738,-0.0401 -0.58595,-0.001 -0.79492,0.18359 -0.26931,0.23841 -0.23148,0.75587 -0.10547,1.09961 0.2042,0.55681 0.88922,0.75782 1.26562,1.20704 0.36563,0.4362 0.75052,0.88778 0.95118,1.42773 0.38407,1.03349 -0.37922,2.56504 0.42187,3.29492 0.25146,0.22914 0.75475,0.23407 1.00195,0 0.96708,-0.91569 0.752,-2.76147 0.36915,-4.0625 -0.34749,-1.18069 -1.20484,-2.30005 -2.26172,-2.86133 -0.24436,-0.12977 -0.55028,-0.24892 -0.84766,-0.28906 z m 17.82422,9.05469 c -0.73613,-0.0167 -1.47423,0.004 -2.21094,0.0606 -2.21013,0.16892 -4.40755,0.65416 -6.5,1.38085 -0.49653,0.17245 -0.9843,0.36738 -1.4707,0.56641 l -0.002,0.002 c -0.84535,0.34599 -1.67466,0.72952 -2.48437,1.15235 v 0.002 c -0.5738,0.29966 -1.1383,0.61715 -1.69141,0.95312 -0.54862,0.33326 -1.08528,0.68503 -1.61132,1.05274 -0.02789,0.0195 -0.05421,0.041 -0.08204,0.0605 -0.50021,0.35219 -0.9911,0.7173 -1.46875,1.09961 -0.03247,0.026 -0.06333,0.0539 -0.0957,0.0801 -0.47621,0.38445 -0.94295,0.78192 -1.39453,1.19532 -0.89924,0.82319 -1.75298,1.69625 -2.54297,2.625 -0.8032,0.54059 -1.56424,1.1408 -2.30078,1.76953 -0.55737,0.47578 -1.09499,0.97222 -1.60937,1.49414 -0.01973,0.02 -0.04089,0.0385 -0.06055,0.0586 -0.01972,0.0187 -0.03952,0.0373 -0.0586,0.0566 -0.0035,0.004 -0.0062,0.008 -0.0098,0.0117 -0.15992,0.16467 -0.31719,0.3311 -0.47266,0.5 -0.34436,0.37034 -0.68217,0.74657 -1.00195,1.13867 -0.22558,0.27661 -0.44548,0.55821 -0.65625,0.84766 -0.63271,0.8687 -1.17856,1.79887 -1.51953,2.81445 -0.35741,1.06456 -0.4779,2.19088 -0.70313,3.29102 -0.08439,0.41214 -0.18559,0.82541 -0.18359,1.24609 8e-4,0.21035 0.02855,0.42113 0.09375,0.6211 0.0189,0.0581 0.04872,0.11227 0.07422,0.16797 0.06955,0.24613 0.16192,0.48542 0.29297,0.70507 0.1551,0.25998 0.35306,0.48776 0.57031,0.69922 -0.0083,-0.0274 -0.0262,-0.0547 -0.0332,-0.082 -0.06087,-0.22208 -0.09037,-0.43246 -0.10547,-0.63281 0.14103,0.0603 0.28774,0.10982 0.4375,0.14062 0.34098,0.0701 0.69122,0.0798 1.03711,0.11914 0.31555,0.0359 0.62441,0.1 0.92968,0.17969 0.002,5.2e-4 0.0039,0.001 0.0059,0.002 0.01701,0.004 0.0338,0.009 0.05079,0.0137 0.01361,0.003 0.02744,0.006 0.04101,0.01 0.17994,0.0497 0.35305,0.12093 0.5293,0.1836 0.1695,0.0603 0.33983,0.11855 0.50586,0.18945 0.21546,0.092 0.42527,0.19551 0.63476,0.30273 0.09467,0.0485 0.18981,0.0954 0.28321,0.14649 0.0033,0.002 0.0064,0.004 0.0098,0.006 0.24566,0.13471 0.48573,0.27615 0.72266,0.42578 0.0069,0.004 0.01459,0.007 0.02148,0.0117 0.0072,0.005 0.01449,0.009 0.02149,0.0137 0.17943,0.11412 0.36281,0.22376 0.53711,0.34375 1.29429,0.89103 2.48835,1.9277 3.8164,2.76758 2.93436,1.85573 6.43301,2.68077 9.90235,2.81445 3.46934,0.13369 6.93122,-0.39442 10.33593,-1.07422 2.70573,-0.54024 5.40385,-1.18139 7.97071,-2.19336 3.93094,-1.54974 7.47338,-3.93523 10.85937,-6.46289 1.38701,-1.03541 2.75126,-2.10632 4.01953,-3.2832 0.13815,-0.12819 0.28039,-0.25187 0.41602,-0.38281 0.46869,-0.45251 0.92108,-0.9216 1.42383,-1.33594 0.50275,-0.41435 1.06145,-0.7751 1.68164,-0.97461 0.47267,-0.15207 0.96423,-0.20517 1.46093,-0.20117 0.49671,0.004 0.99855,0.0665 1.48829,0.14844 0.27274,0.0456 0.54676,0.0934 0.82031,0.13867 -0.01066,0.33666 -0.08506,0.68989 -0.26172,1.04492 v 0.002 c -0.19752,0.39543 -0.46124,0.6676 -0.69922,0.86524 -0.2347,0.19489 -0.43967,0.31409 -0.58594,0.40039 -0.456,0.26907 -0.90733,0.50466 -1.35156,0.72851 -0.21268,0.10717 -0.40913,0.20286 -0.61523,0.30469 -0.13703,0.0667 -0.27976,0.13822 -0.41407,0.20313 -0.13859,0.0679 -0.28583,0.14257 -0.42187,0.20898 -0.00844,0.004 -0.01697,0.008 -0.02539,0.0117 -0.00128,6.4e-4 -0.00269,0.001 -0.00391,0.002 -0.58705,0.28695 -1.14883,0.57029 -1.64648,0.88281 -1.41546,0.88891 -2.72205,2.20191 -4.23438,3.51758 -3.33799,2.90396 -7.19316,5.22228 -11.35742,6.75781 -2.7096,0.99915 -5.47189,1.64379 -8.17187,2.25196 -3.43869,0.77456 -7.03424,1.55008 -10.78516,1.48828 -3.77091,-0.062 -7.72346,-1.03376 -10.81445,-3.54883 -1.13887,-0.92666 -2.01922,-1.92548 -2.89258,-2.71094 -0.31249,-0.28103 -0.62882,-0.52543 -0.94531,-0.74414 -0.21643,-0.14956 -0.43234,-0.28526 -0.64844,-0.40039 -0.0018,-0.001 -0.0039,-0.002 -0.0059,-0.004 -0.002,-0.001 -0.0038,-0.003 -0.0059,-0.004 -10e-4,-10e-4 -0.0029,-10e-4 -0.0039,-0.002 h -0.002 c -0.21763,-0.115 -0.43496,-0.21746 -0.65039,-0.29297 0.43282,0.32937 0.84795,0.68208 1.25391,1.04492 1.4027,1.25373 2.65685,2.68386 3.8125,4.17383 2.4327,3.13645 4.58655,6.61682 7.83593,8.89648 2.29453,1.60977 5.03928,2.52835 7.82813,2.8086 3.27505,0.3291 6.59058,-0.19902 9.74805,-1.12891 2.92617,-0.86178 5.75464,-2.07346 8.35156,-3.67383 4.93639,-3.04209 9.06311,-7.49556 14.50195,-9.50586 1.18685,-0.43868 2.42186,-0.75349 3.56641,-1.29297 0.8627,-0.40663 1.68529,-0.96392 2.27539,-1.70117 0.09619,-0.12017 0.18663,-0.24513 0.26953,-0.375 0.0834,-0.13016 0.16051,-0.26609 0.22851,-0.40625 0.53163,-1.09515 0.52273,-2.3609 0.67774,-3.56836 0.20065,-1.56295 0.69117,-3.07803 0.87891,-4.64258 0.09393,-0.78227 0.11099,-1.57917 -0.02344,-2.35546 -0.00227,-0.0131 -0.00546,-0.026 -0.00782,-0.0391 -0.08505,-0.47233 -0.23473,-0.93363 -0.44335,-1.36523 -0.00355,-0.007 -0.00815,-0.0142 -0.01172,-0.0215 -0.05388,-0.1104 -0.11062,-0.21994 -0.17188,-0.32617 -0.08347,-0.1402 -0.17015,-0.2784 -0.26953,-0.4082 -0.0135,-0.0176 -0.03112,-0.0314 -0.04492,-0.0488 -0.06459,-0.18418 -0.13342,-0.36703 -0.23242,-0.53516 -0.49876,-0.84691 -1.36162,-1.42112 -2.25977,-1.82031 -0.26621,-0.11832 -0.53765,-0.22075 -0.8125,-0.31445 -0.00136,-4.7e-4 -0.00255,-0.001 -0.00391,-0.002 -0.24097,-0.0839 -0.485,-0.15722 -0.73046,-0.22852 -0.76543,-0.22217 -1.54675,-0.40065 -2.32227,-0.58789 -2.59822,-0.62731 -5.14154,-1.46788 -7.62109,-2.4668 h -0.00196 c -0.6195,-0.24959 -1.2355,-0.50581 -1.8457,-0.77734 -0.72761,-0.31764 -1.45089,-0.64691 -2.16211,-1 -0.21967,-0.10906 -0.43401,-0.22821 -0.65234,-0.33985 l -0.002,-0.002 c -1.61102,-0.8238 -3.19401,-1.70175 -4.78906,-2.55664 -0.40112,-0.21499 -0.80554,-0.42651 -1.21094,-0.63476 -0.0052,-0.003 -0.01062,-0.005 -0.01562,-0.008 -0.0026,-0.001 -0.0052,-0.003 -0.0078,-0.004 -0.66072,-0.33897 -1.32966,-0.65754 -2.00782,-0.95703 l -0.002,-0.002 c -0.22869,-0.10116 -0.45821,-0.20027 -0.68945,-0.29492 -0.01567,-0.006 -0.03121,-0.0131 -0.04688,-0.0195 -0.14736,-0.0604 -0.29472,-0.12072 -0.44336,-0.17774 -0.0033,-0.001 -0.0065,-0.003 -0.0098,-0.004 -0.44547,-0.17059 -0.89434,-0.33016 -1.35156,-0.46875 -1.69584,-0.51404 -3.4501,-0.77248 -5.2168,-0.8125 z m 3.3418,3.53515 c 0.76641,-0.0389 1.59322,0.14816 2.28515,0.41797 0.86034,0.33542 2.1943,0.90866 2.07422,1.82422 -0.09089,0.69305 -1.18807,0.96349 -1.88672,0.94336 -0.73205,-0.0211 -1.25713,-0.75449 -1.9082,-1.08984 -0.18498,-0.0953 -0.40394,-0.159 -0.63086,-0.21289 h -0.0019 c -0.02476,-0.006 -0.04929,-0.0119 -0.07422,-0.0176 -0.16265,-0.037 -0.32605,-0.0734 -0.48633,-0.11133 -0.15288,-0.0362 -0.30426,-0.0737 -0.43945,-0.125 h -0.002 c -0.13306,-0.0507 -0.24633,-0.11841 -0.34765,-0.19726 -0.03667,-0.0285 -0.07229,-0.0584 -0.10352,-0.0918 -0.01727,-0.0185 -0.03533,-0.0365 -0.05078,-0.0566 -0.05298,-0.0691 -0.09854,-0.14513 -0.12695,-0.23633 -0.08098,-0.25995 0.18194,-0.5806 0.41992,-0.71289 0.38945,-0.21655 0.81945,-0.31051 1.2793,-0.33399 z m -14.33985,0.56641 c 0.13334,-0.0181 0.25781,-0.0194 0.37695,0.0195 0.37091,0.12048 0.44475,0.94782 0.12696,1.17383 -0.47594,0.3385 -0.84005,1.20583 -1.2793,1.44726 -0.29142,0.1602 -0.71804,-0.14068 -0.85937,-0.37695 -0.11256,-0.18815 -0.12564,-0.41664 -0.06641,-0.6543 0.05923,-0.23765 0.19109,-0.48484 0.36523,-0.71288 0.34829,-0.45609 0.86921,-0.83347 1.33594,-0.89649 z m -11.02929,4.80664 0.39257,0.31836 c 0.0113,-0.009 0.02181,-0.0203 0.03321,-0.0293 z m 56.79687,21.44141 c -0.32146,0.43361 -0.6879,0.81733 -1.08594,1.13867 -0.6316,0.50989 -1.3159,0.87897 -1.98828,1.16406 -1.34168,0.56891 -2.62208,0.82173 -3.69726,1.16406 -4.90581,1.56208 -9.0147,5.654 -14.18946,8.61915 -2.75203,1.57692 -5.71105,2.72619 -8.73242,3.53906 -3.29642,0.88686 -6.78447,1.40273 -10.30469,1.08984 -2.98222,-0.26506 -5.9831,-1.13908 -8.56836,-2.84375 -3.52434,-2.32389 -5.75356,-5.7314 -8.1582,-8.47656 -0.93274,-1.06482 -1.92533,-2.07751 -2.9668,-3.03711 -0.002,0.0482 -0.0079,0.0963 -0.0098,0.14453 -0.13706,3.57644 0.08134,7.22221 -0.86524,10.67383 -0.14126,0.51511 -0.31132,1.01866 -0.49804,1.51562 -0.05529,0.14678 -0.11884,0.29024 -0.17774,0.43555 -0.14699,0.36383 -0.30143,0.72473 -0.46875,1.08008 -0.05843,0.12373 -0.11899,0.24636 -0.17969,0.36914 -0.20213,0.41039 -0.41452,0.81612 -0.63867,1.2168 -0.0259,0.0463 -0.05192,0.0925 -0.07812,0.13867 -0.2697,0.47608 -0.55067,0.94734 -0.84375,1.41211 -0.82505,1.30836 -1.72263,2.57854 -2.61719,3.83398 -3.84518,5.39644 -7.73183,10.93434 -9.62891,17.28321 -1.14888,3.845 -1.530255,7.91652 -1.11718,11.9082 -4.304376,6.32127 -8.030207,13.03633 -11.117191,20.0332 -4.67861,10.60441 -7.890531,21.89612 -9.019531,33.43164 -0.33268,3.39916 -0.47675,6.82073 -0.43164,10.24024 -0.103387,-0.16799 -0.215806,-0.33022 -0.316407,-0.5 -1.585857,-2.67642 -2.79901,-5.57274 -3.58789,-8.58203 -1.964488,-7.49381 -1.228127,-15.55415 1.367187,-22.85352 1.131283,-3.18175 2.60199,-6.23019 3.941406,-9.33008 2.193316,-5.07612 4.033434,-10.29447 5.808594,-15.5332 -0.20268,0.28582 -0.415067,0.56532 -0.611328,0.85547 -3.031554,4.4817 -5.214118,9.47023 -7.519531,14.36523 -1.330098,2.82415 -2.708516,5.63208 -3.751953,8.57422 -2.667198,7.52061 -3.049672,15.77073 -1.556641,23.60938 0.544242,2.85736 1.346736,5.70531 2.833984,8.20507 0.954287,1.60397 2.177994,3.01583 3.486329,4.35352 v 0.002 c 0.01223,0.0125 0.02487,0.0246 0.03711,0.0371 0.774041,0.78935 1.570079,1.55903 2.376953,2.31055 1.3009,1.21165 2.62509,2.39739 3.945312,3.58789 6.535859,5.89402 13.290195,11.54575 20.248048,16.93555 3.87331,3.00041 7.89992,6.02691 10.44922,10.21093 1.04363,1.71284 1.82202,3.61563 2.04101,5.60938 0.21899,1.99375 -0.15122,4.08449 -1.24218,5.76758 -0.88732,1.36892 -2.22126,2.42398 -3.71485,3.08007 -1.12435,0.49392 -2.33601,0.76793 -3.5625,0.86133 1.88783,2.32261 3.90032,4.69526 5.84571,7.29102 1.79965,2.40129 3.5387,5.01337 4.93164,7.89258 15.39115,6.05707 33.42201,5.41334 48.02343,-2.36719 8.33961,-4.44385 15.37887,-10.94252 22.16602,-17.51758 0.26386,-0.25561 0.52379,-0.51676 0.78711,-0.77344 0.89522,-9.02292 0.85388,-18.18619 0.22266,-27.35351 -0.1103,-1.60216 -0.30129,-3.56666 0.04687,-5.83203 0.35797,-2.32947 1.31508,-4.91919 3.58594,-6.875 2.11788,-1.82406 4.60342,-2.42449 6.78515,-2.54102 0.53227,-0.0285 1.04399,-0.0313 1.53516,-0.0137 1.47352,0.0527 2.76187,0.27578 3.86328,0.4375 1.16821,0.17152 2.40916,0.34648 3.63672,0.52148 0.06526,-0.509 0.14047,-1.01928 0.20117,-1.52734 2.27169,-19.02209 2.345,-39.11527 -5.99609,-56.36133 -2.87167,-5.93747 -6.69864,-11.41072 -11.28711,-16.14844 -1.22184,-8.29959 -3.63193,-16.42307 -7.13672,-24.04492 -0.41087,-0.89352 -0.85408,-1.77213 -1.28906,-2.65429 -1.50068,-3.04346 -3.09401,-6.04305 -4.58008,-9.0918 -0.10559,-0.2157 -0.21406,-0.4302 -0.31836,-0.64649 -0.14402,-0.29981 -0.28452,-0.60126 -0.42578,-0.90234 -0.46935,-0.99702 -0.92746,-1.99949 -1.35547,-3.01562 -0.85672,-2.03395 -1.62259,-4.10688 -2.53125,-6.11719 z m 29.48242,49.74023 c 3.85261,3.12338 8.45576,5.26547 12.32422,8.375 6.53334,5.2516 10.61647,13.13748 11.88281,21.33594 1.78395,11.54949 -1.71067,23.10522 -5.67187,34.21094 -2.07051,0.48087 -3.98569,1.55365 -5.55469,2.98828 -1.25295,1.14562 -2.27998,2.52094 -3.09961,4.00976 0.34808,-0.18537 0.69115,-0.37981 1.02735,-0.58593 1.57113,-0.96327 3.01013,-2.15078 4.67578,-2.93946 2.09339,-0.99121 4.4362,-1.30215 6.74218,-1.51953 1.60849,-0.15162 3.22142,-0.26442 4.83594,-0.32422 2.31011,-0.0856 4.62366,-0.0606 6.93164,0.0703 -0.40147,-0.0731 -0.8031,-0.14561 -1.20312,-0.22071 -2.32447,-0.4366 -4.63113,-0.96751 -6.96289,-1.36328 -1.51424,-0.257 -3.06031,-0.4563 -4.5918,-0.4375 -0.38363,0.005 -0.76518,0.0316 -1.14649,0.0664 0.09577,-0.009 0.19121,-0.0223 0.28711,-0.0293 1.80235,-4.86369 3.5743,-9.73652 4.94336,-14.75586 2.12588,-7.79395 1.88863,-13.40167 0.7793,-20.09961 -1.39499,-8.42279 -6.29468,-16.19818 -13.23437,-21.33203 -3.99895,-2.95835 -8.57878,-5.05668 -12.96485,-7.44922 z m -140.97265,66.98633 c -0.41361,-0.0216 -0.82782,-0.01 -1.24024,0.0195 -0.27754,0.0196 -0.55574,0.0424 -0.83008,0.0859 -0.30318,0.048 -0.60195,0.11506 -0.89843,0.19336 -0.0739,0.0195 -0.14739,0.0411 -0.22071,0.0625 -0.2952,0.0862 -0.58824,0.18272 -0.87304,0.30078 -1.657,0.68687 -3.06225,1.89058 -4.20704,3.27148 -0.33029,0.39843 -0.63624,0.81605 -0.93164,1.24024 -0.72794,1.04563 -1.37026,2.15378 -1.99218,3.26758 -0.87449,1.56612 -1.72784,3.15117 -2.78321,4.60156 -1.05536,1.45039 -2.32943,2.77396 -3.88672,3.66406 -1.63801,0.93624 -3.52589,1.35912 -5.40625,1.51367 -1.88037,0.15472 -3.77003,0.0523 -5.65625,0.01 -1.88622,-0.0425 -3.78976,-0.0239 -5.63671,0.36133 -1.84694,0.38528 -3.65077,1.16197 -5.00977,2.4707 -1.47407,1.41954 -2.33871,3.38359 -2.72852,5.39258 -0.38982,2.00899 -0.33718,4.07552 -0.19726,6.11719 0.31334,4.57213 1.05571,9.1104 1.28516,13.6875 0.22945,4.5771 -0.0759,9.27009 -1.77735,13.52539 -1.04203,2.6061 -2.58543,4.99378 -3.54101,7.63281 -0.47778,1.31952 -0.80678,2.70615 -0.82618,4.10937 -0.0194,1.40322 0.28137,2.82709 0.99219,4.03711 0.91964,1.56549 2.46571,2.68151 4.11914,3.43164 1.65342,0.75012 3.43293,1.173 5.1836,1.6543 3.94033,1.0833 7.788,2.47665 11.70117,3.6543 12.73266,3.83183 26.14892,5.37492 38.501951,10.29492 6.063123,2.41484 12.021229,5.67533 18.542968,5.91992 4.102091,0.15384 8.234321,-0.94335 11.750001,-3.0625 3.51568,-2.11914 6.40664,-5.24764 8.29101,-8.89453 0.6235,-1.2066 1.12809,-2.47066 1.5254,-3.76758 0.16022,-0.52319 0.30434,-1.05073 0.42773,-1.58398 v -0.002 c 0.12622,-0.54573 0.23281,-1.09693 0.32031,-1.6504 0.08053,-0.50934 0.1399,-1.02154 0.1875,-1.53515 0.05802,-0.62877 0.09552,-1.2591 0.10352,-1.89063 0.0021,-0.16862 -0.0088,-0.33722 -0.0098,-0.50586 -0.0037,-0.48823 -0.01738,-0.97579 -0.05078,-1.46289 -0.02878,-0.42292 -0.06208,-0.84486 -0.11328,-1.26562 -0.002,-0.0169 -0.0019,-0.034 -0.0039,-0.0508 -10e-4,-0.005 -0.0013,-0.0106 -0.002,-0.0156 -0.06149,-0.49345 -0.14383,-0.98408 -0.23633,-1.47265 -0.0227,-0.12002 -0.04571,-0.23974 -0.07031,-0.35938 -0.10022,-0.48748 -0.21039,-0.97298 -0.3418,-1.45312 -0.13141,-0.48015 -0.28209,-0.95371 -0.4414,-1.42383 -0.04166,-0.12255 -0.08346,-0.24532 -0.12696,-0.36719 -0.08061,-0.22679 -0.17121,-0.44933 -0.25781,-0.67383 -0.18894,-0.48813 -0.39008,-0.97174 -0.60547,-1.44922 -0.0632,-0.1406 -0.12415,-0.28217 -0.18945,-0.42187 -0.60537,-1.2902 -1.29527,-2.54373 -2.04883,-3.76172 -0.798,-1.28976 -1.65796,-2.54423 -2.55859,-3.75977 -2.33888,-3.15664 -4.91598,-6.1309 -7.3086,-9.24609 -0.34242,-0.44582 -0.69232,-0.8849 -1.02539,-1.33789 -4.07533,-5.54261 -7.315018,-11.64394 -10.841794,-17.55078 -4.347942,-7.28217 -9.145554,-14.28739 -14.128906,-21.15039 -2.170054,-2.98857 -4.435279,-6.01039 -7.490234,-8.08594 -1.527486,-1.03778 -3.244506,-1.82134 -5.060546,-2.15625 -0.45401,-0.0837 -0.91307,-0.13811 -1.375,-0.16211 z m 138.75586,5.7793 c -0.37779,-0.014 -0.75649,-0.0131 -1.13477,0.008 -1.51311,0.0838 -3.05242,0.51944 -4.20117,1.50781 -1.24367,1.07004 -1.91175,2.68823 -2.15625,4.31055 -0.24461,1.62231 -0.1075,3.27372 0.0098,4.91016 0.57201,7.98273 0.66827,16.00858 0.11719,23.99023 -0.05635,0.81619 -0.11515,1.6321 -0.18555,2.44727 -0.08029,0.97115 -0.16905,1.94089 -0.27343,2.91015 -0.57669,5.35487 -1.47046,10.67139 -2.41016,15.97461 -1.13092,6.38235 -2.33322,12.79558 -2.32422,19.27734 9e-4,0.6599 0.02249,1.32428 0.0586,1.98829 0.0047,0.0892 0.0077,0.17837 0.01367,0.26757 0.0429,0.68139 0.10482,1.36303 0.19922,2.03711 0.09222,0.65843 0.21566,1.30954 0.36914,1.95118 0.0156,0.0657 0.03057,0.13176 0.04687,0.19726 0.07388,0.29444 0.15514,0.58584 0.24414,0.875 0.0226,0.0739 0.04661,0.1472 0.07031,0.2207 0.09529,0.29463 0.19592,0.58717 0.3086,0.875 10e-4,0.002 0.0012,0.004 0.002,0.006 0.29373,0.7496 0.63917,1.47778 1.06836,2.16797 1.92781,3.10017 5.14743,5.1861 8.49414,6.64453 4.77615,2.08136 10.09968,3.08173 15.25195,2.3086 4.23623,-0.63567 8.24995,-2.45297 11.72266,-4.96094 3.44176,-2.48561 6.35287,-5.61927 9.42188,-8.55273 3.58854,-3.43005 7.42609,-6.61223 11.58398,-9.32422 6.20581,-4.04776 13.04726,-7.00058 19.64844,-10.36524 3.87038,-1.97275 7.75792,-4.16385 10.55664,-7.48633 1.26823,-1.50556 2.28579,-3.22103 3.00195,-5.05468 h 0.002 c 0.40608,-1.72656 0.14074,-3.60237 -0.72851,-5.14844 -0.64082,-1.13979 -1.58437,-2.08461 -2.60938,-2.89649 -1.025,-0.81186 -2.13917,-1.50247 -3.21875,-2.24023 -2.30024,-1.57195 -4.44577,-3.35729 -6.57812,-5.15039 -2.14036,-1.79984 -4.28309,-3.62352 -6.07617,-5.76953 -1.79309,-2.14602 -3.23564,-4.65027 -3.76368,-7.39649 -0.32089,-1.66924 -0.29767,-3.38243 -0.4414,-5.07617 -0.16225,-1.91194 -0.54229,-3.81452 -1.2461,-5.59961 -0.47243,-1.19829 -1.10109,-2.35471 -2.0039,-3.27343 -1.18792,-1.20886 -2.78007,-1.9377 -4.39649,-2.44727 -0.07802,-0.0246 -0.15802,-0.0427 -0.23632,-0.0664 -0.15088,0.24708 -0.29543,0.49788 -0.45313,0.74024 -0.51525,1.88781 -1.47383,3.63789 -2.58789,5.25195 -3.68497,5.33884 -9.13576,9.43818 -15.28711,11.49805 -3.72666,1.21976 -7.82397,1.27872 -11.58398,0.16601 -2.1831,-0.64604 -4.30285,-1.71765 -5.79688,-3.43554 -1.84901,-2.12606 -2.55851,-5.02129 -2.78125,-7.83008 -0.23884,-3.01196 0.03778,-6.08569 0.95313,-8.95703 -0.06237,-0.0116 -0.1251,-0.0218 -0.1875,-0.0332 -1.12171,-0.20349 -2.24906,-0.38047 -3.37891,-0.54492 -0.0118,-0.002 -0.02336,-0.004 -0.03516,-0.006 -1.22663,-0.17829 -2.45422,-0.35413 -3.67968,-0.5332 -1.12463,-0.16434 -2.25539,-0.34031 -3.38867,-0.38281 z"
       inkscape:connector-curvature="0"
       sodipodi:nodetypes="cccccscccccssscscccccscccccccsscsccscscccccscscsscsccccccccsccccccccccsscccsssccsscccccccccccccccscsccscscscccscccccscccscscsscsccccccccccccccccccsccccccccccccsscccssccccccscccccccccccccccccccccccccccccccccccccccccsccccccsccccccsccccccsccccccccccccscccccccccccccccccccccccccccccccccccccccccccccccccccccccccccccccccccccccccscsccccsccccccccccccccccccccccccccccsccscscccccccccccccccccsccccccccccccccccccccccccccccccccccccccccccccccccccccccscccccccccccccccccssccsssccsssccccccccssccccsccccccccccsccccccccccsscccccccccccccccsccccccccccccccccccssscssccssscccccccccccccccccccccccccssscccccscccccsccccccccccccscscccccccccsccccccccccscccccccc" />
  </g>
</svg>
