<?xml version="1.0" encoding="UTF-8" standalone="no"?>
<!-- Created with Inkscape (http://www.inkscape.org/) -->

<svg
   xmlns:dc="http://purl.org/dc/elements/1.1/"
   xmlns:cc="http://creativecommons.org/ns#"
   xmlns:rdf="http://www.w3.org/1999/02/22-rdf-syntax-ns#"
   xmlns:svg="http://www.w3.org/2000/svg"
   xmlns="http://www.w3.org/2000/svg"
   xmlns:sodipodi="http://sodipodi.sourceforge.net/DTD/sodipodi-0.dtd"
   xmlns:inkscape="http://www.inkscape.org/namespaces/inkscape"
   width="280"
   height="330"
   id="svg27450"
   version="1.1"
   inkscape:version="0.91+devel r14094"
   sodipodi:docname="tux-bw-inverted.svg"
   inkscape:export-filename="./tux-large-bw.png"
   inkscape:export-xdpi="300"
   inkscape:export-ydpi="300"
   viewBox="0 0 280 330">
  <title
     id="title20046">Tux</title>
  <sodipodi:namedview
     id="base"
     pagecolor="#000000"
     bordercolor="#999999"
     borderopacity="0.41176471"
     inkscape:pageopacity="0"
     inkscape:pageshadow="2"
     inkscape:zoom="1.4142136"
     inkscape:cx="137.9899"
     inkscape:cy="131.78745"
     inkscape:document-units="px"
     inkscape:current-layer="layer1"
     showgrid="false"
     inkscape:window-width="2560"
     inkscape:window-height="1391"
     inkscape:window-x="0"
     inkscape:window-y="0"
     inkscape:window-maximized="1"
     fit-margin-top="0"
     fit-margin-left="0"
     fit-margin-right="0"
     fit-margin-bottom="0"
     showguides="true"
     inkscape:guide-bbox="true"
     inkscape:showpageshadow="false"
     showborder="true" />
  <defs
     id="defs27452">
    <inkscape:path-effect
       effect="spiro"
       id="path-effect29678-1-6-8"
       is_visible="true" />
    <inkscape:path-effect
       effect="spiro"
       id="path-effect29678-4-6-2-0"
       is_visible="true" />
    <inkscape:path-effect
       effect="spiro"
       id="path-effect28797-8-1-1-8"
       is_visible="true" />
    <clipPath
       id="clipPath1491-6-1"
       clipPathUnits="userSpaceOnUse">
      <path
         sodipodi:nodetypes="aaaaassssaaaaaa"
         inkscape:connector-curvature="0"
         d="m 304.84727,225.44951 c 6.01627,4.92338 9.77707,12.317 10.94319,20.00305 1.8254,12.03148 -2.34636,24.07488 -6.44591,35.53273 -0.81749,2.28481 -1.63978,4.59033 -1.96473,6.99513 -0.32495,2.4048 -0.11897,4.94825 1.02948,7.08594 1.30279,2.42497 3.73227,4.12469 6.36677,4.92292 2.58877,0.78438 5.39365,0.76103 8.01466,0.0922 2.62101,-0.66882 5.06097,-1.96774 7.18716,-3.63996 5.48002,-4.30997 8.75799,-10.98552 10.01043,-17.84394 1.25243,-6.85841 0.63908,-13.92879 -0.551,-20.7983 -1.62313,-9.36916 -4.30898,-18.53961 -7.74003,-27.40773 -2.51766,-6.50732 -5.46794,-12.91081 -9.61753,-18.52016 -4.04611,-5.46946 -9.16208,-10.08954 -13.10336,-15.63502 -2.73209,-3.84412 -4.89983,-8.13097 -8.1917,-11.50812 -1.64594,-1.68858 -3.57654,-3.13527 -5.76975,-4.00143 -2.19321,-0.86616 -4.66356,-1.12446 -6.93254,-0.48249 -1.50468,0.42573 -2.89193,1.23739 -4.03791,2.30136 -1.14598,1.06397 -2.05268,2.37637 -2.69275,3.80312 -1.28015,2.85349 -1.47719,6.11241 -0.96512,9.1977 0.66114,3.98343 2.44407,7.69333 4.46569,11.18873 2.27396,3.93169 4.918,7.71926 8.38442,10.65407 3.5985,3.04664 7.96161,5.07413 11.61053,8.0602"
         id="path1493-6-2"
         inkscape:original-d="m 304.84727,225.44951 c 5.05628,5.63479 9.72833,12.47181 10.94319,20.00305 1.91724,11.88535 -4.97006,23.58228 -6.44591,35.53273 -0.57645,4.66766 -2.84839,9.7988 -0.93525,14.08107 1.10334,2.46967 3.76154,4.35176 6.36677,4.92292 5.08221,1.1142 11.95719,2.41291 15.20182,-3.54776 6.07775,-11.16533 10.5961,-26.78641 9.45943,-38.64224 -0.906,-9.44981 -3.86858,-18.61978 -7.74003,-27.40773 -2.817,-6.39442 -6.14704,-12.5833 -9.61753,-18.52016 -3.44146,-5.88721 -8.20051,-10.94245 -13.10336,-15.63502 -6.34842,-6.07614 -12.40311,-17.98386 -20.89399,-15.99204 -5.48499,1.28669 -7.45029,9.57719 -7.69578,15.30218 -0.17245,4.02188 2.46425,7.71677 4.46569,11.18873 2.26238,3.92465 5.10447,7.56255 8.38442,10.65407 3.43735,3.23988 8.4511,4.53927 11.61053,8.0602 z"
         style="fill:none;stroke:#c17d11;stroke-width:1px;stroke-linecap:butt;stroke-linejoin:miter;stroke-opacity:1" />
    </clipPath>
    <filter
       style="color-interpolation-filters:sRGB"
       height="1.5474488"
       y="-0.27372435"
       width="1.9386586"
       x="-0.46932927"
       id="filter15211-9-7"
       inkscape:collect="always">
      <feGaussianBlur
         id="feGaussianBlur15213-7-3"
         stdDeviation="0.85991809"
         inkscape:collect="always" />
    </filter>
    <inkscape:path-effect
       is_visible="true"
       id="path-effect5849-9"
       effect="spiro" />
    <inkscape:path-effect
       effect="spiro"
       id="path-effect29716-6-1-2-9"
       is_visible="true" />
    <inkscape:path-effect
       is_visible="true"
       id="path-effect2283-5-9"
       effect="spiro" />
    <clipPath
       id="clipPath14822-2-4-5-3"
       clipPathUnits="userSpaceOnUse">
      <path
         style="fill:none;stroke:#ce5c00;stroke-width:1px;stroke-linecap:butt;stroke-linejoin:miter;stroke-opacity:1"
         inkscape:original-d="m 386.1875,285.32775 c -0.40516,-1.10369 -1.11845,-2.08156 -1.9907,-2.86987 -0.87226,-0.78832 -1.90049,-1.39229 -2.98278,-1.85155 -2.16459,-0.91852 -4.52053,-1.26149 -6.83152,-1.69556 -2.17919,-0.40931 -4.34179,-0.90631 -6.52782,-1.27734 -2.27136,-0.38551 -4.6179,-0.63213 -6.8653,-0.1253 -1.96583,0.44333 -3.7845,1.45879 -5.27172,2.81864 -1.48723,1.35984 -2.64911,3.0564 -3.48499,4.89007 -1.47218,3.22952 -1.93451,6.86503 -1.65394,10.40316 0.20882,2.63325 0.87532,5.34594 2.60877,7.33912 1.40065,1.61052 3.38733,2.61526 5.43398,3.22092 3.52502,1.04316 7.36663,0.98822 10.86038,-0.1553 5.76689,-1.93113 10.87568,-5.77387 14.33034,-10.77903 1.13861,-1.64963 2.11217,-3.44809 2.5532,-5.4034 0.33597,-1.48955 0.34831,-3.08112 -0.1779,-4.51456"
         id="path14824-6-5-1-7"
         d="m 386.1875,285.32775 c -0.40516,-1.10369 -1.11845,-2.08156 -1.9907,-2.86987 -0.87226,-0.78832 -1.90049,-1.39229 -2.98278,-1.85155 -2.16459,-0.91852 -4.52053,-1.26149 -6.83152,-1.69556 -2.17919,-0.40931 -4.34179,-0.90631 -6.52782,-1.27734 -2.27136,-0.38551 -4.6179,-0.63213 -6.8653,-0.1253 -1.96583,0.44333 -3.7845,1.45879 -5.27172,2.81864 -1.48723,1.35984 -2.64911,3.0564 -3.48499,4.89007 -1.47218,3.22952 -1.93451,6.86503 -1.65394,10.40316 0.20882,2.63325 0.87532,5.34594 2.60877,7.33912 1.40065,1.61052 3.38733,2.61526 5.43398,3.22092 3.52502,1.04316 7.36663,0.98822 10.86038,-0.1553 5.76689,-1.93113 10.87568,-5.77387 14.33034,-10.77903 1.13861,-1.64963 2.11217,-3.44809 2.5532,-5.4034 0.33597,-1.48955 0.34831,-3.08112 -0.1779,-4.51456"
         inkscape:connector-curvature="0"
         sodipodi:nodetypes="aaaasssaccaassc" />
    </clipPath>
    <inkscape:path-effect
       is_visible="true"
       id="path-effect14972-2-2-6-4-5"
       effect="spiro" />
    <inkscape:path-effect
       effect="spiro"
       id="path-effect5147-6"
       is_visible="true" />
    <inkscape:path-effect
       is_visible="true"
       id="path-effect9100-4-8"
       effect="spiro" />
    <inkscape:path-effect
       is_visible="true"
       id="path-effect9396-2-1"
       effect="spiro" />
    <inkscape:path-effect
       is_visible="true"
       id="path-effect9121-0-6"
       effect="spiro" />
    <inkscape:path-effect
       effect="spiro"
       id="path-effect5178-6"
       is_visible="true" />
    <inkscape:path-effect
       is_visible="true"
       id="path-effect9114-8-3"
       effect="spiro" />
  </defs>
  <metadata
     id="metadata27455">
    <rdf:RDF>
      <cc:Work
         rdf:about="">
        <dc:format>image/svg+xml</dc:format>
        <dc:type
           rdf:resource="http://purl.org/dc/dcmitype/StillImage" />
        <dc:title>Tux</dc:title>
        <dc:date>20 June 2012</dc:date>
        <dc:creator>
          <cc:Agent>
            <dc:title>Garrett LeSage</dc:title>
          </cc:Agent>
        </dc:creator>
        <cc:license
           rdf:resource="http://creativecommons.org/publicdomain/zero/1.0/" />
        <dc:contributor>
          <cc:Agent>
            <dc:title>Larry Ewing, the creator of the original Tux graphic</dc:title>
          </cc:Agent>
        </dc:contributor>
        <dc:subject>
          <rdf:Bag>
            <rdf:li>tux</rdf:li>
            <rdf:li>Linux</rdf:li>
            <rdf:li>penguin</rdf:li>
            <rdf:li>logo</rdf:li>
          </rdf:Bag>
        </dc:subject>
        <dc:rights>
          <cc:Agent>
            <dc:title>Larry Ewing, Garrett LeSage</dc:title>
          </cc:Agent>
        </dc:rights>
        <dc:source>https://github.com/garrett/Tux</dc:source>
      </cc:Work>
      <cc:License
         rdf:about="http://creativecommons.org/publicdomain/zero/1.0/">
        <cc:permits
           rdf:resource="http://creativecommons.org/ns#Reproduction" />
        <cc:permits
           rdf:resource="http://creativecommons.org/ns#Distribution" />
        <cc:permits
           rdf:resource="http://creativecommons.org/ns#DerivativeWorks" />
      </cc:License>
    </rdf:RDF>
  </metadata>
  <g
     transform="translate(160,-57.362183)"
     id="layer1"
     inkscape:groupmode="layer"
     inkscape:label="Layer 1">
    <g
       transform="translate(-159.82731,57.246051)"
       id="g8128">
      <g
         id="g5854">
        <path
           transform="translate(160,-57.362183)"
           style="fill:#ffffff;fill-opacity:1;stroke:none"
           d="m 40.523915,180.7341 c 3.256446,7.09068 6.891075,14.00328 10.12118,21.106 6.216296,13.66909 10.936727,28.10308 12.898249,42.99062 1.961521,14.88754 1.105026,30.2579 -3.553709,44.53314 -5.258406,16.11274 -15.238853,30.44766 -27.46966,42.18132 -14.467609,13.87954 -33.04038413,24.58136 -53.07364,25.37 -13.054011,0.51389 -26.050181,-3.21837 -37.610838,-9.30298 -9.715182,-5.1133 -18.583641,-11.92694 -25.66024,-20.32053 -7.076598,-8.39359 -12.330354,-18.3872 -14.763292,-29.09287 -2.995965,-13.18318 -1.641075,-27.17816 2.89379,-39.91421 3.243125,-9.10823 8.049542,-17.58768 11.47203,-26.63004 3.7398,-9.88071 5.828418,-20.43018 10.783122,-29.76107 4.491479,-8.45853 11.226368,-15.68619 14.80419,-24.56984 2.137019,-5.30617 3.063571,-11.00539 4.443519,-16.55679 1.379948,-5.55139 3.311902,-11.14416 7.070091,-15.45673 4.528631,-5.19667 11.343021,-8.01445 18.190607,-8.80464 6.847585,-0.7902 13.777615,0.27687 20.498321,1.80852 5.3506444,1.21941 10.6348536,2.73531 15.8054,4.57428 4.413403,1.56968 8.785663,3.39762 12.60195,6.11386 5.198917,3.70033 9.160341,8.91065 12.315218,14.45753 3.154877,5.54689 5.570481,11.47543 8.233712,17.27443 z"
           id="path8130"
           inkscape:connector-curvature="0" />
        <path
           transform="translate(160,-57.362183)"
           style="fill:#ffffff;fill-opacity:1;stroke:none"
           d="m -58.927093,165.79951 c -0.64417,-7.75054 -0.489994,-15.54319 -0.7792,-23.31507 -0.278079,-7.47284 -0.966419,-14.94214 -0.71488,-22.41592 0.256146,-7.61067 1.530395,-15.30915 4.91386,-22.13118 3.385048,-6.825218 8.878775,-12.607835 15.585408,-16.222143 6.31035,-3.400745 13.56602,-4.852888 20.73397,-4.774941 9.718794,0.105686 19.46363829,3.041609 27.3343,8.744136 4.932856,3.574 9.084713,8.178434 12.35777,13.315908 2.793402,4.38459 4.963417,9.17408 6.32522,14.19138 2.792946,10.29006 2.130609,21.14782 2.67383,31.79633 0.514813,10.09165 2.130563,20.16036 1.58126,30.25019 -0.119294,2.19125 -0.356365,4.43384 -1.33303,6.39902 -0.951782,1.91511 -2.568082,3.45525 -4.424671,4.51667 -1.856589,1.06142 -3.947249,1.6657 -6.060817,1.99184 -4.227136,0.65229 -8.548648,0.2219 -12.807542,0.61684 -6.17994057,0.57309 -12.0748772,2.86516 -18.20845,3.81352 -7.309537,1.13018 -14.757375,0.32867 -22.14788,0.0336 -2.959947,-0.11818 -5.929029,-0.15508 -8.86833,-0.52354 -2.9393,-0.36846 -5.869508,-1.081 -8.483878,-2.47395 -1.611132,-0.85842 -3.093397,-1.97501 -4.295425,-3.34897 -1.202028,-1.37396 -2.118999,-3.0094 -2.576865,-4.7766 -0.687335,-2.65287 -0.32485,-5.44616 -0.315229,-8.18661 0.0088,-2.50641 -0.28182,-5.00269 -0.489421,-7.50051 z"
           id="path8132"
           inkscape:connector-curvature="0" />
        <path
           transform="translate(160,-57.362183)"
           sodipodi:nodetypes="aaaaaaaaaaaa"
           inkscape:connector-curvature="0"
           d="m -16.964615,357.03896 c 5.500837,0.31997 10.9908955,0.85447 16.43925,1.67728 4.7919663,0.72368 9.5497336,1.67013 14.25969,2.81161 7.377145,1.78788 14.728205,4.0679 22.31583,4.28409 1.997291,0.0569 4.010279,-0.0321 5.960615,-0.46634 1.950337,-0.43428 3.842365,-1.22549 5.404555,-2.47127 2.329224,-1.85746 3.809995,-4.65849 4.35712,-7.58698 0.547125,-2.9285 0.20831,-5.97588 -0.649294,-8.82894 -1.715208,-5.70613 -5.389711,-10.57531 -8.436536,-15.69572 -1.744737,-2.93216 -3.299509,-5.97987 -5.189103,-8.82084 -1.889593,-2.84097 -4.151357,-5.50114 -7.019097,-7.34985 -3.96766,-2.55779 -8.887804,-3.39187 -13.585173,-2.92356 -4.69737,0.46831 -9.2004067,2.1651 -13.392487,4.3356 -5.8762391,3.04249 -11.4070359,7.21952 -14.61149,13.00903 -1.115219,2.01487 -1.925274,4.18111 -2.872472,6.28021 -0.947199,2.09911 -2.055654,4.16572 -3.660268,5.81758 -1.78899,1.84166 -4.111969,3.084 -5.962906,4.86339 -0.925468,0.8897 -1.735469,1.92538 -2.20985,3.11828 -0.474381,1.1929 -0.591652,2.55593 -0.158794,3.76452 0.296838,0.8288 0.841083,1.5585 1.510884,2.12981 0.669801,0.57131 1.462232,0.98862 2.292821,1.28043 1.661178,0.58361 3.448963,0.66943 5.206705,0.77167 z"
           id="path8134"
           inkscape:original-d="m -16.964615,357.03896 c 5.31141,1.45915 10.99141,0.86408 16.43925,1.67728 4.79165,0.71525 9.50413,1.88631 14.25969,2.81161 7.43501,1.44665 14.74518,4.52367 22.31583,4.28409 3.91094,-0.12377 9.20178,0.32283 11.36517,-2.93761 5.98186,-9.01526 -0.551,-22.13144 -4.72871,-32.11164 -2.60789,-6.23005 -6.08594,-13.31892 -12.2082,-16.17069 -8.16275,-3.80224 -18.64853,-2.01042 -26.97766,1.41204 -6.03181,2.47849 -10.56582,7.89452 -14.61149,13.00903 -2.84323,3.5944 -4.11374,8.20521 -6.53274,12.09779 -2.53371,4.07718 -9.56405,7.10679 -8.33155,11.74619 0.85016,3.20019 5.81751,3.30476 9.01041,4.18191 z"
           inkscape:path-effect="#path-effect29678-1-6-8"
           style="fill:#ffffff;fill-opacity:1;stroke:none" />
        <path
           transform="translate(160,-57.362183)"
           sodipodi:nodetypes="aaaaaaaaaaaa"
           inkscape:connector-curvature="0"
           d="m -33.313285,356.6854 c -4.583902,0.10576 -9.120079,0.92594 -13.610282,1.85407 -4.292369,0.88724 -8.564202,1.87547 -12.803666,2.98838 -7.153867,1.87798 -14.317463,4.12691 -21.71205,4.28409 -1.94611,0.0414 -3.906178,-0.065 -5.802639,-0.50379 -1.89646,-0.43874 -3.733005,-1.22036 -5.255033,-2.43382 -2.325052,-1.85369 -3.802741,-4.64939 -4.350393,-7.57207 -0.547652,-2.92269 -0.213097,-5.96402 0.635328,-8.81397 1.69685,-5.69989 5.336383,-10.57867 8.315835,-15.7256 1.693032,-2.92467 3.187178,-5.96644 5.017961,-8.80692 1.830783,-2.84047 4.036361,-5.50702 6.859931,-7.36377 3.84835,-2.53064 8.646801,-3.38743 13.230443,-2.93559 4.583641,0.45184 8.975092,2.13982 13.017307,4.34763 5.706463,3.1168 10.916569,7.40628 14.216168,13.00903 2.314942,3.93079 3.650896,8.42457 6.35599,12.09779 1.456588,1.97789 3.289331,3.68615 4.501211,5.82274 0.605939,1.0683 1.049652,2.24541 1.153182,3.46922 0.10353,1.22381 -0.151379,2.49795 -0.840053,3.51488 -0.455483,0.67259 -1.087331,1.21664 -1.793342,1.61838 -0.706011,0.40173 -1.485289,0.66469 -2.280446,0.83072 -1.590314,0.33207 -3.231272,0.28113 -4.855452,0.3186 z"
           id="path8136"
           inkscape:original-d="m -33.313285,356.6854 c -4.47031,0.99017 -9.10753,1.0238 -13.610282,1.85407 -4.309938,0.79472 -8.519237,2.06598 -12.803666,2.98838 -7.211653,1.5526 -14.339038,4.52326 -21.71205,4.28409 -3.811742,-0.12365 -8.953592,0.24319 -11.057672,-2.93761 -5.96574,-9.01859 0.51057,-22.10189 4.60077,-32.11164 2.52985,-6.19116 5.831856,-13.31131 11.877892,-16.17069 7.920757,-3.746 18.168716,-1.97914 26.24775,1.41204 5.922736,2.48608 10.294528,7.92178 14.216168,13.00903 2.78113,3.60775 4.49162,7.94151 6.35599,12.09779 1.86656,4.16115 6.81989,8.71087 4.81434,12.80684 -1.37033,2.79864 -5.88686,2.09382 -8.92924,2.7677 z"
           inkscape:path-effect="#path-effect29678-4-6-2-0"
           style="fill:#ffffff;fill-opacity:1;stroke:none" />
        <path
           style="fill:#000000;fill-opacity:1;stroke:none"
           d="m -47.295823,162.81433 c -1.0464,1.31136 -1.727734,2.88726 -2.139268,4.51369 -0.411534,1.62642 -0.562286,3.30801 -0.626531,4.98446 -0.12849,3.35291 0.07646,6.77015 -0.810961,10.00604 -0.948742,3.4595 -3.075951,6.45649 -5.15761,9.37795 -3.604854,5.05916 -7.24855,10.25011 -9.02706,16.20217 -1.077103,3.60469 -1.435613,7.42255 -1.04841,11.16474 -4.035298,5.9262 -7.528852,12.22112 -10.4229,18.78069 -4.386197,9.94163 -7.396115,20.5265 -8.454552,31.34105 -1.296051,13.24236 0.397579,26.86184 5.627472,39.09655 3.781309,8.84592 9.417708,16.94379 16.68566,23.2466 3.695412,3.20468 7.79967,5.93944 12.1895,8.09709 15.212515,7.47713 34.013475,7.49101 48.972958,-0.48031 7.8183793,-4.16611 14.417887,-10.2582 20.78084,-16.42232 3.831831,-3.71209 7.643527,-7.51249 10.56653,-11.97551 5.62746,-8.59236 7.587474,-19.03566 8.80544,-29.23436 2.129707,-17.83321 2.198403,-36.66998 -5.62137,-52.83816 -2.692189,-5.56638 -6.278958,-10.69891 -10.58065,-15.14052 -1.14547,-7.78087 -3.406381,-15.39666 -6.69212,-22.54215 -2.370453,-5.15502 -5.2683,-10.06187 -7.47079,-15.29085 -0.9042153,-2.14672 -1.6899447,-4.34486 -2.6934604,-6.44699 -1.0035158,-2.10213 -2.2414458,-4.12498 -3.9244596,-5.73541 -1.72342753,-1.6491 -3.8709572,-2.81824 -6.1359345,-3.56631 -2.2649774,-0.74806 -4.649163,-1.08697 -7.0314645,-1.2068 -4.764603,-0.23966 -9.538719,0.38348 -14.305591,0.19423 -3.794763,-0.15066 -7.577765,-0.81566 -11.368917,-0.59186 -1.895577,0.1119 -3.790869,0.45058 -5.550264,1.1649 -1.759396,0.71432 -3.381726,1.81713 -4.566087,3.30139 z"
           id="path8138"
           inkscape:connector-curvature="0"
           transform="translate(160,-57.362183)" />
        <path
           transform="translate(160,-57.362183)"
           sodipodi:nodetypes="zzzzzzz"
           inkscape:connector-curvature="0"
           inkscape:original-d="m -45.767713,121.36218 c -3.79199,4.78949 -8.5176,11.69104 -8.19273,17.25 0.32487,5.55896 3.86025,13.93486 8.37542,16 4.515168,2.06514 5.754358,0.0125 8.329018,-2.5 2.57466,-2.51247 3.85871,-7.34762 4.00585,-12.25 0.14713,-4.90238 -3.03534,-11.91949 -5.43855,-15.25 -2.40321,-3.33051 -3.28702,-8.03949 -7.079008,-3.25 z"
           inkscape:path-effect="#path-effect28797-8-1-1-8"
           id="path8144"
           d="m -45.767713,121.36218 c -1.780966,0.097 -3.484616,0.91899 -4.787852,2.1367 -1.303235,1.21771 -2.221372,2.81176 -2.786181,4.50357 -1.129618,3.38363 -0.87548,7.05177 -0.618697,10.60973 0.23251,3.22162 0.470404,6.50533 1.676785,9.50158 0.60319,1.49813 1.450246,2.91021 2.580338,4.06395 1.130092,1.15374 2.551736,2.04189 4.118297,2.43447 1.468838,0.36809 3.03816,0.29183 4.482783,-0.16209 1.444622,-0.45392 2.763916,-1.27887 3.846235,-2.33791 1.57904,-1.54507 2.643262,-3.5662 3.253449,-5.68947 0.610186,-2.12328 0.784157,-4.35155 0.752401,-6.56053 -0.03974,-2.76435 -0.400909,-5.53851 -1.265755,-8.16439 -0.864846,-2.62588 -2.245743,-5.10327 -4.172795,-7.08561 -0.933308,-0.96009 -1.997765,-1.80513 -3.198585,-2.39747 -1.200819,-0.59233 -2.543439,-0.92535 -3.880423,-0.85253 z"
           style="fill:#000000;fill-opacity:1;stroke:none" />
        <path
           sodipodi:type="inkscape:offset"
           inkscape:radius="-1.5713886"
           inkscape:original="M -45.767578 121.36133 C -47.548544 121.45833 -49.251452 122.28034 -50.554688 123.49805 C -51.857923 124.71576 -52.776988 126.31014 -53.341797 128.00195 C -54.471415 131.38558 -54.217721 135.05337 -53.960938 138.61133 C -53.728428 141.83295 -53.489584 145.11703 -52.283203 148.11328 C -51.680013 149.61141 -50.833217 151.02399 -49.703125 152.17773 C -48.573033 153.33147 -47.152499 154.21875 -45.585938 154.61133 C -44.1171 154.97942 -42.546185 154.90314 -41.101562 154.44922 C -39.65694 153.9953 -38.338178 153.17037 -37.255859 152.11133 C -35.676819 150.56626 -34.61214 148.54515 -34.001953 146.42188 C -33.391767 144.2986 -33.218244 142.07031 -33.25 139.86133 C -33.28974 137.09698 -33.650779 134.32315 -34.515625 131.69727 C -35.380471 129.07139 -36.762401 126.59367 -38.689453 124.61133 C -39.622761 123.65124 -40.685899 122.80718 -41.886719 122.21484 C -43.087538 121.62251 -44.430594 121.28851 -45.767578 121.36133 z "
           style="opacity:1;fill:#ffffff;fill-opacity:1;stroke:none"
           id="path5135"
           d="m -45.681641,122.92969 c -1.353904,0.0737 -2.73873,0.72444 -3.800781,1.71679 -1.072559,1.00218 -1.872569,2.3661 -2.36914,3.85352 -0.999228,2.99306 -0.79952,6.44331 -0.542969,9.99805 0.232467,3.22103 0.483722,6.33542 1.568359,9.02929 0.540701,1.34293 1.290076,2.57476 2.246094,3.55078 0.95128,0.97119 2.134659,1.69845 3.376953,2.00977 1.162928,0.29143 2.449005,0.23268 3.630859,-0.13867 1.186114,-0.37269 2.298988,-1.06287 3.216797,-1.96094 1.341794,-1.31293 2.294469,-3.08866 2.84375,-5 0.551422,-1.91879 0.721762,-3.99199 0.691407,-6.10351 -0.03799,-2.64268 -0.384863,-5.25832 -1.1875,-7.69532 -0.801135,-2.43243 -2.075984,-4.7001 -3.808594,-6.48242 -0.838433,-0.86249 -1.765943,-1.58891 -2.765625,-2.08203 -0.994107,-0.49036 -2.080234,-0.75083 -3.09961,-0.69531 z"
           transform="translate(160,-57.362183)" />
        <path
           inkscape:connector-curvature="0"
           transform="translate(160,-57.362183)"
           style="fill:#000000;fill-opacity:1;stroke:none"
           d="m -14.250155,121.36218 c -2.780425,1.91023 -5.110569,4.57487 -6.25,7.75 -1.436029,4.00163 -0.885838,8.48071 0.5,12.5 1.419488,4.11688 3.793788,8.04098 7.37932,10.51234 1.792766,1.23567 3.8680911,2.08301 6.0304019,2.33859 2.1623107,0.25558 4.4092737,-0.0949 6.3402781,-1.10093 2.3531157,-1.22596 4.1478163,-3.37278 5.2621723,-5.78076 1.1143559,-2.40798 1.5887962,-5.0701 1.7378277,-7.71924 0.1898917,-3.37546 -0.1404691,-6.80646 -1.25,-10 -1.2052656,-3.46909 -3.3900513,-6.67055 -6.47275377,-8.6666 -1.54135123,-0.99803 -3.29194743,-1.68356 -5.11088323,-1.93515 -1.8189358,-0.25158 -3.704766,-0.0633 -5.416363,0.60175 -0.975471,0.37901 -1.887438,0.9074 -2.75,1.5 z"
           id="path8146" />
        <path
           sodipodi:type="inkscape:offset"
           inkscape:radius="-1.5132151"
           inkscape:original="M -8.8320312 119.2168 C -9.7448054 119.31555 -10.644201 119.5288 -11.5 119.86133 C -12.475471 120.24034 -13.387438 120.76873 -14.25 121.36133 C -17.030425 123.27156 -19.360569 125.9362 -20.5 129.11133 C -21.936029 133.11296 -21.385838 137.59204 -20 141.61133 C -18.580512 145.72821 -16.206626 149.65364 -12.621094 152.125 C -10.828328 153.36067 -8.7521546 154.20731 -6.5898438 154.46289 C -4.4275331 154.71847 -2.1810044 154.36736 -0.25 153.36133 C 2.1031157 152.13537 3.8973627 149.99001 5.0117188 147.58203 C 6.1260746 145.17405 6.6009685 142.51047 6.75 139.86133 C 6.9398917 136.48587 6.6095309 133.05487 5.5 129.86133 C 4.2947344 126.39224 2.1100462 123.19136 -0.97265625 121.19531 C -2.5140075 120.19728 -4.2650486 119.51136 -6.0839844 119.25977 C -6.9934523 119.13398 -7.9192571 119.11804 -8.8320312 119.2168 z "
           style="opacity:1;fill:#ffffff;fill-opacity:1;stroke:none"
           id="path5125"
           d="m -8.6699219,120.7207 c -0.7868449,0.0851 -1.5554911,0.26878 -2.2812501,0.55078 -0.829695,0.32237 -1.643121,0.78946 -2.441406,1.3379 -2.564313,1.76175 -4.674785,4.20253 -5.683594,7.01367 -1.273269,3.54808 -0.807282,7.68568 0.50586,11.49414 1.346642,3.90561 3.582578,7.53816 6.808593,9.76172 1.609216,1.10915 3.4620262,1.85892 5.3496096,2.08203 1.8805451,0.22227 3.8304476,-0.0909 5.46289065,-0.94141 1.99111135,-1.03736 3.58967285,-2.91524 4.58789065,-5.07226 1.004547,-2.1707 1.4575084,-4.64594 1.5996093,-7.17188 0.1811337,-3.21978 -0.1381467,-6.45385 -1.1679687,-9.41797 -1.1139252,-3.20618 -3.1282639,-6.12039 -5.8652344,-7.89258 -1.3679784,-0.88577 -2.9163554,-1.48852 -4.4960937,-1.70703 -0.7885974,-0.10907 -1.5922375,-0.12222 -2.3789063,-0.0371 z"
           transform="translate(160,-57.362183)" />
        <path
           style="fill:#ffffff;fill-opacity:1;stroke:none"
           d="m 205.10134,167.08733 c 6.0848,4.89463 9.94558,12.28597 11.14096,20.00305 0.93229,6.01859 0.32635,12.19496 -1.03069,18.13223 -1.35704,5.93726 -3.45221,11.67615 -5.53172,17.40051 -0.82924,2.2827 -1.66218,4.5871 -1.99168,6.9933 -0.3295,2.40621 -0.12085,4.95426 1.03953,7.08777 1.33023,2.44578 3.81296,4.13021 6.48184,4.92292 2.63495,0.78263 5.48105,0.76618 8.14819,0.10153 2.66715,-0.66466 5.15737,-1.96341 7.32837,-3.64929 5.51556,-4.28306 8.84358,-10.94871 10.13189,-17.81211 1.28831,-6.86339 0.69636,-13.95038 -0.5015,-20.83014 -1.63342,-9.38136 -4.38172,-18.55105 -7.87991,-27.40773 -2.57314,-6.51466 -5.58412,-12.92007 -9.79135,-18.52016 -4.11706,-5.48007 -9.30685,-10.09303 -13.34018,-15.63502 -2.80262,-3.85094 -5.0477,-8.14946 -8.40636,-11.52641 -1.67933,-1.68847 -3.64041,-3.13229 -5.86023,-3.99455 -2.21982,-0.86226 -4.71266,-1.11623 -7.00502,-0.47108 -3.02144,0.85034 -5.48977,3.23113 -6.80291,6.08208 -1.31313,2.85095 -1.54284,6.12313 -1.03195,9.2201 0.6591,3.99536 2.48628,7.70258 4.54639,11.18873 2.32668,3.93724 5.022,7.72707 8.53596,10.65407 3.66715,3.05459 8.10154,5.06875 11.82037,8.0602 z"
           id="path8150"
           inkscape:connector-curvature="0" />
        <path
           transform="translate(-250.00015,-56.362183)"
           d="m 440.28125,283.5625 c -1.76892,0.0979 -3.7067,0.59782 -5.29102,1.96094 -1.71704,1.47732 -2.49478,3.51526 -2.78125,5.41601 -0.2818,1.86723 -0.12049,3.58543 -0.0117,5.10352 0.64874,9.05358 0.65338,18.14055 -0.3125,27.10937 -0.53105,4.93112 -1.35961,9.86346 -2.23829,14.82227 -1.0576,5.96858 -2.22321,12.11412 -2.21484,18.47266 0.005,3.61513 0.40417,7.62553 2.57422,11.11523 2.16361,3.47938 5.60598,5.63688 8.98047,7.10742 4.79906,2.09134 10.20121,3.1294 15.54101,2.32813 4.38977,-0.65871 8.47238,-2.52259 11.97852,-5.05469 3.46752,-2.50423 6.26034,-5.52711 9.07226,-8.21484 3.28732,-3.14213 6.77829,-6.0365 10.53126,-8.48438 5.60227,-3.65409 11.93591,-6.39728 18.21093,-9.5957 3.68664,-1.8791 7.62665,-4.0488 10.59961,-7.57813 1.3494,-1.60191 2.43107,-3.41932 3.19336,-5.37109 a 2.2632137,2.2632137 0 0 0 0.0957,-0.30664 c 0.51474,-2.18854 0.18732,-4.49419 -0.91406,-6.45313 -0.80368,-1.42944 -1.9126,-2.50678 -3.01367,-3.3789 -1.09598,-0.86809 -2.18701,-1.54291 -3.14453,-2.19727 -2.03857,-1.39312 -3.99307,-3.01527 -5.98633,-4.6914 -2.00017,-1.68196 -3.90166,-3.3122 -5.41797,-5.12696 -1.50835,-1.80524 -2.64201,-3.83501 -3.04101,-5.91015 -0.24287,-1.26312 -0.23351,-2.78709 -0.38086,-4.52344 -0.16657,-1.96285 -0.55914,-3.96304 -1.31836,-5.88867 -0.51214,-1.29893 -1.22785,-2.66083 -2.3711,-3.82422 -1.50381,-1.53034 -3.35735,-2.3315 -5.05664,-2.86719 -1.65422,-0.52149 -3.40516,-0.86045 -5.21093,-0.9043 -4.39197,-0.10655 -8.16146,1.38376 -11.54297,1.7793 -3.13911,0.36719 -6.41755,-0.0228 -9.61133,-0.88672 -1.91582,-0.51822 -3.91147,-1.24584 -6.08789,-1.81836 -3.44793,-0.90698 -6.87215,-1.28663 -10.13672,-1.76367 -1.38531,-0.20243 -2.95199,-0.47137 -4.69336,-0.375 z"
           id="path8152"
           style="fill:#ffffff;fill-opacity:1;stroke:#000000;stroke-width:3.5;stroke-miterlimit:4;stroke-dasharray:none;stroke-opacity:1"
           inkscape:original="M 440.40625 285.82227 C 438.98771 285.90079 437.54376 286.31168 436.4668 287.23828 C 435.30086 288.24144 434.67649 289.75642 434.44727 291.27734 C 434.21773 292.79826 434.34515 294.3467 434.45508 295.88086 C 435.11148 305.04135 435.11814 314.26335 434.13477 323.39453 C 433.59413 328.41472 432.75597 333.39737 431.875 338.36914 C 430.81476 344.35259 429.68731 350.3667 429.69531 356.44336 C 429.6999 359.87898 430.11348 363.44965 431.92773 366.36719 C 433.73505 369.2736 436.75308 371.22842 439.89062 372.5957 C 444.36827 374.54697 449.36115 375.48458 454.19141 374.75977 C 458.16287 374.16383 461.92597 372.4606 465.18164 370.10938 C 468.40829 367.77911 471.13648 364.84192 474.01367 362.0918 C 477.37793 358.87613 480.97503 355.8921 484.87305 353.34961 C 490.691 349.55484 497.10437 346.78718 503.29297 343.63281 C 506.92145 341.78335 510.56565 339.7281 513.18945 336.61328 C 514.37842 335.20181 515.33446 333.59405 516.00586 331.875 C 516.38656 330.25635 516.13719 328.49827 515.32227 327.04883 C 514.7215 325.98028 513.83789 325.09511 512.87695 324.33398 C 511.91601 323.57285 510.87147 322.92407 509.85938 322.23242 C 507.70289 320.75872 505.69244 319.08533 503.69336 317.4043 C 501.68677 315.71695 499.67711 314.00798 497.99609 311.99609 C 496.31507 309.9842 494.96378 307.63708 494.46875 305.0625 C 494.16785 303.49758 494.18944 301.89061 494.05469 300.30273 C 493.90258 298.51028 493.54654 296.72625 492.88672 295.05273 C 492.44379 293.92933 491.8542 292.84568 491.00781 291.98438 C 489.89414 290.85107 488.40016 290.16717 486.88477 289.68945 C 485.39978 289.22131 483.85541 288.92647 482.29883 288.88867 C 478.50507 288.79663 474.84339 290.21341 471.07422 290.6543 C 467.57322 291.06382 464.01 290.62351 460.60742 289.70312 C 458.56837 289.15156 456.578 288.428 454.53516 287.89062 C 451.29758 287.03897 447.95902 286.65983 444.64648 286.17578 C 443.2407 285.97036 441.82479 285.74377 440.40625 285.82227 z "
           inkscape:radius="2.2629874"
           sodipodi:type="inkscape:offset" />
        <path
           style="fill:#000000;fill-opacity:1;stroke:none"
           d="m 290.78125,216.01843 c 0.48482,0.46774 0.98091,0.94261 1.5,1.375 3.66715,3.05459 5.61879,6.48526 9.33763,9.47671 6.0848,4.89463 12.25895,13.34358 13.45434,21.06066 0.93229,6.01859 -0.30093,9.28947 -1.80468,16.3878 -1.50374,7.09832 -5.76944,17.14832 -8.07376,23.99211 -0.9189,2.7291 1.86121,1.60306 1.49609,4.4798 -0.17944,1.41384 -0.19766,2.84238 -0.0346,4.25917 0.0227,-0.27104 0.0388,-0.5525 0.0693,-0.82194 0.44281,-3.92274 1.62331,-7.69479 2.90878,-11.39514 2.47416,-7.12214 5.31434,-14.10109 7.27196,-21.40792 1.95763,-7.30683 1.74028,-12.56443 0.71875,-18.84375 -1.28459,-7.89637 -5.79703,-15.18702 -12.1875,-20 -4.51852,-3.40313 -9.84688,-5.58465 -14.65625,-8.5625 z"
           id="path8154"
           clip-path="url(#clipPath1491-6-1)"
           inkscape:connector-curvature="0"
           transform="matrix(1.0180731,0,0,1,-105.25547,-58.362183)"
           sodipodi:nodetypes="cssssssccsssscc" />
        <path
           sodipodi:nodetypes="aaaa"
           inkscape:connector-curvature="0"
           id="path8156"
           d="m 351.9604,200.85653 c -1.45162,0.38883 -1.23008,3.99417 -0.29604,5.49789 0.78886,1.26999 3.07235,2.27109 3.75853,1.00504 1.11412,-2.05562 -1.47192,-7.03613 -3.46249,-6.50293 z"
           style="opacity:0.25;fill:#7c7c7c;fill-opacity:1;stroke:none;filter:url(#filter15211-9-7)"
           transform="matrix(-0.06991927,0.95700905,-0.56450744,-0.11853409,236.56758,-180.37928)" />
        <path
           style="fill:#000000;fill-opacity:1;stroke:none"
           inkscape:path-effect="#path-effect5849-9"
           inkscape:original-d="m 235.18734,228.96557 c -2.36571,-3.81321 -7.59294,-4.9003 -11.805,-6.41698 -2.08672,-0.75138 -4.32322,-1.04333 -6.52782,-1.27734 -2.27612,-0.2416 -4.71593,-0.91505 -6.8653,-0.1253 -3.64566,1.33955 -7.24986,3.80684 -8.75671,7.70871 -1.13743,2.94527 -1.80122,7.05909 -1.65394,10.40316 0.13075,2.96891 0.9633,5.07273 2.60877,7.33912 1.08803,1.49859 3.40096,2.67896 5.43398,3.22092 3.49923,0.93284 7.37483,0.82779 10.86038,-0.1553 5.98587,-2.2615 11.09272,-5.76885 14.33034,-10.77903 1.07459,-1.67639 2.15539,-3.45031 2.5532,-5.4034 0.30053,-1.4755 0.61519,-3.23621 -0.1779,-4.51456 z"
           id="path5847"
           d="m 235.18734,228.96557 c -0.40516,-1.10369 -1.11845,-2.08156 -1.9907,-2.86987 -0.87226,-0.78832 -1.90049,-1.39229 -2.98278,-1.85155 -2.16459,-0.91852 -4.52053,-1.26149 -6.83152,-1.69556 -2.17919,-0.40931 -4.34179,-0.90631 -6.52782,-1.27734 -2.27136,-0.38551 -4.6179,-0.63213 -6.8653,-0.1253 -1.96583,0.44333 -3.7845,1.45879 -5.27172,2.81864 -1.48723,1.35984 -2.64911,3.0564 -3.48499,4.89007 -1.47218,3.22952 -1.93451,6.86503 -1.65394,10.40316 0.20882,2.63325 0.87532,5.34594 2.60877,7.33912 1.40065,1.61052 3.38733,2.61526 5.43398,3.22092 3.52502,1.04316 7.36663,0.98822 10.86038,-0.1553 5.76689,-1.93113 10.87568,-5.77387 14.33034,-10.77903 1.13861,-1.64963 2.11217,-3.44809 2.5532,-5.4034 0.33597,-1.48955 0.34831,-3.08112 -0.1779,-4.51456 z"
           inkscape:connector-curvature="0"
           sodipodi:nodetypes="aaaasssaccaa" />
        <path
           transform="translate(160,-57.362183)"
           sodipodi:nodetypes="aaaasssaccaa"
           inkscape:connector-curvature="0"
           d="m 76.187345,284.32775 c -0.405158,-1.10369 -1.118445,-2.08156 -1.990705,-2.86987 -0.872259,-0.78832 -1.900482,-1.39229 -2.982775,-1.85155 -2.164587,-0.91852 -4.520525,-1.26149 -6.83152,-1.69556 -2.179187,-0.40931 -4.34179,-0.90631 -6.52782,-1.27734 -2.27136,-0.38551 -4.617897,-0.63213 -6.8653,-0.1253 -1.965827,0.44333 -3.784499,1.45879 -5.271724,2.81864 -1.487225,1.35984 -2.649109,3.0564 -3.484986,4.89007 -1.472176,3.22952 -1.934512,6.86503 -1.65394,10.40316 0.208815,2.63325 0.875323,5.34594 2.60877,7.33912 1.400654,1.61052 3.387329,2.61526 5.43398,3.22092 3.525017,1.04316 7.366632,0.98822 10.86038,-0.1553 5.766894,-1.93113 10.875681,-5.77387 14.33034,-10.77903 1.138609,-1.64963 2.112174,-3.44809 2.5532,-5.4034 0.335973,-1.48955 0.348308,-3.08112 -0.1779,-4.51456 z"
           id="path8158"
           inkscape:original-d="m 76.187345,284.32775 c -2.36571,-3.81321 -7.59294,-4.9003 -11.805,-6.41698 -2.08672,-0.75138 -4.32322,-1.04333 -6.52782,-1.27734 -2.27612,-0.2416 -4.71593,-0.91505 -6.8653,-0.1253 -3.64566,1.33955 -7.24986,3.80684 -8.75671,7.70871 -1.13743,2.94527 -1.80122,7.05909 -1.65394,10.40316 0.13075,2.96891 0.9633,5.07273 2.60877,7.33912 1.08803,1.49859 3.40096,2.67896 5.43398,3.22092 3.49923,0.93284 7.37483,0.82779 10.86038,-0.1553 5.98587,-2.2615 11.09272,-5.76885 14.33034,-10.77903 1.07459,-1.67639 2.15539,-3.45031 2.5532,-5.4034 0.30053,-1.4755 0.61519,-3.23621 -0.1779,-4.51456 z"
           inkscape:path-effect="#path-effect29716-6-1-2-9"
           style="fill:#ffffff;fill-opacity:1;stroke:none" />
        <path
           inkscape:original-d="m 360.59375,276.64343 c -3.5855,0.62755 -6.71554,2.98212 -8.4375,5.84375 -1.79276,2.26012 -3.14375,2.34147 -0.39724,2.11776 0.74786,0.0512 1.41372,-0.4395 2.01504,-1.06859 2.37223,-2.48325 3.04137,-2.21829 4.38389,-2.75653 1.34251,-0.53824 4.28845,-1.34136 6.3217,-1.42382 4.59613,-0.18639 2.27416,-0.44623 4.53315,-0.30392 2.259,0.1427 8.83572,0.23606 8.83572,0.23606 l -6.17678,-1.98302 c -6.19502,-1.98888 -6.98171,-0.88338 -11.07798,-0.66169 z"
           inkscape:path-effect="#path-effect2283-5-9"
           sodipodi:nodetypes="cccsssscsc"
           style="fill:#000000;fill-opacity:1;stroke:none"
           d="m 360.59375,276.64343 -8.4375,5.84375 -0.39724,2.11776 c 0.69303,-0.31382 1.36646,-0.67095 2.01504,-1.06859 1.47295,-0.90306 2.82235,-2.01715 4.38389,-2.75653 1.96256,-0.92926 4.15984,-1.22003 6.3217,-1.42382 1.50796,-0.14215 3.01954,-0.24782 4.53315,-0.30392 2.94627,-0.10919 5.89949,-0.0303 8.83572,0.23606 l -6.17678,-1.98302 c -1.79521,-0.57634 -3.61725,-1.11797 -5.49541,-1.28377 -1.87816,-0.16579 -3.79157,0.0328 -5.58257,0.62208 z"
           id="path8160"
           inkscape:connector-curvature="0"
           clip-path="url(#clipPath14822-2-4-5-3)"
           transform="translate(-150.00015,-58.362179)" />
        <path
           transform="translate(160,-57.362183)"
           style="fill:#000000;fill-opacity:1;stroke:none"
           d="m -72.760248,204.57722 c -1.77035,4.14378 -4.684397,7.79208 -8.33445,10.43446 -0.825369,0.59751 -1.687671,1.14491 -2.484617,1.77984 -0.796946,0.63492 -1.534666,1.36741 -2.036809,2.25404 -0.09167,0.16187 -0.175145,0.32824 -0.256731,0.49542 -2.122231,4.34875 -2.953903,9.19136 -4.26498,13.84932 -1.488144,5.28704 -3.61013,10.37679 -5.97071,15.33612 -2.179257,4.5784 -4.564615,9.05518 -6.938915,13.53553 -1.72686,3.25861 -3.47217,6.58801 -4.10782,10.22071 -1.00763,5.75853 0.8996,11.6803 3.77151,16.77227 5.516989,9.78177 14.486262,17.23949 24.241765,22.80279 3.320761,1.89374 6.750109,3.59296 10.235787,5.1626 1.961989,0.8835 3.998466,1.73952 6.148494,1.8253 1.075014,0.0429 2.167059,-0.11392 3.154613,-0.54081 0.987553,-0.42689 1.866246,-1.13309 2.423131,-2.05362 0.589855,-0.97503 0.797575,-2.15735 0.672191,-3.28999 -0.125384,-1.13265 -0.571006,-2.21627 -1.196953,-3.16853 -0.828142,-1.25986 -1.960242,-2.29264 -3.162541,-3.20234 -1.202299,-0.9097 -2.484252,-1.7089 -3.704394,-2.59452 -6.863139,-4.98151 -11.438724,-12.4105 -16.466308,-19.23996 -1.601898,-2.17601 -3.268902,-4.31305 -4.646307,-6.63767 -1.486741,-2.50915 -2.625361,-5.22488 -3.364936,-8.04609 -1.841704,-7.02545 -1.150301,-14.58317 1.282803,-21.42632 1.060578,-2.9829 2.439224,-5.84061 3.694927,-8.74676 2.505874,-5.7995 4.523515,-11.79567 6.533537,-17.78511 0.584782,-1.74253 1.169255,-3.4854 1.710199,-5.24203 1.262855,-4.10093 2.287653,-8.27515 3.067514,-12.49465 z"
           id="path8162"
           inkscape:connector-curvature="0"
           inkscape:path-effect="#path-effect14972-2-2-6-4-5"
           inkscape:original-d="m -72.760248,204.57722 c 0,0 -5.54376,6.53277 -8.33445,10.43446 -2.7907,3.9017 -1.670656,-0.0687 -4.521426,4.03388 -2.85076,4.10259 1.827569,-4.00339 -0.256731,0.49542 -2.08429,4.49881 -2.32047,9.0356 -4.26498,13.84932 -1.94451,4.81371 -3.70129,10.64183 -5.97071,15.33612 -2.26943,4.69429 -5.370935,9.68473 -6.938915,13.53553 -1.56799,3.8508 -3.81119,5.72384 -4.10782,10.22071 -0.29663,4.49686 -0.57747,8.31749 3.77151,16.77227 4.348985,8.45478 19.331164,19.21965 24.241765,22.80279 4.910594,3.58314 6.582981,4.3748 10.235787,5.1626 3.652805,0.7878 9.712741,1.81539 11.726238,-0.76913 2.013492,-2.58451 1.592528,-3.61179 -0.524762,-6.45852 -2.117296,-2.84672 -3.381933,-3.2105 -6.866935,-5.79686 -3.484995,-2.58636 -12.421148,-14.87266 -16.466308,-19.23996 -4.04516,-4.36729 -6.223427,-3.76519 -4.646307,-6.63767 1.57712,-2.87249 -2.914486,-4.36212 -3.364936,-8.04609 -0.76361,-6.24511 0.766823,-18.00335 1.282803,-21.42632 0.51598,-3.42296 1.772996,-3.48028 3.694927,-8.74676 2.835215,-7.76906 5.323194,-15.31193 6.533537,-17.78511 2.521611,-5.15259 0.852279,-0.6444 1.710199,-5.24203 0.85792,-4.59763 3.067514,-12.49465 3.067514,-12.49465 z"
           sodipodi:nodetypes="czzzzzzzzzzzzzzzszsszc" />
        <path
           style="fill:#ffffff;fill-opacity:1;stroke:none"
           d="m 98.498005,126.0625 c -2.783562,3.47383 -5.561716,6.95199 -8.33445,10.43446 -2.856916,3.58821 -5.708106,7.18103 -8.58729,10.75139 -3.532685,4.38074 -7.149144,8.79422 -9.44912,13.93045 -1.976249,4.41329 -2.910774,9.20725 -4.26498,13.84932 -1.5379,5.27176 -3.626088,10.37031 -5.97071,15.33612 -2.164965,4.58531 -4.549822,9.06291 -6.938915,13.53553 -1.738201,3.25409 -3.505138,6.58104 -4.10782,10.22071 -0.47628,2.87632 -0.198502,5.84423 0.533747,8.66626 0.732249,2.82202 1.909655,5.5106 3.237763,8.10601 5.66725,11.07504 14.170036,20.62168 24.241765,27.92472 4.570626,3.31418 9.466691,6.18109 14.60245,8.52595 2.782469,1.27041 5.713553,2.40436 8.771865,2.45744 1.52915,0.0265 3.0741,-0.22544 4.47434,-0.84055 1.40023,-0.6151 2.65068,-1.60373 3.48254,-2.88709 1.02278,-1.5779 1.36992,-3.53829 1.16461,-5.40743 -0.2053,-1.86914 -0.93484,-3.65294 -1.91324,-5.25873 -2.38997,-3.92252 -6.1652,-6.76055 -9.796425,-9.57343 -7.840551,-6.07358 -15.424654,-12.48039 -22.68212,-19.23996 -2.049117,-1.90854 -4.098407,-3.87759 -5.53019,-6.28412 -1.394295,-2.34352 -2.147602,-5.01376 -2.65783,-7.69253 -1.399719,-7.34873 -1.040921,-15.08286 1.45958,-22.13343 0.978222,-2.75826 2.271183,-5.39201 3.51815,-8.03965 2.161326,-4.58906 4.207248,-9.26564 7.04933,-13.46723 3.537978,-5.23037 8.267489,-9.66049 11.15147,-15.27803 2.434229,-4.74149 3.419942,-10.07236 4.36185,-15.31831 0.736933,-4.10434 1.464812,-8.21031 2.18363,-12.31787 z"
           id="path8164"
           inkscape:connector-curvature="0"
           inkscape:path-effect="#path-effect5147-6"
           inkscape:original-d="m 98.498005,126.0625 c 0,0 -5.54376,6.53277 -8.33445,10.43446 -2.7907,3.9017 -5.73652,6.64881 -8.58729,10.75139 -2.85076,4.10259 -7.36482,9.43164 -9.44912,13.93045 -2.08429,4.49881 -2.32047,9.0356 -4.26498,13.84932 -1.94451,4.81371 -3.70129,10.64183 -5.97071,15.33612 -2.269435,4.69429 -5.370935,9.68473 -6.938915,13.53553 -1.56799,3.8508 -3.81119,5.72384 -4.10782,10.22071 -0.29663,4.49686 -0.57747,8.31749 3.77151,16.77227 4.34898,8.45478 17.236265,22.00721 24.241765,27.92472 7.00549,5.9175 9.39133,7.22492 14.60245,8.52595 5.21112,1.30104 13.856275,2.9981 16.728745,-1.2702 2.87246,-4.26829 2.27191,-5.96483 -0.74863,-10.66616 -3.02055,-4.70132 -4.82469,-5.30209 -9.796425,-9.57343 -4.97172,-4.27133 -18.63696,-14.87266 -22.68212,-19.23996 -4.04516,-4.36729 -7.10731,-3.41164 -5.53019,-6.28412 1.57712,-2.87249 -2.20738,-4.00856 -2.65783,-7.69253 -0.76361,-6.24511 0.9436,-18.71046 1.45958,-22.13343 0.51598,-3.42296 1.22371,-2.92446 3.51815,-8.03965 2.29444,-5.11519 4.12424,-8.62435 7.04933,-13.46723 2.92509,-4.84289 8.62493,-10.12787 11.15147,-15.27803 2.52654,-5.15017 3.50393,-10.72068 4.36185,-15.31831 0.85792,-4.59763 2.18363,-12.31787 2.18363,-12.31787 z"
           sodipodi:nodetypes="czzzzzzzzzzzzzzzszzzzzc" />
        <path
           inkscape:connector-curvature="0"
           id="path5168"
           d="m 59.78711,220.53821 c -1.19609,0.10234 -2.40119,0.37604 -3.5625,0.85742 -2.24956,0.93251 -3.9723,2.46467 -5.30664,4.07422 -1.32374,1.59679 -2.26864,3.2576 -3.10742,4.75977 -0.83761,1.50007 -1.57887,2.85679 -2.38086,3.95898 -0.79541,1.09312 -1.66904,1.94692 -2.54102,2.44531 -0.91648,0.52384 -2.17464,0.84709 -3.60742,0.96485 -1.44723,0.11891 -3.09443,0.0415 -4.93359,0 -1.84119,-0.0415 -3.89674,-0.0461 -6.08399,0.41015 -2.21015,0.46105 -4.52983,1.40271 -6.42578,3.22852 -2.05853,1.98238 -3.10319,4.51024 -3.57227,6.92773 -0.46292,2.38576 -0.3804,4.63358 -0.24218,6.65039 0.30888,4.50705 0.99929,8.73658 1.20117,12.76368 0.20119,4.01318 -0.10259,7.89873 -1.41992,11.19336 -0.8066,2.01729 -2.28314,4.28794 -3.36133,7.26562 -0.5413,1.49491 -0.95902,3.17092 -0.98438,5.00391 -0.0257,1.85555 0.35935,3.82095 1.41797,5.62304 1.36618,2.32564 3.44981,3.7392 5.44532,4.64454 1.96235,0.89027 3.81895,1.31082 5.38085,1.74023 3.51461,0.96625 7.09598,2.26095 10.88868,3.40234 12.34156,3.71413 24.806087,5.16946 35.806638,9.55078 5.408419,2.15408 11.351244,5.52658 18.558593,5.79688 4.562598,0.17112 9.088719,-1.03506 12.970699,-3.375 3.87828,-2.33771 7.02305,-5.74414 9.0879,-9.74023 2.94038,-5.69054 3.57432,-12.36819 1.89453,-18.50586 -1.28454,-4.69348 -3.76814,-8.72398 -6.40821,-12.28711 -2.6348,-3.55605 -5.44358,-6.70092 -7.80468,-9.91211 -3.617199,-4.91952 -6.609551,-10.53262 -9.976567,-16.17188 -4.151372,-6.95294 -8.709972,-13.60532 -13.419922,-20.0918 -2.055862,-2.8313 -4.384079,-6.04076 -7.894531,-8.42578 -1.76406,-1.1985 -3.807272,-2.15363 -6.087891,-2.57422 -1.150787,-0.21222 -2.337834,-0.27984 -3.531249,-0.17773 z"
           style="fill:#000000;fill-opacity:1;stroke:none" />
        <path
           style="fill:#ffffff;fill-opacity:1;stroke:none"
           d="m 57.57688,224.65692 c 1.59929,-0.66295 3.3982,-0.78361 5.100737,-0.46963 1.702538,0.31398 3.311416,1.04948 4.743426,2.02239 2.86402,1.94583 4.988202,4.77774 7.022627,7.57952 4.671892,6.43406 9.168684,13.00227 13.24488,19.8293 3.306352,5.53766 6.343521,11.25685 10.16415,16.45304 2.49398,3.3919 5.3066,6.53947 7.813,9.92221 2.50639,3.38273 4.72794,7.05586 5.83931,11.11662 1.44411,5.27653 0.88463,11.09291 -1.62666,15.95302 -1.76663,3.41896 -4.47646,6.35228 -7.77242,8.33898 -3.295948,1.9867 -7.170641,3.01444 -11.01635,2.87021 -6.114131,-0.2293 -11.699442,-3.28515 -17.38362,-5.54906 -11.58097,-4.6125 -24.15978,-6.0594 -36.09666,-9.65174 -3.66859,-1.10404 -7.27582,-2.4107 -10.96988,-3.42629 -1.64125,-0.45122 -3.30866,-0.8482 -4.85875,-1.55144 -1.55008,-0.70325 -2.99955,-1.7491 -3.86171,-3.21675 -0.66639,-1.13439 -0.94839,-2.47002 -0.93019,-3.78554 0.0182,-1.31552 0.32589,-2.61453 0.77382,-3.85158 0.89585,-2.47409 2.34326,-4.71374 3.32016,-7.15696 1.59511,-3.98935 1.88169,-8.38839 1.66657,-12.67942 -0.21511,-4.29103 -0.91078,-8.54478 -1.20454,-12.83115 -0.13118,-1.91406 -0.18066,-3.85256 0.18479,-5.73598 0.36545,-1.88343 1.17577,-3.72459 2.55771,-5.05541 1.27406,-1.22693 2.96492,-1.95531 4.69643,-2.31651 1.73151,-0.3612 3.51533,-0.37747 5.28367,-0.33762 1.76833,0.0399 3.54067,0.13425 5.30351,-0.0106 1.76284,-0.14488 3.53347,-0.54055 5.06911,-1.41828 1.45996,-0.83447 2.65433,-2.0745 3.64374,-3.43424 0.9894,-1.35974 1.78909,-2.84573 2.60891,-4.31396 0.81983,-1.46823 1.66834,-2.93151 2.74157,-4.22611 1.07324,-1.2946 2.38923,-2.42304 3.94266,-3.06698 z"
           id="path8166"
           inkscape:connector-curvature="0" />
        <g
           id="g8168"
           transform="matrix(0.99380008,0,0,0.99380312,-267.61929,12.309061)">
          <path
             sodipodi:nodetypes="zzzzzzz"
             inkscape:connector-curvature="0"
             d="m 422.39949,60.460381 c -1.052,0.07538 -2.07723,0.434517 -2.96974,0.996485 -0.89251,0.561969 -1.65351,1.323412 -2.25095,2.192577 -1.19489,1.738331 -1.71962,3.870714 -1.80421,5.978412 -0.0635,1.582109 0.11166,3.184856 0.63639,4.678764 0.52473,1.493908 1.40963,2.876593 2.62906,3.886588 1.24784,1.033529 2.83404,1.653881 4.45245,1.731665 1.61841,0.07779 3.25969,-0.389064 4.5895,-1.314758 1.05944,-0.737486 1.91396,-1.752528 2.52228,-2.891054 0.60832,-1.138525 0.97484,-2.398326 1.1424,-3.678255 0.29597,-2.260806 -0.0387,-4.621632 -1.08358,-6.648219 -1.04489,-2.026587 -2.81801,-3.69563 -4.95753,-4.483853 -0.92668,-0.341398 -1.92103,-0.518936 -2.90607,-0.448352 z"
             id="path8170"
             inkscape:original-d="m 422.39949,60.460381 c -2.89198,0.285463 -6.35334,5.275447 -7.0249,9.167474 -0.67155,3.892027 10e-4,5.882096 3.26545,8.565352 3.26408,2.68332 7.41136,2.167863 9.04195,0.416907 1.6306,-1.750957 5.9562,-0.976262 3.66468,-6.569309 -2.29152,-5.593111 -3.92633,-8.602585 -6.04111,-11.132072 -2.11477,-2.529425 -0.014,-0.733879 -2.90607,-0.448352 z"
             inkscape:path-effect="#path-effect9100-4-8"
             style="fill:#000000;fill-opacity:1;stroke:none" />
          <path
             sodipodi:nodetypes="aaaaaaaaa"
             inkscape:connector-curvature="0"
             id="path8172"
             d="m 423.29553,64.765792 c 0.39015,0.501621 1.11904,0.430491 1.63699,0.747589 0.50307,0.307853 1.02878,0.624573 1.40964,1.109968 0.729,0.92903 0.53053,2.857717 1.55403,3.29456 0.32126,0.13704 0.80677,-0.0666 0.96249,-0.415271 0.60909,-1.364615 -0.2414,-3.220474 -1.06223,-4.431823 -0.74516,-1.099277 -1.95848,-1.921392 -3.16874,-2.07472 -0.55962,-0.07082 -1.34157,0.0069 -1.61379,0.569543 -0.17544,0.362442 0.0407,0.890352 0.28161,1.200154 z"
             style="fill:#ffffff;fill-opacity:1;stroke:none"
             inkscape:transform-center-x="-3.0339461"
             inkscape:transform-center-y="3.4983908" />
        </g>
        <g
           id="g8174"
           transform="matrix(0.99380101,0,0,0.99380157,-267.3072,11.684146)">
          <path
             inkscape:connector-curvature="0"
             style="fill:#000000;fill-opacity:1;stroke:none"
             d="m 379.59906,67.483576 c -0.37442,2.25974 -0.38801,4.63067 0.38882,6.785467 0.51296,1.422872 1.35881,2.713779 2.38697,3.823098 0.6732,0.726341 1.43715,1.386383 2.33021,1.814416 0.89306,0.428033 1.92773,0.61015 2.88825,0.368981 0.88662,-0.222613 1.66186,-0.793502 2.23397,-1.50648 0.57211,-0.712979 0.95352,-1.56262 1.22531,-2.43542 0.80238,-2.576722 0.67343,-5.395098 -0.12318,-7.973609 -0.5804,-1.878654 -1.54164,-3.690822 -3.04552,-4.957531 -0.71752,-0.60436 -1.55738,-1.077831 -2.4701,-1.294674 -0.91272,-0.216844 -1.90052,-0.166085 -2.75461,0.222 -0.94818,0.430839 -1.68202,1.25079 -2.16249,2.174816 -0.48046,0.924026 -0.72739,1.951469 -0.89763,2.978936 z"
             id="path8176" />
          <path
             style="fill:#ffffff;fill-opacity:1;stroke:none"
             d="m 385.4539,65.587404 c 0.19263,0.525268 0.83964,0.716017 1.19472,1.139779 0.34491,0.411497 0.70677,0.837586 0.89606,1.346942 0.36232,0.974941 -0.35747,2.419805 0.39824,3.108339 0.23721,0.216158 0.71263,0.220812 0.94583,0 0.91229,-0.863812 0.70963,-2.606277 0.34847,-3.833601 -0.32776,-1.113804 -1.13697,-2.168743 -2.13398,-2.698225 -0.46103,-0.244835 -1.15553,-0.448352 -1.54979,-0.09937 -0.25406,0.224901 -0.21848,0.711869 -0.0996,1.036136 z"
             id="path8178"
             inkscape:connector-curvature="0"
             sodipodi:nodetypes="aaaaaaaaa" />
        </g>
        <g
           transform="translate(-273.42856,-0.48401738)"
           id="g8180">
          <path
             inkscape:connector-curvature="0"
             id="path8182"
             d="m 429.65274,55.82762 c -0.55885,0.02767 -1.29873,-0.06428 -1.58849,0.542689 1.81841,0.391813 3.55738,1.140093 5.10959,2.170944 3.00333,1.994472 5.2839,4.910678 6.88338,8.15417 0.37341,-0.41351 0.0675,-1.75234 -0.25153,-2.541626 -1.16421,-2.880106 -2.67661,-5.242869 -5.78467,-7.306961 -1.493,-0.991481 -2.87495,-1.093931 -4.36828,-1.019216 z"
             style="fill:#000000;fill-opacity:1;stroke:none"
             sodipodi:nodetypes="acscasa" />
          <path
             inkscape:connector-curvature="0"
             id="path8184"
             d="m 388.29529,58.113718 c -0.18399,-0.0063 -0.36278,0.01195 -0.54691,0.02075 -0.11833,0.0063 -0.23905,0.01006 -0.35668,0.02075 1.07523,0.09396 2.14389,0.371813 3.11501,0.791424 1.32294,0.571555 2.58657,1.385369 3.71617,2.311757 2.09294,1.716429 3.64889,3.834796 4.70215,6.081399 -0.26023,-1.730768 -0.7435,-3.405437 -1.72412,-4.873446 -0.31971,-0.478602 -0.82422,-0.848277 -1.30615,-1.207953 -1.18759,-0.886452 -2.54328,-1.740202 -3.86622,-2.311757 -1.15757,-0.500103 -2.44528,-0.810849 -3.73325,-0.833049 z"
             style="fill:#000000;fill-opacity:1;stroke:none"
             sodipodi:nodetypes="cccsscssscc" />
        </g>
        <g
           id="g8186"
           transform="translate(-273.04898,-0.5122002)">
          <path
             inkscape:original-d="m 386.15278,93.248563 c -1.73418,1.663726 -3.49238,2.809542 -5.16806,4.714456 -0.67442,0.766645 -1.68833,1.87806 -2.22841,3.118651 -0.51374,1.18016 -0.57335,2.48565 -0.47175,3.40009 0.13845,1.24601 -0.4333,1.87913 0.21211,2.25768 0.95214,0.55847 0.89636,-0.0598 1.83554,0.54143 3.67881,2.35439 5.07785,3.55197 7.60189,4.30679 3.85608,1.15318 14.8787,1.88599 18.97401,1.63323 4.0953,-0.2527 3.57573,-1.04626 7.47175,-2.0563 4.62142,-1.19808 6.7723,-4.06548 10.18131,-6.05951 1.53514,-0.8979 2.65419,-2.46597 4.15829,-3.43657 0.9631,-0.62143 1.80168,-1.798941 2.91158,-2.166541 0.84217,-0.278986 1.94727,0.228421 2.76534,-0.04968 1.54428,-0.525268 3.47224,0.991481 3.96019,-0.564952 0.30654,-0.977834 -1.22758,-3.579772 -2.04718,-4.2995 -1.29668,-1.138647 -2.19251,-0.308859 -3.62799,-1.062297 -3.31997,-1.742591 -6.71921,-1.435934 -10.90337,-3.978502 -1.61887,-0.983746 -3.37117,-1.872463 -5.10338,-2.717218 -1.77789,-0.867082 -3.4789,-2.043401 -5.42264,-2.410309 -4.28165,-0.808216 -8.92599,-0.791738 -13.05843,0.589732 -4.61244,1.541901 -8.04435,4.405216 -12.0408,8.239383 z"
             inkscape:path-effect="#path-effect9396-2-1"
             sodipodi:nodetypes="sssssssssssssssssaaas"
             inkscape:connector-curvature="0"
             id="path8188"
             d="m 386.15278,93.248563 c -1.79762,1.486627 -3.52301,3.060581 -5.16806,4.714456 -0.90946,0.914341 -1.82039,1.895271 -2.22841,3.118651 -0.3628,1.0878 -0.29381,2.26728 -0.47175,3.40009 -0.0609,0.38803 -0.15137,0.77417 -0.153,1.16695 -8.2e-4,0.1964 0.021,0.39392 0.0787,0.58164 0.0577,0.18772 0.15228,0.36565 0.28642,0.50909 0.22319,0.23866 0.54159,0.3681 0.86178,0.43331 0.32019,0.0652 0.64889,0.073 0.97376,0.10812 1.46509,0.15844 2.81567,0.86875 4.02877,1.70542 1.21309,0.83667 2.32914,1.81136 3.57312,2.60137 2.74809,1.74523 6.03043,2.5204 9.28349,2.64453 3.25306,0.12414 6.49829,-0.37294 9.69052,-1.0113 2.53646,-0.50723 5.06524,-1.10781 7.47175,-2.0563 3.68541,-1.45256 7.00698,-3.68975 10.18131,-6.05951 1.44193,-1.07646 2.86373,-2.18675 4.15829,-3.43657 0.4394,-0.42421 0.86451,-0.86482 1.33584,-1.25326 0.47132,-0.38843 0.99432,-0.72625 1.57574,-0.913281 0.88627,-0.285096 1.84708,-0.203192 2.76534,-0.04968 0.6916,0.115621 1.38458,0.270725 2.08522,0.242805 0.35032,-0.01396 0.70095,-0.07463 1.02642,-0.204981 0.32546,-0.130348 0.62542,-0.332343 0.84855,-0.602776 0.29321,-0.355372 0.44271,-0.819532 0.44436,-1.280247 0.002,-0.460715 -0.13957,-0.91664 -0.37337,-1.313628 -0.46759,-0.793978 -1.27615,-1.331386 -2.11817,-1.705625 -1.15328,-0.512584 -2.40118,-0.766099 -3.62799,-1.062297 -3.76866,-0.909894 -7.43083,-2.254517 -10.90337,-3.978502 -1.7263,-0.85704 -3.40465,-1.806754 -5.10338,-2.717218 -1.74639,-0.93601 -3.52643,-1.835532 -5.42264,-2.410309 -4.2396,-1.285099 -8.87353,-0.863656 -13.05843,0.589732 -4.64873,1.614474 -8.85232,4.490947 -12.0408,8.239383 l 0,-6.3e-5 z"
             style="fill:#000000;fill-opacity:1;stroke:#000000;stroke-width:1;stroke-miterlimit:4;stroke-dasharray:none;stroke-opacity:1" />
          <path
             style="fill:#767676;fill-opacity:1;stroke:#000000;stroke-width:3;stroke-linecap:round;stroke-linejoin:round;stroke-miterlimit:4;stroke-dasharray:none;stroke-opacity:1"
             d="m 378.51994,108.03525 c 3.29119,2.02942 5.83895,4.80403 8.38669,7.71255 2.34339,2.67523 4.37576,7.16222 7.34484,9.11999 2.17315,1.43294 4.74672,2.19425 7.33956,2.42471 3.06726,0.27263 6.16475,-0.17505 9.13836,-0.97507 2.72699,-0.73367 5.38048,-1.76719 7.8307,-3.17117 4.60923,-2.6411 8.5324,-6.59745 13.59429,-8.2092 1.11088,-0.35372 2.26262,-0.58832 3.33595,-1.04344 0.53667,-0.22755 1.05284,-0.51084 1.50641,-0.877 0.45356,-0.36616 0.84383,-0.81758 1.10209,-1.34016 0.46698,-0.94491 0.47424,-6.03997 0.63446,-7.08173 0.17079,-1.11054 0.52329,-2.18583 0.71853,-3.29233 0.19525,-1.1065 0.22329,-2.28583 -0.23305,-3.31258 -0.41133,-0.92547 -1.1956,-1.65745 -2.10074,-2.111784 -0.90514,-0.454333 -1.92548,-0.645702 -2.9379,-0.672264 -2.02483,-0.05312 -4.00809,0.528989 -6.02213,0.744428 -2.66247,0.2848 -5.34994,-0.07358 -8.02701,-0.0176 -3.32704,0.06957 -6.61164,0.77825 -9.93588,0.93154 -3.79449,0.17497 -7.58197,-0.3753 -11.37807,-0.51105 -3.26842,-0.11688 -6.70528,0.12107 -9.49166,1.83347 -1.32516,0.81439 -2.43865,1.92513 -3.66939,2.87621 -1.23074,0.95108 -2.65598,1.76693 -4.21007,1.83082 -0.40993,0.0168 -0.82352,-0.0191 -1.22892,0.044 -0.63801,0.0992 -0.10794,-2.11017 -0.50068,-1.59767 -1.01025,2.71822 -1.38671,3.64595 -1.19638,6.69533 z"
             id="path8190"
             inkscape:connector-curvature="0"
             sodipodi:nodetypes="csssssscssssssssssssscccc" />
          <path
             sodipodi:nodetypes="csssaaaaaaasssaaaaaacc"
             inkscape:connector-curvature="0"
             d="m 378.21585,107.21257 c 0.0618,0.29723 0.17358,0.58402 0.32913,0.84475 0.26734,0.4481 0.65801,0.81133 1.07995,1.11831 0.42194,0.30698 0.87824,0.56294 1.32001,0.84063 2.34823,1.47608 4.26179,3.55108 5.96169,5.74273 2.28066,2.94042 4.29854,6.2034 7.34484,8.34058 2.15112,1.50915 4.72501,2.36965 7.33956,2.63238 3.07036,0.30853 6.17824,-0.18688 9.13836,-1.05865 2.74329,-0.80792 5.39609,-1.9424 7.8307,-3.44274 4.62787,-2.85196 8.49538,-7.02766 13.59429,-8.91232 1.11267,-0.41126 2.27063,-0.70687 3.34365,-1.21263 1.07302,-0.50577 2.08277,-1.26012 2.6008,-2.32727 0.4984,-1.02671 0.48914,-2.2137 0.63446,-3.34569 0.18811,-1.46526 0.64878,-2.88583 0.82478,-4.35259 0.088,-0.73338 0.10382,-1.48014 -0.0222,-2.207958 -0.12601,-0.727816 -0.39835,-1.437799 -0.84739,-2.024277 -0.56571,-0.738852 -1.39302,-1.253666 -2.28036,-1.533937 -0.88734,-0.280272 -1.83374,-0.336751 -2.76182,-0.268888 -1.85614,0.135726 -3.6437,0.755139 -5.48826,1.0027 -2.65499,0.35633 -5.34862,-0.06528 -8.02701,-0.01887 -3.33022,0.0577 -6.60966,0.838223 -9.93588,1.011292 -3.79455,0.197437 -7.58164,-0.397722 -11.37807,-0.554827 -1.64428,-0.06804 -3.3006,-0.05309 -4.92255,0.225466 -1.62194,0.278559 -3.21503,0.829756 -4.56911,1.765043 -1.31946,0.911376 -2.37055,2.153596 -3.58242,3.203806 -0.60593,0.52511 -1.25734,1.00538 -1.97859,1.35567 -0.72124,0.35029 -1.51682,0.56758 -2.31845,0.55076 -0.41216,-0.009 -0.83606,-0.0772 -1.22892,0.0478 -0.24542,0.0781 -0.46332,0.2285 -0.64751,0.40848 -0.1842,0.17998 -0.3369,0.38943 -0.48081,0.603 -0.33466,0.49663 -0.62702,1.02175 -0.87288,1.56781 l 0,-5.6e-4 z"
             id="path8192"
             inkscape:original-d="m 378.21585,107.21257 c 0.14905,1.39153 -0.72727,-0.12868 0.32913,0.84475 0.74223,0.68388 1.19575,0.88029 2.39996,1.95894 1.97205,1.76649 4.83543,4.5527 5.96169,5.74273 2.54645,2.69055 4.28022,6.25932 7.34484,8.34058 2.15015,1.46021 4.75747,2.33534 7.33956,2.63238 3.04641,0.35036 6.17873,-0.25616 9.13836,-1.05865 2.75199,-0.74615 5.32466,-2.08259 7.8307,-3.44274 4.76223,-2.58464 8.99976,-6.04014 13.59429,-8.91232 1.95554,-1.22248 4.62226,-1.65033 5.94445,-3.5399 0.65078,-0.92997 0.5312,-2.21529 0.63446,-3.34569 0.26031,-2.84978 1.48629,-6.742304 -0.0448,-8.584825 -2.18327,-2.627283 -6.80385,-0.948234 -10.53044,-0.800125 -3.26178,0.129619 -5.03714,0 -8.02701,-0.01887 -3.32898,-0.02516 -6.60796,0.923559 -9.93588,1.011292 -3.79587,0.1 -7.59271,-0.854441 -11.37807,-0.554827 -3.22262,0.255087 -6.50297,0.758406 -9.49166,1.990509 -2.89418,1.193176 -4.89533,4.164156 -7.87946,5.110236 -0.39078,0.12389 -0.84894,-0.10641 -1.22892,0.0478 -0.46819,0.18955 -0.81309,0.61683 -1.12832,1.01148 -0.37333,0.46734 -0.87288,1.56781 -0.87288,1.56781 z"
             inkscape:path-effect="#path-effect9121-0-6"
             style="fill:#ffffff;fill-opacity:1;stroke:none" />
          <path
             inkscape:original-d="m 386.58233,98.80884 c -1.31599,0.91017 -2.65021,1.537 -3.92181,2.57911 -0.51179,0.41943 -1.28119,1.02746 -1.69104,1.70618 -0.38986,0.64564 -1.16429,2.22048 -1.08719,3.13492 0.10506,1.246 -0.32881,1.87913 0.16096,2.25767 0.72253,0.55848 1.4094,0.20547 2.1221,0.8066 2.79169,2.3544 3.85335,3.55198 5.76875,4.3068 2.92621,1.15317 14.8787,1.88598 18.97401,1.63322 4.09531,-0.25269 3.57574,-1.04626 7.47176,-2.05629 4.62141,-1.19808 6.77229,-4.06548 10.1813,-6.05951 1.53515,-0.8979 2.65419,-2.46597 4.15829,-3.43657 1.6939,-1.09299 3.93334,-1.57147 4.23256,-2.21635 0.24369,-0.52527 0.54793,0.99148 0.62493,-0.56495 0.0484,-0.97778 -0.19371,-0.96444 -0.32305,-1.35821 -0.20462,-0.62293 -0.34598,-0.16898 -0.5725,-0.58117 -0.5239,-0.95331 -6.7192,-0.78558 -10.90336,-2.17655 -1.61888,-0.53816 -3.39156,-1.02927 -5.10339,-1.48649 -1.79723,-0.47999 -3.57305,-1.1201 -5.42264,-1.31864 -4.32928,-0.46465 -8.78893,-0.53169 -13.05843,0.32263 -4.07112,0.81469 -8.57851,2.40999 -11.61125,4.5076 z"
             inkscape:path-effect="#path-effect5178-6"
             sodipodi:nodetypes="ssssssssssssssssaaas"
             inkscape:connector-curvature="0"
             id="path8194"
             d="m 386.58233,98.80884 c -1.36224,0.772565 -2.68862,1.6138 -3.92181,2.57911 -0.63343,0.49584 -1.25007,1.0334 -1.69104,1.70618 -0.60982,0.93041 -0.84153,2.04994 -1.08719,3.13492 -0.0864,0.38169 -0.17649,0.76655 -0.17835,1.15789 -0.002,0.39135 0.0926,0.79599 0.33931,1.09978 0.24384,0.30024 0.61212,0.47439 0.98509,0.57684 0.37296,0.10244 0.76018,0.14257 1.13701,0.22976 1.18321,0.27377 2.21319,0.99865 3.11576,1.81124 0.90258,0.81259 1.71194,1.72786 2.65299,2.49556 2.55076,2.08089 5.92603,2.94136 9.21747,2.9947 3.29144,0.0533 6.54527,-0.63748 9.75654,-1.36148 2.52184,-0.56856 5.04621,-1.16206 7.47176,-2.05629 3.72595,-1.37365 7.18532,-3.45304 10.1813,-6.05951 1.35837,-1.18177 2.63354,-2.47903 4.15829,-3.43657 1.34929,-0.84735 2.86035,-1.40665 4.23256,-2.21635 0.1227,-0.0724 0.24473,-0.14712 0.35433,-0.23813 0.10961,-0.091 0.20702,-0.19933 0.2706,-0.32682 0.10986,-0.2203 0.11006,-0.48424 0.0392,-0.72 -0.0709,-0.235752 -0.20762,-0.446657 -0.36225,-0.63821 -0.17105,-0.211893 -0.36562,-0.404091 -0.5725,-0.58117 -1.43326,-1.226818 -3.37771,-1.672762 -5.25842,-1.821877 -1.88071,-0.149115 -3.78414,-0.04365 -5.64494,-0.354673 -1.74947,-0.292413 -3.41433,-0.945001 -5.10339,-1.48649 -1.77303,-0.568409 -3.58526,-1.01738 -5.42264,-1.31864 -4.32173,-0.708598 -8.77531,-0.590786 -13.05843,0.32263 -4.07641,0.869334 -7.98565,2.451425 -11.61125,4.5076 z"
             style="fill:#000000;fill-opacity:1;stroke:#000000;stroke-width:3;stroke-linecap:round;stroke-linejoin:round;stroke-miterlimit:4;stroke-dasharray:none;stroke-opacity:1" />
          <path
             inkscape:original-d="m 386.15278,94.254761 c -1.73418,1.663789 -3.49238,2.809542 -5.16806,4.714456 -0.67442,0.766645 -1.49965,2.192513 -2.03973,3.433113 -0.51375,1.18015 -0.76202,2.17119 -0.66043,3.08563 0.13845,1.246 -0.4333,1.87913 0.21211,2.25767 0.95214,0.55848 0.89636,-0.0597 1.83554,0.5415 3.67881,2.3544 5.07785,3.55197 7.60189,4.30679 3.85609,1.15318 14.8787,1.88592 18.97401,1.63316 4.09531,-0.25269 3.57574,-1.04626 7.47176,-2.05629 4.62141,-1.19808 6.77229,-4.06548 10.1813,-6.05945 1.53515,-0.89796 2.65419,-2.46603 4.15829,-3.43657 0.96311,-0.62149 1.80169,-1.79894 2.91159,-2.1666 0.84216,-0.27899 1.94726,0.22842 2.76533,-0.0497 1.54428,-0.525265 3.47224,0.99148 3.9602,-0.56495 0.30653,-0.97777 -1.22759,-3.579772 -2.04718,-4.299499 -1.29669,-1.138584 -2.19252,-0.308859 -3.628,-1.062297 -3.31997,-1.742592 -6.7192,-1.435934 -10.90336,-3.978503 -1.61888,-0.983745 -3.37118,-1.872399 -5.10339,-2.717218 -1.77789,-0.867082 -3.4789,-2.0434 -5.42264,-2.410308 -4.28165,-0.808216 -8.92599,-0.791676 -13.05843,0.589731 -4.61243,1.541979 -8.04435,4.40523 -12.0408,8.23946 z"
             inkscape:path-effect="#path-effect9114-8-3"
             sodipodi:nodetypes="cssssssssssssssssaaasc"
             inkscape:connector-curvature="0"
             id="path8196"
             d="m 386.15278,94.254761 c -1.94143,1.306701 -3.68901,2.900893 -5.16806,4.714456 -0.84594,1.037263 -1.61372,2.164243 -2.03973,3.433113 -0.33508,0.99803 -0.44928,2.05425 -0.66043,3.08563 -0.0791,0.38638 -0.17245,0.77403 -0.17079,1.16842 8.3e-4,0.1972 0.0258,0.39527 0.087,0.58274 0.0612,0.18747 0.1593,0.36429 0.2959,0.50651 0.22608,0.23537 0.54378,0.36328 0.86345,0.429 0.31968,0.0657 0.64782,0.0756 0.97209,0.1125 1.4637,0.16643 2.81187,0.87747 4.02526,1.71281 1.2134,0.83534 2.33158,1.8066 3.57663,2.59398 2.75096,1.73974 6.03196,2.51382 9.28447,2.63915 3.2525,0.12533 6.49762,-0.36868 9.68954,-1.00599 2.53663,-0.50647 5.06533,-1.10757 7.47176,-2.05629 3.68525,-1.45288 7.00694,-3.68977 10.1813,-6.05945 1.44195,-1.07643 2.86374,-2.18674 4.15829,-3.43657 0.4394,-0.42422 0.86451,-0.86484 1.33584,-1.25329 0.47132,-0.38844 0.99433,-0.72627 1.57575,-0.91331 0.88627,-0.2851 1.84708,-0.20321 2.76533,-0.0497 0.6916,0.11562 1.38458,0.27072 2.08522,0.2428 0.35032,-0.0139 0.70096,-0.0746 1.02642,-0.20497 0.32547,-0.13035 0.62543,-0.33235 0.84856,-0.60278 0.29321,-0.355372 0.44271,-0.819532 0.44436,-1.280247 0.002,-0.460715 -0.13957,-0.916639 -0.37337,-1.313628 -0.46759,-0.793978 -1.27615,-1.331385 -2.11817,-1.705624 -1.15329,-0.512584 -2.40118,-0.766098 -3.628,-1.062297 -3.76866,-0.909892 -7.43082,-2.25452 -10.90336,-3.978503 -1.7263,-0.857041 -3.40466,-1.806754 -5.10339,-2.717218 -1.74639,-0.936009 -3.52643,-1.835531 -5.42264,-2.410308 -4.2396,-1.2851 -8.87354,-0.863662 -13.05843,0.589731 -4.64874,1.614484 -8.85234,4.490987 -12.0408,8.23946 l 0,-1.25e-4 z"
             style="fill:#ffffff;fill-opacity:1;stroke:none" />
          <path
             style="fill:#000000;fill-opacity:1;stroke:none"
             d="m 409.49304,87.977519 c -0.43111,0.02201 -0.83376,0.111443 -1.19887,0.314456 -0.22311,0.124022 -0.46899,0.424516 -0.39307,0.66822 0.23274,0.747023 1.42699,0.624385 2.12258,0.982676 0.61038,0.314394 1.10218,1.002173 1.78848,1.021984 0.65498,0.01887 1.6836,-0.234711 1.76881,-0.88444 0.11257,-0.858341 -1.13913,-1.395369 -1.9457,-1.709826 -0.64869,-0.252948 -1.42372,-0.429547 -2.14223,-0.39307 z m -13.44301,0.530614 c -0.87511,0.118172 -1.95508,1.417003 -1.53298,2.12258 0.1325,0.221503 0.5326,0.503948 0.8058,0.353764 0.4118,-0.226346 0.75267,-1.038713 1.19886,-1.356062 0.29793,-0.211881 0.22979,-0.987645 -0.11792,-1.100597 -0.11171,-0.03648 -0.22875,-0.03648 -0.35376,-0.0195 z"
             id="path8198"
             inkscape:connector-curvature="0" />
        </g>
        <path
           inkscape:connector-curvature="0"
           id="path5851"
           d="m 239.35359,225.87853 -3.71232,7.42462 -1.76776,-7.77818 z"
           style="fill:#ffffff;fill-opacity:1;fill-rule:evenodd;stroke:none;stroke-width:1px;stroke-linecap:butt;stroke-linejoin:miter;stroke-opacity:1" />
      </g>
    </g>
  </g>
</svg>
