<?xml version="1.0" encoding="UTF-8" standalone="no"?>
<!-- Created with Inkscape (http://www.inkscape.org/) -->

<svg
   xmlns:dc="http://purl.org/dc/elements/1.1/"
   xmlns:cc="http://creativecommons.org/ns#"
   xmlns:rdf="http://www.w3.org/1999/02/22-rdf-syntax-ns#"
   xmlns:svg="http://www.w3.org/2000/svg"
   xmlns="http://www.w3.org/2000/svg"
   xmlns:sodipodi="http://sodipodi.sourceforge.net/DTD/sodipodi-0.dtd"
   xmlns:inkscape="http://www.inkscape.org/namespaces/inkscape"
   width="298.66666"
   height="352"
   id="svg27450"
   version="1.1"
   inkscape:version="0.92.0 r"
   sodipodi:docname="tux-bw.svg"
   inkscape:export-filename="./tux-large-bw.png"
   inkscape:export-xdpi="300"
   inkscape:export-ydpi="300">
  <title
     id="title20046">Tux</title>
  <sodipodi:namedview
     id="base"
     pagecolor="#ffffff"
     bordercolor="#666666"
     borderopacity="0.41176471"
     inkscape:pageopacity="0.0"
     inkscape:pageshadow="2"
     inkscape:zoom="0.50000001"
     inkscape:cx="-61.143235"
     inkscape:cy="150.59664"
     inkscape:document-units="px"
     inkscape:current-layer="g1768"
     showgrid="false"
     inkscape:window-width="1920"
     inkscape:window-height="1163"
     inkscape:window-x="1920"
     inkscape:window-y="0"
     inkscape:window-maximized="1"
     fit-margin-top="0"
     fit-margin-left="0"
     fit-margin-right="0"
     fit-margin-bottom="0"
     showguides="true"
     inkscape:guide-bbox="true"
     inkscape:showpageshadow="false"
     showborder="true"
     inkscape:snap-global="false" />
  <defs
     id="defs27452" />
  <metadata
     id="metadata27455">
    <rdf:RDF>
      <cc:Work
         rdf:about="">
        <dc:format>image/svg+xml</dc:format>
        <dc:type
           rdf:resource="http://purl.org/dc/dcmitype/StillImage" />
        <dc:title>Tux</dc:title>
        <dc:date>20 June 2012</dc:date>
        <dc:creator>
          <cc:Agent>
            <dc:title>Garrett LeSage</dc:title>
          </cc:Agent>
        </dc:creator>
        <cc:license
           rdf:resource="http://creativecommons.org/licenses/publicdomain/" />
        <dc:contributor>
          <cc:Agent>
            <dc:title>Larry Ewing, the creator of the original Tux graphic</dc:title>
          </cc:Agent>
        </dc:contributor>
        <dc:subject>
          <rdf:Bag>
            <rdf:li>tux</rdf:li>
            <rdf:li>Linux</rdf:li>
            <rdf:li>penguin</rdf:li>
            <rdf:li>logo</rdf:li>
          </rdf:Bag>
        </dc:subject>
        <dc:rights>
          <cc:Agent>
            <dc:title>Larry Ewing, Garrett LeSage</dc:title>
          </cc:Agent>
        </dc:rights>
        <dc:source>https://github.com/garrett/Tux</dc:source>
      </cc:Work>
      <cc:License
         rdf:about="http://creativecommons.org/licenses/publicdomain/">
        <cc:permits
           rdf:resource="http://creativecommons.org/ns#Reproduction" />
        <cc:permits
           rdf:resource="http://creativecommons.org/ns#Distribution" />
        <cc:permits
           rdf:resource="http://creativecommons.org/ns#DerivativeWorks" />
      </cc:License>
    </rdf:RDF>
  </metadata>
  <g
     inkscape:label="tux"
     inkscape:groupmode="layer"
     id="g1768"
     transform="translate(170.66667,-61.186329)">
    <path
       style="fill:#ffffff;stroke:none;stroke-width:1px;stroke-linecap:butt;stroke-linejoin:miter;stroke-opacity:1"
       d="m -40.16667,107.68634 48,5 17.99999,63 39,70.99999 13,59 9.50559,3.11336 4.86136,11.04855 0.97227,8.13172 7.86656,8.48529 10.51822,7.95495 4.77297,8.04334 -3.88909,7.60139 -40.12831,24.83713 -16.08668,14.23052 -20.59448,1.59099 -15.11441,-8.92722 -4.59619,-16.97056 -64.87705,4.94975 -5.48008,13.70019 -14.76085,7.86656 -17.942834,-2.65165 -17.412506,-7.86656 -23.33452,-5.12653 -23.06936,-7.513 -4.33103,-6.98268 2.38649,-8.66206 4.15425,-12.28598 -1.06066,-18.11961 0.26516,-9.54594 3.18198,-5.03814 9.104,-2.74004 7.95496,0.26517 5.48007,-1.76777 7.6014,-10.69499 4.41942,-5.21491 32.261744,-80.4334 21.389976,-26.78167 -3.88908,-44.63611 1.67938,-26.60489 z"
       id="path4529"
       inkscape:connector-curvature="0" />
    <path
       style="fill:#020204;fill-opacity:1;stroke:none;stroke-width:1.06666672"
       d="M 150.19922 20.882812 C 142.55356 20.800552 134.81625 22.351727 128.08398 25.976562 C 120.92812 29.829473 115.05976 35.993304 111.45898 43.279297 C 107.86102 50.559595 106.5319 58.771993 106.2168 66.886719 C 105.90726 74.858297 106.53203 82.831903 106.98047 90.796875 C 107.44676 99.078912 107.72283 107.37133 107.81055 115.66602 C 108.22068 118.31043 108.397 120.99073 108.33398 123.66602 C 108.30208 125.01959 108.21756 126.38481 108.20312 127.74219 C 108.17472 127.81389 108.15195 127.8874 108.12305 127.95898 C 107.09421 130.51356 105.80974 132.9349 104.4043 135.29297 C 101.65637 138.72394 98.911855 142.15877 96.173828 145.59766 C 93.126451 149.42508 90.086755 153.25606 87.015625 157.06445 C 83.247428 161.73724 79.388855 166.44518 76.935547 171.92383 C 74.827549 176.63134 73.831206 181.74573 72.386719 186.69727 C 70.74629 192.32048 68.518508 197.75782 66.017578 203.05469 C 63.708288 207.94569 61.163604 212.72139 58.615234 217.49219 C 56.761154 220.96322 54.877235 224.51221 54.234375 228.39453 C 53.726345 231.4626 54.021664 234.6285 54.802734 237.63867 C 54.834384 237.76064 54.878904 237.8785 54.912109 238 C 54.436487 238.44045 53.984698 238.89311 53.587891 239.36719 C 52.134991 241.10301 51.104546 242.89101 50.197266 244.49023 C 49.290956 246.08772 48.497426 247.50939 47.660156 248.64453 C 46.831226 249.76834 45.939117 250.62402 45.085938 251.10742 C 44.182727 251.61917 42.901733 251.95227 41.408203 252.07031 C 39.898463 252.18958 38.144483 252.10193 36.158203 252.05273 C 34.168513 252.00353 31.924365 251.99413 29.515625 252.49414 C 27.076135 253.00055 24.501423 254.04145 22.382812 256.08398 C 20.105984 258.27906 18.951515 261.05355 18.429688 263.69727 C 17.915436 266.3026 18.000268 268.73756 18.142578 270.89844 C 18.460538 275.72654 19.194656 280.22338 19.410156 284.46289 C 19.624816 288.68583 19.305363 292.73251 17.945312 296.12109 C 17.111774 298.19785 15.530769 300.60914 14.349609 303.84375 C 13.756549 305.46784 13.292076 307.30442 13.259766 309.33008 C 13.227066 311.3791 13.645455 313.5655 14.828125 315.58203 C 16.365965 318.20414 18.703049 319.76216 20.912109 320.75 C 23.079989 321.7194 25.098876 322.1604 26.759766 322.60742 C 30.499286 323.61389 34.333282 324.991 38.419922 326.21289 C 51.719262 330.18934 65.078416 331.72774 76.824219 336.34766 C 82.597325 338.61838 89.021737 342.23267 96.880859 342.5332 C 101.84877 342.72317 106.78061 341.43921 111.0293 338.91211 C 115.27487 336.38686 118.72527 332.69211 120.99414 328.33594 C 122.25715 325.91101 123.12534 323.3196 123.60938 320.66406 C 127.41961 319.93966 131.25958 319.36671 135.13281 319.27734 C 136.33285 319.24964 137.54106 319.26054 138.73438 319.15625 C 142.05346 319.51972 145.39557 319.65518 148.74219 319.52344 C 149.15301 319.50724 149.56301 319.48093 149.97266 319.45703 C 150.83505 319.55383 151.70514 319.60397 152.57031 319.6543 C 158.43787 319.9956 164.29389 320.56569 170.10547 321.44336 C 175.2169 322.21529 180.29245 323.22578 185.31641 324.44336 C 186.08382 324.62935 186.85196 324.82856 187.61914 325.02148 C 188.0432 327.2872 188.80246 329.58137 190.16406 331.75391 C 192.78788 335.94041 196.83751 338.38701 200.64062 340.02344 C 206.05204 342.35191 212.16696 343.53292 218.30078 342.62305 C 223.33708 341.876 227.97697 339.77654 231.95117 336.93555 C 235.86418 334.13831 238.91688 330.85307 241.88281 328.04883 C 245.35147 324.76927 249.01502 321.77087 252.92188 319.24805 C 258.76513 315.47479 265.49311 312.58275 272.29688 309.15625 C 276.29555 307.14243 280.76506 304.75218 284.25 300.65234 C 285.8271 298.79698 287.09143 296.69361 287.98828 294.42969 A 4.2670931 4.2670931 0 0 0 288.17578 293.83203 C 288.83246 291.03504 288.41639 288.13163 287.00195 285.63086 C 285.9696 283.80563 284.59248 282.49962 283.29297 281.48242 C 282.00281 280.47254 280.7919 279.7411 279.8125 279.08008 C 277.72483 277.67106 275.67163 275.98734 273.5332 274.20898 C 271.393 272.42915 269.44594 270.76721 267.95508 269.00391 C 266.48003 267.25931 265.44127 265.36136 265.09375 263.56836 C 264.88247 262.47827 264.87988 260.92874 264.71094 258.96094 C 264.51973 256.73392 264.06986 254.42658 263.16992 252.16992 C 262.56023 250.64108 261.68784 248.96549 260.2207 247.48633 C 258.28286 245.5326 256.00157 244.59298 254.03516 243.98047 C 254.00116 243.96987 253.96576 243.96167 253.93164 243.95117 C 255.30742 241.10566 256.29129 238.05044 256.87305 234.95117 C 258.24725 227.63022 257.61561 220.07083 256.33789 212.73242 C 254.59558 202.72564 251.66304 192.94517 247.93164 183.49805 C 245.18695 176.54908 241.97599 169.71562 237.48828 163.74219 C 233.09675 157.89678 227.56003 152.97786 223.25781 147.06641 C 220.99247 143.95371 219.06698 140.5685 216.70898 137.54297 C 215.75306 135.56933 214.80786 133.59062 213.89258 131.59766 C 211.0518 125.41206 208.47457 119.0866 205.10938 113.16992 C 204.58594 112.24963 204.03361 111.34347 203.4668 110.44531 C 203.03489 104.78798 202.42565 99.130646 202.13672 93.466797 C 201.55729 82.108382 202.26428 70.526854 199.28516 59.550781 C 197.83258 54.198995 195.51677 49.090948 192.53711 44.414062 C 189.04582 38.934118 184.61708 34.023328 179.35547 30.210938 C 170.96019 24.127992 160.56602 20.994349 150.19922 20.882812 z M 167.81445 59.021484 C 168.97568 59.068174 170.10443 59.327909 171.29883 60.121094 C 174.6141 62.322792 176.22693 64.841954 177.46875 67.914062 C 177.80905 68.755967 178.13463 70.183922 177.73633 70.625 C 176.03022 67.165275 173.59808 64.055171 170.39453 61.927734 C 168.73884 60.82816 166.88494 60.029261 164.94531 59.611328 C 165.25438 58.963899 166.04256 59.062713 166.63867 59.033203 C 167.03689 59.013283 167.42738 59.005923 167.81445 59.021484 z M 122.52539 61.470703 C 123.89923 61.494383 125.27111 61.825932 126.50586 62.359375 C 127.91699 62.969034 129.3641 63.880623 130.63086 64.826172 C 131.14492 65.209827 131.68242 65.604726 132.02344 66.115234 C 133.06944 67.681111 133.5857 69.466347 133.86328 71.3125 C 132.7398 68.916123 131.08012 66.65703 128.84766 64.826172 C 127.64275 63.838025 126.29395 62.969034 124.88281 62.359375 C 123.84695 61.91179 122.70747 61.615849 121.56055 61.515625 C 121.68603 61.504225 121.81519 61.500841 121.94141 61.494141 C 122.13782 61.484741 122.32914 61.465946 122.52539 61.472656 L 122.52539 61.470703 z M 162.71289 65.912109 C 163.20284 65.919909 163.69268 65.958299 164.17773 66.025391 C 166.11793 66.293744 167.9848 67.025282 169.62891 68.089844 C 172.91712 70.218968 175.24759 73.633617 176.5332 77.333984 C 177.7167 80.740431 178.06974 84.39951 177.86719 88 C 177.70822 90.825747 177.20232 93.665866 176.01367 96.234375 C 175.4442 97.464939 174.69489 98.61967 173.80469 99.642578 C 172.67428 99.214078 171.51335 98.964028 170.40039 98.695312 C 168.92049 98.338014 167.46245 97.895457 166.01758 97.414062 C 166.68542 97.181087 167.32342 96.865295 167.9043 96.460938 C 169.02736 95.679158 169.93327 94.603386 170.57812 93.396484 C 171.22297 92.189583 171.61144 90.852891 171.78906 89.496094 C 172.10281 87.099511 171.74826 84.597516 170.64062 82.449219 C 169.53299 80.300922 167.65472 78.532826 165.38672 77.697266 C 164.64998 77.42584 163.87287 77.251221 163.08984 77.212891 C 162.82884 77.200111 162.56574 77.202023 162.30469 77.220703 C 161.18951 77.300613 160.10432 77.681625 159.1582 78.277344 C 158.2121 78.873061 157.4048 79.680199 156.77148 80.601562 C 155.50484 82.444294 154.94905 84.705173 154.85938 86.939453 C 154.79208 88.616578 154.97696 90.314809 155.5332 91.898438 C 155.66216 92.265587 155.81519 92.62498 155.98633 92.974609 C 155.14459 92.518343 154.30244 92.056764 153.45312 91.601562 C 152.538 91.111085 151.6089 90.626491 150.6543 90.185547 C 150.40043 89.635172 150.15534 89.078188 149.89453 88.533203 C 149.44859 87.601353 148.91766 86.704094 148.28906 85.886719 C 147.70896 82.747229 147.73028 79.516261 148.80078 76.533203 C 150.01617 73.146398 152.50101 70.305158 155.4668 68.267578 C 156.38686 67.635467 157.35989 67.070292 158.40039 66.666016 C 159.76967 66.133997 161.24304 65.88864 162.71289 65.912109 z M 121.84766 68.267578 C 123.27377 68.189898 124.70545 68.543956 125.98633 69.175781 C 127.2672 69.807607 128.40291 70.70833 129.39844 71.732422 C 131.45396 73.846922 132.92711 76.490074 133.84961 79.291016 C 134.68919 81.840203 135.06804 84.520949 135.16406 87.205078 C 134.58911 87.967258 134.05682 88.763388 133.52734 89.560547 C 133.45648 89.584534 133.38312 89.602427 133.3125 89.626953 C 132.13816 90.034792 130.99418 90.523283 129.88086 91.074219 C 130.12139 89.021037 129.89125 86.908553 129.2793 84.927734 C 128.66404 82.936258 127.64498 81.01661 126.05078 79.673828 C 125.29018 79.033172 124.39918 78.530648 123.43164 78.300781 C 122.94787 78.185849 122.44511 78.141592 121.94922 78.177734 C 121.45332 78.213874 120.96441 78.32946 120.51172 78.535156 C 119.5066 78.99187 118.72807 79.862278 118.21875 80.841797 C 117.70944 81.821316 117.44804 82.910828 117.26758 84 C 116.87067 86.395449 116.8562 88.907203 117.67969 91.191406 C 118.22346 92.699728 119.12104 94.068201 120.21094 95.244141 C 120.73348 95.807932 121.30795 96.332361 121.94922 96.751953 C 121.38031 97.317395 120.82658 97.898205 120.30469 98.507812 C 120.29969 98.513813 120.29386 98.517837 120.28906 98.523438 C 119.33708 99.311184 118.4057 100.12286 117.49219 100.95508 C 116.36967 99.757624 115.50986 98.3242 114.89648 96.800781 C 113.60968 93.604772 113.35737 90.102414 113.10938 86.666016 C 112.83544 82.870861 112.56461 78.958817 113.76953 75.349609 C 114.37199 73.545006 115.35012 71.843817 116.74023 70.544922 C 118.13035 69.246027 119.94796 68.37105 121.84766 68.267578 z M 164.19141 79.888672 C 164.35705 79.882172 164.51966 79.889437 164.66797 79.908203 C 165.95091 80.07074 167.23744 80.944079 168.02734 82.109375 C 168.89748 83.393474 169.79801 85.360072 169.15234 86.806641 C 168.98727 87.176252 168.47337 87.391364 168.13281 87.246094 C 167.04785 86.783015 167.25713 84.73873 166.48438 83.753906 C 166.08064 83.23936 165.52352 82.904466 164.99023 82.578125 C 164.44118 82.241983 163.66944 82.316904 163.25586 81.785156 C 163.00047 81.456749 162.77105 80.897881 162.95703 80.513672 C 163.17346 80.066377 163.69448 79.908137 164.19141 79.888672 z M 124.375 80.707031 C 124.67238 80.747171 124.9783 80.866324 125.22266 80.996094 C 126.27954 81.557373 127.1369 82.676729 127.48438 83.857422 C 127.86723 85.158453 128.08231 87.004233 127.11523 87.919922 C 126.86803 88.153994 126.36474 88.149061 126.11328 87.919922 C 125.31219 87.190037 126.07548 85.658491 125.69141 84.625 C 125.49075 84.085055 125.10586 83.633475 124.74023 83.197266 C 124.36383 82.748054 123.67881 82.547046 123.47461 81.990234 C 123.3486 81.646493 123.31077 81.129032 123.58008 80.890625 C 123.78905 80.705655 124.07762 80.666897 124.375 80.707031 z M 142.19922 89.761719 C 143.96592 89.801739 145.72018 90.060179 147.41602 90.574219 C 147.87324 90.712813 148.32211 90.872385 148.76758 91.042969 C 148.77085 91.044219 148.77407 91.045624 148.77734 91.046875 C 148.92598 91.103889 149.07334 91.164244 149.2207 91.224609 C 149.23637 91.231027 149.25191 91.237738 149.26758 91.244141 C 149.49882 91.338791 149.72834 91.437897 149.95703 91.539062 C 149.95781 91.539408 149.9582 91.54067 149.95898 91.541016 C 150.63714 91.840513 151.30608 92.159078 151.9668 92.498047 C 151.96939 92.499378 151.97202 92.500622 151.97461 92.501953 C 151.97961 92.504653 151.98503 92.507166 151.99023 92.509766 C 152.39563 92.718024 152.80005 92.929544 153.20117 93.144531 C 154.79622 93.999422 156.37921 94.877367 157.99023 95.701172 C 157.99091 95.701799 157.99151 95.702498 157.99219 95.703125 C 158.21052 95.814758 158.42486 95.933912 158.64453 96.042969 C 159.35575 96.39606 160.07903 96.725329 160.80664 97.042969 C 161.41684 97.3145 162.03284 97.570717 162.65234 97.820312 C 162.65291 97.820539 162.65374 97.820086 162.6543 97.820312 C 165.13385 98.819228 167.67717 99.659798 170.27539 100.28711 C 171.05091 100.47435 171.83223 100.65283 172.59766 100.875 C 172.84312 100.9463 173.08714 101.01959 173.32812 101.10352 C 173.32948 101.10399 173.33067 101.105 173.33203 101.10547 C 173.60688 101.19917 173.87832 101.3016 174.14453 101.41992 C 175.04268 101.81911 175.90554 102.39332 176.4043 103.24023 C 176.5033 103.40836 176.57213 103.59121 176.63672 103.77539 C 176.65052 103.79279 176.66814 103.80662 176.68164 103.82422 C 176.78102 103.95402 176.8677 104.09222 176.95117 104.23242 C 177.01243 104.33865 177.06917 104.44819 177.12305 104.55859 C 177.12662 104.56592 177.13122 104.57274 177.13477 104.58008 C 177.34339 105.01168 177.49307 105.47298 177.57812 105.94531 C 177.58048 105.95838 177.58367 105.97129 177.58594 105.98438 C 177.72037 106.76068 177.70331 107.55757 177.60938 108.33984 C 177.42164 109.90439 176.93112 111.41947 176.73047 112.98242 C 176.57546 114.18988 176.58436 115.45563 176.05273 116.55078 C 175.98473 116.69094 175.90762 116.82687 175.82422 116.95703 C 175.74132 117.0869 175.65088 117.21186 175.55469 117.33203 C 174.96459 118.06928 174.142 118.62657 173.2793 119.0332 C 172.13475 119.57268 170.89974 119.88749 169.71289 120.32617 C 164.27405 122.33647 160.14733 126.78994 155.21094 129.83203 C 152.61402 131.4324 149.78555 132.64408 146.85938 133.50586 C 143.70191 134.43575 140.38638 134.96387 137.11133 134.63477 C 134.32248 134.35452 131.57773 133.43594 129.2832 131.82617 C 126.03382 129.54651 123.87997 126.06614 121.44727 122.92969 C 120.29162 121.43972 119.03747 120.00959 117.63477 118.75586 C 117.22881 118.39302 116.81368 118.04031 116.38086 117.71094 C 116.59629 117.78645 116.81362 117.88891 117.03125 118.00391 C 117.03179 118.00419 117.03266 118.00362 117.0332 118.00391 C 117.0342 118.00462 117.03611 118.00486 117.03711 118.00586 C 117.03914 118.00693 117.04094 118.00869 117.04297 118.00977 C 117.04493 118.01127 117.04698 118.01267 117.04883 118.01367 C 117.26493 118.1288 117.48084 118.2645 117.69727 118.41406 C 118.01376 118.63277 118.33009 118.87717 118.64258 119.1582 C 119.51594 119.94366 120.39629 120.94248 121.53516 121.86914 C 124.62615 124.38421 128.5787 125.35592 132.34961 125.41797 C 136.10053 125.47977 139.69608 124.70425 143.13477 123.92969 C 145.83475 123.32152 148.59704 122.67688 151.30664 121.67773 C 155.4709 120.1422 159.32607 117.82388 162.66406 114.91992 C 164.17639 113.60425 165.48298 112.29125 166.89844 111.40234 C 167.39609 111.08982 167.95787 110.80648 168.54492 110.51953 C 168.54614 110.51886 168.54755 110.51822 168.54883 110.51758 C 168.55725 110.51346 168.56578 110.50998 168.57422 110.50586 C 168.71026 110.43945 168.8575 110.36479 168.99609 110.29688 C 169.1304 110.23198 169.27313 110.1604 169.41016 110.09375 C 169.61626 109.99192 169.81271 109.89623 170.02539 109.78906 C 170.46962 109.56521 170.92095 109.32962 171.37695 109.06055 C 171.52322 108.97425 171.72819 108.85505 171.96289 108.66016 C 172.20087 108.46252 172.46459 108.19035 172.66211 107.79492 L 172.66211 107.79297 C 172.83877 107.43794 172.91317 107.08471 172.92383 106.74805 C 172.65028 106.70275 172.37626 106.65495 172.10352 106.60938 C 171.61378 106.52747 171.11194 106.4653 170.61523 106.46094 C 170.11853 106.45694 169.62697 106.51004 169.1543 106.66211 C 168.53411 106.86162 167.97541 107.22237 167.47266 107.63672 C 166.96991 108.05106 166.51752 108.52015 166.04883 108.97266 C 165.9132 109.1036 165.77096 109.22728 165.63281 109.35547 C 164.36454 110.53235 163.00029 111.60326 161.61328 112.63867 C 158.22729 115.16633 154.68485 117.55182 150.75391 119.10156 C 148.18705 120.11353 145.48893 120.75468 142.7832 121.29492 C 139.37849 121.97472 135.91661 122.50283 132.44727 122.36914 C 128.97793 122.23546 125.47928 121.41042 122.54492 119.55469 C 121.21687 118.71481 120.02281 117.67814 118.72852 116.78711 C 118.55422 116.66712 118.37084 116.55748 118.19141 116.44336 C 118.18441 116.43836 118.17712 116.43439 118.16992 116.42969 C 118.16303 116.42532 118.15534 116.42232 118.14844 116.41797 C 117.91151 116.26834 117.67144 116.1269 117.42578 115.99219 C 117.42245 115.99036 117.41935 115.98815 117.41602 115.98633 C 117.32262 115.93523 117.22748 115.88833 117.13281 115.83984 C 116.92332 115.73262 116.71351 115.6291 116.49805 115.53711 C 116.33202 115.46621 116.16169 115.40792 115.99219 115.34766 C 115.81594 115.28499 115.64283 115.21373 115.46289 115.16406 C 115.44932 115.1605 115.43549 115.15772 115.42188 115.1543 C 115.4049 115.14972 115.3881 115.14508 115.37109 115.14062 C 115.36912 115.1401 115.36721 115.13919 115.36523 115.13867 C 115.05996 115.05896 114.7511 114.99486 114.43555 114.95898 C 114.08966 114.91968 113.73942 114.90998 113.39844 114.83984 C 113.24868 114.80904 113.10197 114.75954 112.96094 114.69922 C 112.97604 114.89957 113.00554 115.10995 113.06641 115.33203 C 113.07341 115.35933 113.09131 115.38666 113.09961 115.41406 C 112.88236 115.2026 112.6844 114.97482 112.5293 114.71484 C 112.39825 114.49519 112.30588 114.2559 112.23633 114.00977 C 112.21083 113.95407 112.18101 113.89995 112.16211 113.8418 C 112.09691 113.64183 112.06916 113.43105 112.06836 113.2207 C 112.06636 112.80002 112.16756 112.38675 112.25195 111.97461 C 112.47718 110.87447 112.59767 109.74815 112.95508 108.68359 C 113.29605 107.66801 113.8419 106.73784 114.47461 105.86914 C 114.68538 105.57969 114.90528 105.29809 115.13086 105.02148 C 115.45064 104.62938 115.78845 104.25315 116.13281 103.88281 C 116.28828 103.71391 116.44555 103.54748 116.60547 103.38281 C 116.60901 103.37917 116.61169 103.37474 116.61523 103.37109 C 116.63431 103.35172 116.65411 103.33313 116.67383 103.31445 C 116.69349 103.29437 116.71465 103.27587 116.73438 103.25586 C 117.24877 102.73394 117.78638 102.2375 118.34375 101.76172 C 119.08029 101.13299 119.84133 100.53278 120.64453 99.992188 C 121.43452 99.06344 122.28826 98.190379 123.1875 97.367188 C 123.63908 96.953794 124.10582 96.55632 124.58203 96.171875 C 124.6144 96.145746 124.64526 96.117789 124.67773 96.091797 C 125.15538 95.709494 125.64627 95.344383 126.14648 94.992188 C 126.17431 94.972599 126.20063 94.951135 126.22852 94.931641 C 126.75456 94.563933 127.29122 94.212161 127.83984 93.878906 C 128.39295 93.542929 128.95745 93.225439 129.53125 92.925781 C 129.53142 92.925167 129.53108 92.924442 129.53125 92.923828 C 130.34096 92.501 131.17026 92.117474 132.01562 91.771484 C 132.01616 91.770754 132.01705 91.770262 132.01758 91.769531 C 132.50398 91.570506 132.99175 91.375567 133.48828 91.203125 C 135.58073 90.476428 137.77815 89.991188 139.98828 89.822266 C 140.72499 89.765958 141.46309 89.745042 142.19922 89.761719 z M 145.54102 93.296875 C 145.08117 93.320355 144.65117 93.414311 144.26172 93.630859 C 144.02374 93.763149 143.76082 94.083799 143.8418 94.34375 C 143.87021 94.434951 143.91577 94.511 143.96875 94.580078 C 143.9842 94.600219 144.00226 94.618223 144.01953 94.636719 C 144.05076 94.670126 144.08638 94.699983 144.12305 94.728516 C 144.22437 94.807375 144.33764 94.875109 144.4707 94.925781 C 144.47127 94.925996 144.47209 94.925567 144.47266 94.925781 C 144.60785 94.977135 144.75923 95.014575 144.91211 95.050781 C 145.07239 95.08873 145.23579 95.12511 145.39844 95.162109 C 145.42337 95.167785 145.4479 95.173815 145.47266 95.179688 C 145.47327 95.179833 145.474 95.179542 145.47461 95.179688 C 145.70153 95.23358 145.92049 95.297301 146.10547 95.392578 C 146.75654 95.727932 147.28162 96.46129 148.01367 96.482422 C 148.71232 96.502552 149.8095 96.232108 149.90039 95.539062 C 150.02047 94.623502 148.68651 94.050264 147.82617 93.714844 C 147.13424 93.445032 146.30743 93.257966 145.54102 93.296875 z M 131.20117 93.863281 C 130.73444 93.926306 130.21352 94.303681 129.86523 94.759766 C 129.69109 94.987808 129.55923 95.235006 129.5 95.472656 C 129.44077 95.710307 129.45385 95.938799 129.56641 96.126953 C 129.70774 96.363222 130.13436 96.664102 130.42578 96.503906 C 130.86503 96.26247 131.22914 95.395146 131.70508 95.056641 C 132.02287 94.830634 131.94903 94.003295 131.57812 93.882812 C 131.45898 93.843902 131.33451 93.845172 131.20117 93.863281 z M 120.17188 98.669922 L 120.59766 98.958984 C 120.58626 98.967984 120.57575 98.978881 120.56445 98.988281 L 120.17188 98.669922 z M 176.96875 120.11133 C 177.87741 122.12164 178.64328 124.19457 179.5 126.22852 C 179.92801 127.24465 180.38612 128.24712 180.85547 129.24414 C 180.99673 129.54522 181.13723 129.84667 181.28125 130.14648 C 181.38555 130.36277 181.49402 130.57727 181.59961 130.79297 C 183.08568 133.84172 184.67901 136.84131 186.17969 139.88477 C 186.61467 140.76693 187.05788 141.64554 187.46875 142.53906 C 190.97354 150.16091 193.38363 158.28439 194.60547 166.58398 C 199.19394 171.3217 203.02091 176.79495 205.89258 182.73242 C 214.23367 199.97848 214.16036 220.07166 211.88867 239.09375 C 211.82797 239.60181 211.75276 240.11209 211.6875 240.62109 C 210.45994 240.44609 209.21899 240.27113 208.05078 240.09961 C 206.94937 239.93789 205.66102 239.71479 204.1875 239.66211 C 203.69633 239.64451 203.18461 239.64728 202.65234 239.67578 C 200.47061 239.79231 197.98507 240.39274 195.86719 242.2168 C 193.59633 244.17261 192.63922 246.76233 192.28125 249.0918 C 191.93309 251.35717 192.12408 253.32167 192.23438 254.92383 C 192.8656 264.09115 192.90694 273.25442 192.01172 282.27734 C 191.7484 282.53402 191.48847 282.79517 191.22461 283.05078 C 184.43746 289.62584 177.3982 296.12451 169.05859 300.56836 C 154.45717 308.34889 136.42631 308.99262 121.03516 302.93555 C 119.64222 300.05634 117.90317 297.44426 116.10352 295.04297 C 114.15813 292.44721 112.14564 290.07456 110.25781 287.75195 C 111.4843 287.65855 112.69596 287.38454 113.82031 286.89062 C 115.3139 286.23453 116.64784 285.17947 117.53516 283.81055 C 118.62612 282.12746 118.99633 280.03672 118.77734 278.04297 C 118.55835 276.04922 117.77996 274.14643 116.73633 272.43359 C 114.18703 268.24957 110.16042 265.22307 106.28711 262.22266 C 99.329258 256.83286 92.57492 251.18113 86.039062 245.28711 C 84.71884 244.09661 83.39465 242.91087 82.09375 241.69922 C 81.286876 240.9477 80.490838 240.17802 79.716797 239.38867 C 79.704557 239.37617 79.691918 239.36406 79.679688 239.35156 L 79.679688 239.34961 C 78.371353 238.01192 77.147646 236.60006 76.193359 234.99609 C 74.706111 232.49633 73.903617 229.64838 73.359375 226.79102 C 71.866344 218.95237 72.248818 210.70225 74.916016 203.18164 C 75.959453 200.2395 77.337871 197.43157 78.667969 194.60742 C 80.973382 189.71242 83.155946 184.72389 86.1875 180.24219 C 86.383761 179.95204 86.596148 179.67254 86.798828 179.38672 C 85.023668 184.62545 83.18355 189.8438 80.990234 194.91992 C 79.650818 198.01981 78.180111 201.06825 77.048828 204.25 C 74.453514 211.54937 73.717153 219.60971 75.681641 227.10352 C 76.470521 230.11281 77.683674 233.00913 79.269531 235.68555 C 79.370132 235.85533 79.482551 236.01756 79.585938 236.18555 C 79.540828 232.76604 79.684898 229.34447 80.017578 225.94531 C 81.146578 214.40979 84.358499 203.11808 89.037109 192.51367 C 92.124093 185.5168 95.849927 178.80174 100.1543 172.48047 C 99.741228 168.48879 100.1226 164.41727 101.27148 160.57227 C 103.16856 154.2234 107.05521 148.6855 110.90039 143.28906 C 111.79495 142.03362 112.69253 140.76344 113.51758 139.45508 C 113.81066 138.99031 114.09163 138.51905 114.36133 138.04297 C 114.38753 137.99677 114.41355 137.95057 114.43945 137.9043 C 114.6636 137.50362 114.87598 137.09789 115.07812 136.6875 C 115.13882 136.56472 115.19938 136.44209 115.25781 136.31836 C 115.42513 135.96301 115.57957 135.60211 115.72656 135.23828 C 115.78546 135.09297 115.84901 134.94951 115.9043 134.80273 C 116.09102 134.30577 116.26108 133.80222 116.40234 133.28711 C 117.34892 129.83549 117.13052 126.18972 117.26758 122.61328 C 117.26943 122.56506 117.27535 122.51698 117.27734 122.46875 C 118.31881 123.42835 119.3114 124.44104 120.24414 125.50586 C 122.64878 128.25102 124.878 131.65853 128.40234 133.98242 C 130.9876 135.68709 133.98848 136.56111 136.9707 136.82617 C 140.49092 137.13906 143.97897 136.62319 147.27539 135.73633 C 150.29676 134.92346 153.25578 133.77419 156.00781 132.19727 C 161.18257 129.23212 165.29146 125.1402 170.19727 123.57812 C 171.27245 123.23579 172.55285 122.98297 173.89453 122.41406 C 174.56691 122.12897 175.25121 121.75989 175.88281 121.25 C 176.28085 120.92866 176.64729 120.54494 176.96875 120.11133 z M 206.45117 169.85156 C 210.83724 172.2441 215.41707 174.34243 219.41602 177.30078 C 226.35571 182.43463 231.2554 190.21002 232.65039 198.63281 C 233.75972 205.33075 233.99697 210.93847 231.87109 218.73242 C 230.50203 223.75176 228.73008 228.62459 226.92773 233.48828 C 226.83183 233.49528 226.73638 233.50898 226.64062 233.51758 C 227.02193 233.48278 227.40348 233.45587 227.78711 233.45117 C 229.3186 233.43237 230.86467 233.63167 232.37891 233.88867 C 234.71067 234.28444 237.01733 234.81535 239.3418 235.25195 C 239.74182 235.32705 240.14345 235.3996 240.54492 235.47266 C 238.23694 235.34173 235.92339 235.31671 233.61328 235.40234 C 231.99876 235.46214 230.38583 235.57494 228.77734 235.72656 C 226.47136 235.94394 224.12855 236.25488 222.03516 237.24609 C 220.36951 238.03477 218.93051 239.22228 217.35938 240.18555 C 217.02318 240.39167 216.68011 240.58611 216.33203 240.77148 C 217.15166 239.28266 218.17869 237.90734 219.43164 236.76172 C 221.00064 235.32709 222.91582 234.25431 224.98633 233.77344 C 228.94753 222.66772 232.44215 211.11199 230.6582 199.5625 C 229.39186 191.36404 225.30873 183.47816 218.77539 178.22656 C 214.90693 175.11703 210.30378 172.97494 206.45117 169.85156 z M 226.24609 233.55859 C 225.84669 233.60649 225.44923 233.66688 225.05469 233.75586 C 225.44865 233.66696 225.84709 233.60715 226.24609 233.55859 z M 65.478516 236.83789 L 65.480469 236.83789 C 65.942396 236.86189 66.401459 236.91629 66.855469 237 C 68.671509 237.33491 70.388534 238.11847 71.916016 239.15625 C 74.970971 241.2318 77.236196 244.25362 79.40625 247.24219 C 84.389602 254.10519 89.187214 261.11041 93.535156 268.39258 C 97.061932 274.29942 100.30162 280.40075 104.37695 285.94336 C 104.71002 286.39635 105.05992 286.83543 105.40234 287.28125 C 107.79496 290.39644 110.37206 293.3707 112.71094 296.52734 C 113.61157 297.74288 114.47153 298.99735 115.26953 300.28711 C 116.02309 301.5051 116.71299 302.75863 117.31836 304.04883 C 117.38366 304.18853 117.44461 304.3301 117.50781 304.4707 C 117.7232 304.94818 117.92434 305.43179 118.11328 305.91992 C 118.19988 306.14442 118.29048 306.36696 118.37109 306.59375 C 118.41459 306.71562 118.45639 306.83839 118.49805 306.96094 C 118.65736 307.43106 118.80804 307.90462 118.93945 308.38477 C 119.07086 308.86491 119.18103 309.35041 119.28125 309.83789 C 119.30585 309.95753 119.32886 310.07725 119.35156 310.19727 C 119.44406 310.68584 119.5264 311.17647 119.58789 311.66992 C 119.58854 311.67492 119.58884 311.68035 119.58984 311.68555 C 119.59184 311.70235 119.59175 311.71943 119.59375 311.73633 C 119.64495 312.15709 119.67825 312.57903 119.70703 313.00195 C 119.74043 313.48905 119.75411 313.97661 119.75781 314.46484 C 119.75881 314.63348 119.76968 314.80208 119.76758 314.9707 C 119.75958 315.60223 119.72208 316.23256 119.66406 316.86133 C 119.61646 317.37494 119.55709 317.88714 119.47656 318.39648 C 119.38906 318.94995 119.28247 319.50115 119.15625 320.04688 L 119.15625 320.04883 C 119.03286 320.58208 118.88874 321.10962 118.72852 321.63281 C 118.33121 322.92973 117.82662 324.19379 117.20312 325.40039 C 115.31875 329.04728 112.42779 332.17578 108.91211 334.29492 C 105.39643 336.41407 101.2642 337.51126 97.162109 337.35742 C 90.64037 337.11283 84.682264 333.85234 78.619141 331.4375 C 66.266107 326.5175 52.849847 324.97441 40.117188 321.14258 C 36.204017 319.96493 32.356346 318.57158 28.416016 317.48828 C 26.665346 317.00698 24.885842 316.5841 23.232422 315.83398 C 21.578992 315.08385 20.032921 313.96783 19.113281 312.40234 C 18.402461 311.19232 18.101684 309.76845 18.121094 308.36523 C 18.140494 306.96201 18.469486 305.57538 18.947266 304.25586 C 19.902846 301.61683 21.446251 299.22915 22.488281 296.62305 C 24.189731 292.36775 24.495085 287.67476 24.265625 283.09766 C 24.036175 278.52056 23.293809 273.98229 22.980469 269.41016 C 22.840549 267.36849 22.787914 265.30196 23.177734 263.29297 C 23.567544 261.28398 24.43218 259.31993 25.90625 257.90039 C 27.26525 256.59166 29.069076 255.81497 30.916016 255.42969 C 32.762966 255.04441 34.666514 255.02586 36.552734 255.06836 C 38.438954 255.11086 40.328614 255.21331 42.208984 255.05859 C 44.089344 254.90404 45.977224 254.48116 47.615234 253.54492 C 49.172524 252.65482 50.446593 251.33125 51.501953 249.88086 C 52.557323 248.43047 53.410666 246.84542 54.285156 245.2793 C 54.907077 244.1655 55.549402 243.05735 56.277344 242.01172 C 56.57274 241.58753 56.878693 241.16991 57.208984 240.77148 C 58.353774 239.39058 59.759016 238.18687 61.416016 237.5 C 61.700819 237.38194 61.993856 237.28547 62.289062 237.19922 C 62.362383 237.17782 62.435923 237.15622 62.509766 237.13672 C 62.806251 237.05842 63.10502 236.9914 63.408203 236.94336 C 63.682538 236.89986 63.960736 236.87702 64.238281 236.85742 C 64.650697 236.82832 65.064911 236.81629 65.478516 236.83789 z M 204.23438 242.61719 C 205.36766 242.65969 206.49842 242.83566 207.62305 243 C 208.84851 243.17907 210.0761 243.35491 211.30273 243.5332 C 211.31453 243.5352 211.32609 243.53706 211.33789 243.53906 C 212.46774 243.70351 213.59509 243.88049 214.7168 244.08398 C 214.7792 244.09538 214.84193 244.10559 214.9043 244.11719 C 213.98895 246.98853 213.71233 250.06226 213.95117 253.07422 C 214.17391 255.88301 214.88341 258.77824 216.73242 260.9043 C 218.22645 262.62219 220.3462 263.6938 222.5293 264.33984 C 226.28931 265.45255 230.38662 265.39359 234.11328 264.17383 C 240.26463 262.11396 245.71542 258.01462 249.40039 252.67578 C 250.51445 251.06172 251.47303 249.31164 251.98828 247.42383 C 252.14598 247.18147 252.29053 246.93067 252.44141 246.68359 C 252.51971 246.70729 252.59971 246.7254 252.67773 246.75 C 254.29415 247.25957 255.8863 247.98841 257.07422 249.19727 C 257.97703 250.11599 258.60568 251.27241 259.07812 252.4707 C 259.78193 254.25579 260.16197 256.15837 260.32422 258.07031 C 260.46795 259.76405 260.44473 261.47724 260.76562 263.14648 C 261.29366 265.8927 262.73621 268.39695 264.5293 270.54297 C 266.32238 272.68898 268.46511 274.51266 270.60547 276.3125 C 272.73782 278.1056 274.88335 279.89094 277.18359 281.46289 C 278.26317 282.20065 279.37734 282.89126 280.40234 283.70312 C 281.42735 284.515 282.3709 285.45982 283.01172 286.59961 C 283.88097 288.14568 284.14631 290.02149 283.74023 291.74805 L 283.73828 291.74805 C 283.02212 293.5817 282.00456 295.29717 280.73633 296.80273 C 277.93761 300.12521 274.05007 302.31631 270.17969 304.28906 C 263.57851 307.65372 256.73706 310.60654 250.53125 314.6543 C 246.37336 317.36629 242.53581 320.54847 238.94727 323.97852 C 235.87826 326.91198 232.96715 330.04564 229.52539 332.53125 C 226.05268 335.03922 222.03896 336.85652 217.80273 337.49219 C 212.65046 338.26532 207.32693 337.26495 202.55078 335.18359 C 199.20407 333.72516 195.98445 331.63923 194.05664 328.53906 C 193.62745 327.84887 193.28201 327.12069 192.98828 326.37109 C 192.98753 326.36909 192.98733 326.36723 192.98633 326.36523 C 192.87365 326.0774 192.77302 325.78486 192.67773 325.49023 C 192.65403 325.41673 192.63002 325.34343 192.60742 325.26953 C 192.51842 324.98037 192.43716 324.68897 192.36328 324.39453 C 192.34698 324.32903 192.33201 324.26296 192.31641 324.19727 C 192.16293 323.55563 192.03949 322.90452 191.94727 322.24609 C 191.85287 321.57201 191.79095 320.89037 191.74805 320.20898 C 191.74205 320.11978 191.73907 320.03062 191.73438 319.94141 C 191.69827 319.2774 191.67668 318.61302 191.67578 317.95312 C 191.66678 311.47136 192.86908 305.05813 194 298.67578 C 194.9397 293.37256 195.83347 288.05604 196.41016 282.70117 C 196.51454 281.73191 196.6033 280.76217 196.68359 279.79102 C 196.75399 278.97585 196.81279 278.15994 196.86914 277.34375 C 197.42022 269.3621 197.32396 261.33625 196.75195 253.35352 C 196.63469 251.71708 196.49758 250.06567 196.74219 248.44336 C 196.98669 246.82104 197.65477 245.20285 198.89844 244.13281 C 200.04719 243.14444 201.5865 242.70875 203.09961 242.625 C 203.47789 242.6041 203.8566 242.60319 204.23438 242.61719 z "
       transform="translate(-170.66667,61.186329)"
       id="path1726" />
  </g>
</svg>
