<?xml version="1.0" encoding="UTF-8" standalone="no"?>
<svg
   xmlns:dc="http://purl.org/dc/elements/1.1/"
   xmlns:cc="http://creativecommons.org/ns#"
   xmlns:rdf="http://www.w3.org/1999/02/22-rdf-syntax-ns#"
   xmlns:svg="http://www.w3.org/2000/svg"
   xmlns="http://www.w3.org/2000/svg"
   xmlns:xlink="http://www.w3.org/1999/xlink"
   xmlns:sodipodi="http://sodipodi.sourceforge.net/DTD/sodipodi-0.dtd"
   xmlns:inkscape="http://www.inkscape.org/namespaces/inkscape"
   width="252.64874"
   height="298.81845"
   id="svg27450"
   version="1.1"
   inkscape:version="1.1-dev (79c9cd5f54, 2020-05-04)"
   sodipodi:docname="tux-bw.svg"
   inkscape:export-filename="./tux-large.png"
   inkscape:export-xdpi="300"
   inkscape:export-ydpi="300">
  <title
     id="title20046">Tux</title>
  <sodipodi:namedview
     id="base"
     pagecolor="#ffffff"
     bordercolor="#666666"
     borderopacity="0.41176471"
     inkscape:pageopacity="0.0"
     inkscape:pageshadow="2"
     inkscape:zoom="2"
     inkscape:cx="133.59048"
     inkscape:cy="134.10197"
     inkscape:document-units="px"
     inkscape:current-layer="layer2"
     showgrid="false"
     inkscape:window-width="1920"
     inkscape:window-height="1049"
     inkscape:window-x="0"
     inkscape:window-y="31"
     inkscape:window-maximized="0"
     fit-margin-top="0"
     fit-margin-left="0"
     fit-margin-right="0"
     fit-margin-bottom="0"
     showguides="true"
     inkscape:guide-bbox="true"
     inkscape:showpageshadow="false"
     showborder="true" />
  <defs
     id="defs27452">
    <inkscape:path-effect
       lpeversion="0"
       effect="spiro"
       id="path-effect826"
       is_visible="true" />
    <inkscape:path-effect
       lpeversion="0"
       effect="spiro"
       id="path-effect408"
       is_visible="true" />
    <inkscape:path-effect
       lpeversion="0"
       effect="spiro"
       id="path-effect396"
       is_visible="true" />
    <linearGradient
       id="linearGradient28799-4">
      <stop
         id="stop28801-13"
         offset="0"
         style="stop-color:#fefefc;stop-opacity:1;" />
      <stop
         style="stop-color:#fefefc;stop-opacity:1"
         offset="0.75733864"
         id="stop28807-8" />
      <stop
         id="stop28803-8"
         offset="1"
         style="stop-color:#d4d4d4;stop-opacity:1" />
    </linearGradient>
    <linearGradient
       id="linearGradient28799-5-4">
      <stop
         id="stop28801-1-2"
         offset="0"
         style="stop-color:#fefefc;stop-opacity:1;" />
      <stop
         style="stop-color:#fefefc;stop-opacity:1"
         offset="0.75733864"
         id="stop28807-2-5" />
      <stop
         id="stop28803-6-6"
         offset="1"
         style="stop-color:#d4d4d4;stop-opacity:1" />
    </linearGradient>
    <clipPath
       clipPathUnits="userSpaceOnUse"
       id="clipPath14186-9">
      <path
         sodipodi:nodetypes="ssssssssssssssss"
         inkscape:connector-curvature="0"
         id="path14188-1"
         d="m 137.57703,281.0191 c 1.59929,-0.66295 3.3982,-0.78361 5.10074,-0.46963 1.70253,0.31398 3.31141,1.04948 4.74342,2.02239 2.86402,1.94583 4.98821,4.77774 7.02263,7.57952 4.67189,6.43406 9.16868,13.00227 13.24488,19.8293 3.30635,5.53766 6.34352,11.25685 10.16415,16.45304 2.49398,3.3919 5.3066,6.53947 7.813,9.92221 2.50639,3.38273 4.72794,7.05586 5.83931,11.11662 1.44411,5.27653 0.88463,11.09291 -1.62666,15.95302 -1.76663,3.41896 -4.47646,6.35228 -7.77242,8.33898 -3.29595,1.9867 -7.17064,3.01444 -11.01635,2.87021 -6.11413,-0.2293 -11.69944,-3.28515 -17.38362,-5.54906 -11.58097,-4.6125 -24.15978,-6.0594 -36.09666,-9.65174 -3.66859,-1.10404 -7.27582,-2.4107 -10.96988,-3.42629 -1.64125,-0.45122 -3.30866,-0.8482 -4.85875,-1.55144 -1.55008,-0.70325 -2.999548,-1.7491 -3.86171,-3.21675 -0.666391,-1.13439 -0.948386,-2.47002 -0.930187,-3.78554 0.0182,-1.31552 0.325889,-2.61453 0.773815,-3.85158 0.895851,-2.47409 2.343262,-4.71374 3.320162,-7.15696 1.59511,-3.98935 1.88169,-8.38839 1.66657,-12.67942 -0.21511,-4.29103 -0.91078,-8.54478 -1.20454,-12.83115 -0.13118,-1.91406 -0.18066,-3.85256 0.18479,-5.73598 0.36545,-1.88343 1.17577,-3.72459 2.55771,-5.05541 1.27406,-1.22693 2.96492,-1.95531 4.69643,-2.31651 1.73151,-0.3612 3.51533,-0.37747 5.28367,-0.33762 1.76833,0.0399 3.54067,0.13425 5.30351,-0.0106 1.76284,-0.14488 3.53347,-0.54055 5.06911,-1.41828 1.45996,-0.83447 2.65433,-2.0745 3.64374,-3.43424 0.9894,-1.35974 1.78909,-2.84573 2.60891,-4.31396 0.81983,-1.46823 1.66834,-2.93151 2.74157,-4.22611 1.07324,-1.2946 2.38923,-2.42304 3.94266,-3.06698"
         style="fill:#402c07;fill-opacity:1;stroke:none" />
    </clipPath>
    <linearGradient
       inkscape:collect="always"
       id="linearGradient14132-6">
      <stop
         style="stop-color:#b98309;stop-opacity:1"
         offset="0"
         id="stop14134-2" />
      <stop
         style="stop-color:#382605;stop-opacity:1"
         offset="1"
         id="stop14136-2" />
    </linearGradient>
    <inkscape:path-effect
       lpeversion="0"
       is_visible="true"
       id="path-effect4669-1"
       effect="spiro" />
    <inkscape:path-effect
       lpeversion="0"
       is_visible="true"
       id="path-effect4669-4-3"
       effect="spiro" />
    <inkscape:path-effect
       lpeversion="0"
       effect="spiro"
       id="path-effect14972-2-2"
       is_visible="true" />
    <inkscape:path-effect
       lpeversion="0"
       effect="spiro"
       id="path-effect15017-9"
       is_visible="true" />
    <inkscape:path-effect
       lpeversion="0"
       is_visible="true"
       id="path-effect29716-6-1"
       effect="spiro" />
    <linearGradient
       id="linearGradient14830-4"
       inkscape:collect="always">
      <stop
         id="stop14832-6"
         offset="0"
         style="stop-color:#7c7c7c;stop-opacity:1;" />
      <stop
         id="stop14834-5"
         offset="1"
         style="stop-color:#7c7c7c;stop-opacity:0.32941177" />
    </linearGradient>
    <linearGradient
       id="linearGradient14518-6">
      <stop
         id="stop14540-0"
         offset="0"
         style="stop-color:#110800;stop-opacity:1;" />
      <stop
         style="stop-color:#a65a00;stop-opacity:0.80000001;"
         offset="0.59066743"
         id="stop14542-5" />
      <stop
         style="stop-color:#ff921e;stop-opacity:0;"
         offset="1"
         id="stop14522-4" />
    </linearGradient>
    <inkscape:path-effect
       lpeversion="0"
       is_visible="true"
       id="path-effect29716-0-0"
       effect="spiro" />
    <linearGradient
       id="linearGradient14518-2-2">
      <stop
         id="stop14540-5-0"
         offset="0"
         style="stop-color:#110800;stop-opacity:1;" />
      <stop
         style="stop-color:#a65a00;stop-opacity:0.80000001;"
         offset="0.59066743"
         id="stop14542-2-7" />
      <stop
         style="stop-color:#ff921e;stop-opacity:0;"
         offset="1"
         id="stop14522-2-1" />
    </linearGradient>
    <inkscape:path-effect
       lpeversion="0"
       is_visible="true"
       id="path-effect29716-0-8-3"
       effect="spiro" />
    <linearGradient
       inkscape:collect="always"
       id="linearGradient14392-8">
      <stop
         style="stop-color:#3e2a06;stop-opacity:1"
         offset="0"
         id="stop14394-3" />
      <stop
         style="stop-color:#ad780a;stop-opacity:1"
         offset="1"
         id="stop14396-0" />
    </linearGradient>
    <inkscape:path-effect
       lpeversion="0"
       effect="spiro"
       id="path-effect14300-7"
       is_visible="true" />
    <inkscape:path-effect
       lpeversion="0"
       effect="spiro"
       id="path-effect14300-2-7"
       is_visible="true" />
    <inkscape:path-effect
       lpeversion="0"
       effect="spiro"
       id="path-effect14300-2-2-0"
       is_visible="true" />
    <inkscape:path-effect
       lpeversion="0"
       is_visible="true"
       id="path-effect4582-3"
       effect="spiro" />
    <inkscape:path-effect
       lpeversion="0"
       is_visible="true"
       id="path-effect4500-7"
       effect="spiro" />
    <inkscape:path-effect
       lpeversion="0"
       is_visible="true"
       id="path-effect29707-7-6"
       effect="spiro" />
    <inkscape:path-effect
       lpeversion="0"
       is_visible="true"
       id="path-effect29553-7"
       effect="spiro" />
    <linearGradient
       id="linearGradient28469-0">
      <stop
         style="stop-color:#d2940a;stop-opacity:1"
         offset="0"
         id="stop28479-4" />
      <stop
         style="stop-color:#d89c08;stop-opacity:1"
         offset="0.75143719"
         id="stop28477-2" />
      <stop
         id="stop28485-7"
         offset="0.86579126"
         style="stop-color:#b67e07;stop-opacity:1;" />
      <stop
         id="stop28473-1"
         offset="1"
         style="stop-color:#946106;stop-opacity:1" />
    </linearGradient>
    <inkscape:path-effect
       lpeversion="0"
       is_visible="true"
       id="path-effect28463-4"
       effect="spiro" />
    <inkscape:path-effect
       lpeversion="0"
       is_visible="true"
       id="path-effect28489-4"
       effect="spiro" />
    <inkscape:path-effect
       lpeversion="0"
       is_visible="true"
       id="path-effect28273-54-7"
       effect="spiro" />
    <linearGradient
       id="linearGradient28275-8">
      <stop
         id="stop28277-1"
         offset="0"
         style="stop-color:#ad780a;stop-opacity:1" />
      <stop
         style="stop-color:#d89e08;stop-opacity:1"
         offset="0.11972899"
         id="stop28291-9" />
      <stop
         style="stop-color:#edb80b;stop-opacity:1"
         offset="0.25514477"
         id="stop28289-6" />
      <stop
         style="stop-color:#ebc80d;stop-opacity:1"
         offset="0.39194193"
         id="stop28287-6" />
      <stop
         style="stop-color:#f5d838;stop-opacity:1"
         offset="0.52741116"
         id="stop28285-7" />
      <stop
         style="stop-color:#f6d811;stop-opacity:1"
         offset="0.76906693"
         id="stop28283-7" />
      <stop
         id="stop28279-5"
         offset="1"
         style="stop-color:#f5cd31;stop-opacity:1" />
    </linearGradient>
    <inkscape:path-effect
       lpeversion="0"
       is_visible="true"
       id="path-effect28273-44"
       effect="spiro" />
    <inkscape:path-effect
       lpeversion="0"
       is_visible="true"
       id="path-effect28384-7"
       effect="spiro" />
    <linearGradient
       id="linearGradient29529-6">
      <stop
         id="stop29531-0"
         offset="0"
         style="stop-color:#3a2903;stop-opacity:1;" />
      <stop
         style="stop-color:#735208;stop-opacity:1"
         offset="0.55472803"
         id="stop29539-7" />
      <stop
         id="stop29533-8"
         offset="1"
         style="stop-color:#ac8c04;stop-opacity:1" />
    </linearGradient>
    <inkscape:path-effect
       lpeversion="0"
       is_visible="true"
       id="path-effect29455-3"
       effect="spiro" />
    <linearGradient
       id="linearGradient29477-3">
      <stop
         id="stop29479-5"
         offset="0"
         style="stop-color:#757574;stop-opacity:0" />
      <stop
         style="stop-color:#757574;stop-opacity:1;"
         offset="0.26291031"
         id="stop29487-5" />
      <stop
         style="stop-color:#757574;stop-opacity:1;"
         offset="0.5"
         id="stop29485-0" />
      <stop
         id="stop29481-3"
         offset="1"
         style="stop-color:#757574;stop-opacity:0" />
    </linearGradient>
    <linearGradient
       id="linearGradient29336-6">
      <stop
         id="stop29338-1"
         offset="0"
         style="stop-color:#646464;stop-opacity:0" />
      <stop
         style="stop-color:#646464;stop-opacity:0.5825243"
         offset="0.30628255"
         id="stop29344-7" />
      <stop
         id="stop29354-5"
         offset="0.47000006"
         style="stop-color:#646464;stop-opacity:1" />
      <stop
         style="stop-color:#646464;stop-opacity:0.25728154"
         offset="0.72834015"
         id="stop29356-3" />
      <stop
         id="stop29340-6"
         offset="1"
         style="stop-color:#646464;stop-opacity:0;" />
    </linearGradient>
    <linearGradient
       id="linearGradient28976-3">
      <stop
         id="stop28978-7"
         offset="0"
         style="stop-color:#747474;stop-opacity:1" />
      <stop
         style="stop-color:#8c8c8c;stop-opacity:1;"
         offset="0.125"
         id="stop29259-5" />
      <stop
         style="stop-color:#a4a4a4;stop-opacity:1;"
         offset="0.25"
         id="stop29257-0" />
      <stop
         style="stop-color:#d4d4d4;stop-opacity:1"
         offset="0.5"
         id="stop28984-4" />
      <stop
         id="stop28986-0"
         offset="0.61919296"
         style="stop-color:#d4d4d4;stop-opacity:1" />
      <stop
         id="stop28980-2"
         offset="1"
         style="stop-color:#7c7c7c;stop-opacity:1" />
    </linearGradient>
    <inkscape:path-effect
       lpeversion="0"
       is_visible="true"
       id="path-effect28974-8"
       effect="spiro" />
    <inkscape:path-effect
       lpeversion="0"
       is_visible="true"
       id="path-effect28881-6"
       effect="spiro" />
    <linearGradient
       id="linearGradient28935-8">
      <stop
         id="stop28937-7"
         offset="0"
         style="stop-color:#949494;stop-opacity:0.39215687;" />
      <stop
         style="stop-color:#949494;stop-opacity:1;"
         offset="0.5"
         id="stop28943-3" />
      <stop
         id="stop28939-8"
         offset="1"
         style="stop-color:#949494;stop-opacity:0.39215687;" />
    </linearGradient>
    <linearGradient
       id="linearGradient28853-5">
      <stop
         id="stop28855-3"
         offset="0"
         style="stop-color:#020204;stop-opacity:1" />
      <stop
         style="stop-color:#020204;stop-opacity:1"
         offset="0.73448181"
         id="stop28865-0" />
      <stop
         id="stop28857-9"
         offset="1"
         style="stop-color:#5c5c5c;stop-opacity:1;" />
    </linearGradient>
    <inkscape:path-effect
       lpeversion="0"
       is_visible="true"
       id="path-effect28851-0"
       effect="spiro" />
    <inkscape:path-effect
       lpeversion="0"
       is_visible="true"
       id="path-effect28273-4-2"
       effect="spiro" />
    <linearGradient
       id="linearGradient28799-3">
      <stop
         id="stop28801-6"
         offset="0"
         style="stop-color:#fefefc;stop-opacity:1;" />
      <stop
         style="stop-color:#fefefc;stop-opacity:1"
         offset="0.75733864"
         id="stop28807-7" />
      <stop
         id="stop28803-0"
         offset="1"
         style="stop-color:#d4d4d4;stop-opacity:1" />
    </linearGradient>
    <inkscape:path-effect
       lpeversion="0"
       is_visible="true"
       id="path-effect28797-81"
       effect="spiro" />
    <linearGradient
       id="linearGradient28799-5-5">
      <stop
         id="stop28801-1-9"
         offset="0"
         style="stop-color:#fefefc;stop-opacity:1;" />
      <stop
         style="stop-color:#fefefc;stop-opacity:1"
         offset="0.75733864"
         id="stop28807-2-6" />
      <stop
         id="stop28803-6-3"
         offset="1"
         style="stop-color:#d4d4d4;stop-opacity:1" />
    </linearGradient>
    <inkscape:path-effect
       lpeversion="0"
       is_visible="true"
       id="path-effect28797-8-1"
       effect="spiro" />
    <inkscape:path-effect
       lpeversion="0"
       is_visible="true"
       id="path-effect28463-0-7"
       effect="spiro" />
    <inkscape:path-effect
       lpeversion="0"
       is_visible="true"
       id="path-effect28463-8-0"
       effect="spiro" />
    <inkscape:path-effect
       lpeversion="0"
       is_visible="true"
       id="path-effect29721-2"
       effect="spiro" />
    <inkscape:path-effect
       lpeversion="0"
       is_visible="true"
       id="path-effect28714-5"
       effect="spiro" />
    <inkscape:path-effect
       lpeversion="0"
       is_visible="true"
       id="path-effect29678-4-6"
       effect="spiro" />
    <inkscape:path-effect
       lpeversion="0"
       is_visible="true"
       id="path-effect29678-1"
       effect="spiro" />
    <inkscape:path-effect
       lpeversion="0"
       is_visible="true"
       id="path-effect29672-0"
       effect="spiro" />
    <radialGradient
       inkscape:collect="always"
       xlink:href="#linearGradient14830-4"
       id="radialGradient18850"
       gradientUnits="userSpaceOnUse"
       gradientTransform="matrix(0.36025223,0.15680447,-0.07246786,0.16649214,260.61683,181.93825)"
       cx="382.23483"
       cy="246.85757"
       fx="382.23483"
       fy="246.85757"
       r="20.537666" />
    <clipPath
       clipPathUnits="userSpaceOnUse"
       id="clipPath391">
      <path
         sodipodi:nodetypes="ssssssssssssssss"
         inkscape:connector-curvature="0"
         id="path393"
         d="m 137.57703,281.0191 c 1.59929,-0.66295 3.3982,-0.78361 5.10074,-0.46963 1.70253,0.31398 3.31141,1.04948 4.74342,2.02239 2.86402,1.94583 4.98821,4.77774 7.02263,7.57952 4.67189,6.43406 9.16868,13.00227 13.24488,19.8293 3.30635,5.53766 6.34352,11.25685 10.16415,16.45304 2.49398,3.3919 5.3066,6.53947 7.813,9.92221 2.50639,3.38273 4.72794,7.05586 5.83931,11.11662 1.44411,5.27653 0.88463,11.09291 -1.62666,15.95302 -1.76663,3.41896 -4.47646,6.35228 -7.77242,8.33898 -3.29595,1.9867 -7.17064,3.01444 -11.01635,2.87021 -6.11413,-0.2293 -11.69944,-3.28515 -17.38362,-5.54906 -11.58097,-4.6125 -24.15978,-6.0594 -36.09666,-9.65174 -3.66859,-1.10404 -7.27582,-2.4107 -10.96988,-3.42629 -1.64125,-0.45122 -3.30866,-0.8482 -4.85875,-1.55144 -1.55008,-0.70325 -2.999548,-1.7491 -3.86171,-3.21675 -0.666391,-1.13439 -0.948386,-2.47002 -0.930187,-3.78554 0.0182,-1.31552 0.325889,-2.61453 0.773815,-3.85158 0.895851,-2.47409 2.343262,-4.71374 3.320162,-7.15696 1.59511,-3.98935 1.88169,-8.38839 1.66657,-12.67942 -0.21511,-4.29103 -0.91078,-8.54478 -1.20454,-12.83115 -0.13118,-1.91406 -0.18066,-3.85256 0.18479,-5.73598 0.36545,-1.88343 1.17577,-3.72459 2.55771,-5.05541 1.27406,-1.22693 2.96492,-1.95531 4.69643,-2.31651 1.73151,-0.3612 3.51533,-0.37747 5.28367,-0.33762 1.76833,0.0399 3.54067,0.13425 5.30351,-0.0106 1.76284,-0.14488 3.53347,-0.54055 5.06911,-1.41828 1.45996,-0.83447 2.65433,-2.0745 3.64374,-3.43424 0.9894,-1.35974 1.78909,-2.84573 2.60891,-4.31396 0.81983,-1.46823 1.66834,-2.93151 2.74157,-4.22611 1.07324,-1.2946 2.38923,-2.42304 3.94266,-3.06698"
         style="fill:url(#linearGradient395);fill-opacity:1;stroke:none"
         transform="matrix(1,0,0,1.0182804,0,-4.0313444)"
         inkscape:label="Clip - Left Foot Brighter Highlights" />
    </clipPath>
    <linearGradient
       inkscape:collect="always"
       xlink:href="#linearGradient14132-6"
       id="linearGradient395"
       gradientUnits="userSpaceOnUse"
       x1="123.13397"
       y1="301.54044"
       x2="170.86368"
       y2="381.62027" />
    <clipPath
       clipPathUnits="userSpaceOnUse"
       id="clipPath401">
      <path
         inkscape:label="Clip - Left Foot Highlights"
         transform="translate(-240.00015,-1)"
         style="fill:url(#linearGradient405);fill-opacity:1;stroke:none"
         d="m 137.57703,281.0191 c 1.59929,-0.66295 3.3982,-0.78361 5.10074,-0.46963 1.70253,0.31398 3.31141,1.04948 4.74342,2.02239 2.86402,1.94583 4.98821,4.77774 7.02263,7.57952 4.67189,6.43406 9.16868,13.00227 13.24488,19.8293 3.30635,5.53766 6.34352,11.25685 10.16415,16.45304 2.49398,3.3919 5.3066,6.53947 7.813,9.92221 2.50639,3.38273 4.72794,7.05586 5.83931,11.11662 1.44411,5.27653 0.88463,11.09291 -1.62666,15.95302 -1.76663,3.41896 -4.47646,6.35228 -7.77242,8.33898 -3.29595,1.9867 -7.17064,3.01444 -11.01635,2.87021 -6.11413,-0.2293 -11.69944,-3.28515 -17.38362,-5.54906 -11.58097,-4.6125 -24.15978,-6.0594 -36.09666,-9.65174 -3.66859,-1.10404 -7.27582,-2.4107 -10.96988,-3.42629 -1.64125,-0.45122 -3.30866,-0.8482 -4.85875,-1.55144 -1.55008,-0.70325 -2.999548,-1.7491 -3.86171,-3.21675 -0.666391,-1.13439 -0.948386,-2.47002 -0.930187,-3.78554 0.0182,-1.31552 0.325889,-2.61453 0.773815,-3.85158 0.895851,-2.47409 2.343262,-4.71374 3.320162,-7.15696 1.59511,-3.98935 1.88169,-8.38839 1.66657,-12.67942 -0.21511,-4.29103 -0.91078,-8.54478 -1.20454,-12.83115 -0.13118,-1.91406 -0.18066,-3.85256 0.18479,-5.73598 0.36545,-1.88343 1.17577,-3.72459 2.55771,-5.05541 1.27406,-1.22693 2.96492,-1.95531 4.69643,-2.31651 1.73151,-0.3612 3.51533,-0.37747 5.28367,-0.33762 1.76833,0.0399 3.54067,0.13425 5.30351,-0.0106 1.76284,-0.14488 3.53347,-0.54055 5.06911,-1.41828 1.45996,-0.83447 2.65433,-2.0745 3.64374,-3.43424 0.9894,-1.35974 1.78909,-2.84573 2.60891,-4.31396 0.81983,-1.46823 1.66834,-2.93151 2.74157,-4.22611 1.07324,-1.2946 2.38923,-2.42304 3.94266,-3.06698"
         id="path403"
         inkscape:connector-curvature="0"
         sodipodi:nodetypes="ssssssssssssssss" />
    </clipPath>
    <linearGradient
       inkscape:collect="always"
       xlink:href="#linearGradient14132-6"
       id="linearGradient405"
       gradientUnits="userSpaceOnUse"
       x1="123.13397"
       y1="301.54044"
       x2="170.86368"
       y2="381.62027" />
    <clipPath
       clipPathUnits="userSpaceOnUse"
       id="clipPath419">
      <path
         style="display:inline;fill:url(#linearGradient423);fill-opacity:1;stroke:none"
         d="m 513.18983,336.61385 c -2.6238,3.11482 -6.268,5.17039 -9.89648,7.01985 -6.1886,3.15437 -12.60169,5.92177 -18.41964,9.71654 -3.89802,2.54249 -7.4959,5.52671 -10.86016,8.74238 -2.87719,2.75012 -5.60582,5.68745 -8.83247,8.01771 -3.25567,2.35122 -7.01915,4.05426 -10.99061,4.6502 -4.83026,0.72481 -9.82134,-0.21289 -14.29898,-2.16416 -3.13754,-1.36728 -6.15569,-3.3229 -7.96301,-6.22931 -1.81425,-2.91754 -2.22807,-6.48813 -2.23266,-9.92375 -0.008,-6.07666 1.11824,-12.09004 2.17848,-18.07349 0.88097,-4.97177 1.71949,-9.95483 2.26013,-14.97502 0.98337,-9.13118 0.9763,-18.35278 0.3199,-27.51327 -0.10993,-1.53416 -0.23754,-3.0832 -0.008,-4.60412 0.22922,-1.52092 0.85475,-3.0367 2.02069,-4.03986 1.07696,-0.9266 2.52093,-1.33598 3.93947,-1.4145 1.41854,-0.0785 2.83404,0.14655 4.23982,0.35197 3.31254,0.48405 6.65159,0.8649 9.88917,1.71656 2.04284,0.53738 4.03315,1.25925 6.0722,1.81081 3.40258,0.92039 6.96639,1.36144 10.46739,0.95192 3.76917,-0.44089 7.42987,-1.85678 11.22363,-1.76474 1.55658,0.0378 3.1015,0.33171 4.58649,0.79985 1.51539,0.47772 3.00914,1.16182 4.12281,2.29512 0.84639,0.8613 1.43579,1.94539 1.87872,3.06879 0.65982,1.67352 1.01492,3.457 1.16703,5.24945 0.13475,1.58788 0.11343,3.19441 0.41433,4.75933 0.49503,2.57458 1.84746,4.92305 3.52848,6.93494 1.68102,2.01189 3.68982,3.72048 5.69641,5.40783 1.99908,1.68103 4.0106,3.35469 6.16708,4.82839 1.0121,0.69165 2.05642,1.33949 3.01736,2.10062 0.96094,0.76113 1.84466,1.6468 2.44543,2.71535 0.81492,1.44944 1.06377,3.2077 0.53758,4.87655 -0.5262,1.66885 -1.48162,3.27659 -2.67059,4.68806 z"
         id="path421"
         inkscape:connector-curvature="0"
         sodipodi:nodetypes="aaaaaaaaaaaaaaaaaaaaaaacscaascca"
         clip-path="none"
         inkscape:label="Clip - Right Foot Highlights" />
    </clipPath>
    <linearGradient
       inkscape:collect="always"
       xlink:href="#linearGradient14392-8"
       id="linearGradient423"
       gradientUnits="userSpaceOnUse"
       gradientTransform="translate(-250.00016,-58.362187)"
       x1="442.03912"
       y1="371.54401"
       x2="490.12241"
       y2="293.58548" />
    <clipPath
       clipPathUnits="userSpaceOnUse"
       id="clipPath426">
      <path
         style="display:inline;fill:url(#linearGradient430);fill-opacity:1;stroke:none;stroke-width:0.842603"
         d="m 509.36312,335.7449 c -2.29559,2.52764 -5.48394,4.19571 -8.65854,5.69652 -5.41448,2.55973 -11.02537,4.80544 -16.11557,7.88485 -3.41042,2.0632 -6.55825,4.48486 -9.50168,7.09433 -2.51729,2.23169 -4.9046,4.6153 -7.72764,6.50627 -2.84842,1.90799 -6.14114,3.28999 -9.61581,3.77358 -4.22606,0.58818 -8.59281,-0.17275 -12.51035,-1.75618 -2.74507,-1.10954 -5.38569,-2.6965 -6.96694,-5.05501 -1.5873,-2.36755 -1.94936,-5.26504 -1.95338,-8.053 -0.007,-4.93114 0.97837,-9.81092 1.90598,-14.66641 0.77077,-4.03453 1.5044,-8.07822 1.97742,-12.15205 0.86036,-7.40983 0.85417,-14.89305 0.27988,-22.32667 -0.0962,-1.24495 -0.20783,-2.50198 -0.007,-3.73619 0.20055,-1.23421 0.74783,-2.46424 1.76793,-3.27829 0.94224,-0.75193 2.20559,-1.08414 3.44669,-1.14785 1.24109,-0.0637 2.47953,0.11892 3.70947,0.28562 2.89818,0.3928 5.81955,0.70185 8.65215,1.39296 1.78731,0.43608 3.52865,1.02187 5.31264,1.46945 2.97696,0.74689 6.09498,1.10479 9.15805,0.77247 3.29769,-0.35777 6.50048,-1.50675 9.81968,-1.43206 1.36187,0.0307 2.71354,0.26918 4.01278,0.64907 1.32583,0.38766 2.63273,0.9428 3.6071,1.86246 0.74051,0.69893 1.25619,1.57866 1.64371,2.49028 0.57728,1.35804 0.88797,2.80532 1.02105,4.25987 0.11789,1.28854 0.0992,2.59222 0.3625,3.86213 0.43311,2.08924 1.61637,3.995 3.08711,5.62762 1.47074,1.63263 3.22827,3.01913 4.98386,4.38839 1.74902,1.36413 3.50892,2.72229 5.39565,3.91818 0.8855,0.56126 1.79919,1.08698 2.63992,1.70462 0.84074,0.61765 1.61392,1.33636 2.13954,2.20348 0.71298,1.1762 0.93071,2.60301 0.47034,3.95726 -0.46038,1.35425 -1.29629,2.65891 -2.33654,3.8043 z"
         id="path428"
         inkscape:connector-curvature="0"
         sodipodi:nodetypes="aaaaaaaaaaaaaaaaaaaaaaacscaascca"
         clip-path="none"
         inkscape:label="Clip - Right Foot Brighter Highlights" />
    </clipPath>
    <linearGradient
       inkscape:collect="always"
       xlink:href="#linearGradient14392-8"
       id="linearGradient430"
       gradientUnits="userSpaceOnUse"
       gradientTransform="matrix(0.87491199,0,0,0.81148755,-158.36095,15.22676)"
       x1="442.03912"
       y1="371.54401"
       x2="490.12241"
       y2="293.58548" />
    <clipPath
       clipPathUnits="userSpaceOnUse"
       id="clipPath433">
      <path
         style="display:inline;fill:url(#linearGradient437);fill-opacity:1;stroke:none"
         d="m 263.18967,278.25167 c -2.6238,3.11482 -6.268,5.17039 -9.89648,7.01985 -6.1886,3.15437 -12.60169,5.92177 -18.41964,9.71654 -3.89802,2.54249 -7.4959,5.52671 -10.86016,8.74238 -2.87719,2.75012 -5.60582,5.68745 -8.83247,8.01771 -3.25567,2.35122 -7.01915,4.05426 -10.99061,4.6502 -4.83026,0.72481 -9.82134,-0.21289 -14.29898,-2.16416 -3.13754,-1.36728 -6.15569,-3.3229 -7.96301,-6.22931 -1.81425,-2.91754 -2.22807,-6.48813 -2.23266,-9.92375 -0.008,-6.07666 1.11824,-12.09004 2.17848,-18.07349 0.88097,-4.97177 1.71949,-9.95483 2.26013,-14.97502 0.98337,-9.13118 0.9763,-18.35278 0.3199,-27.51327 -0.10993,-1.53416 -0.23754,-3.0832 -0.008,-4.60412 0.22922,-1.52092 0.85475,-3.0367 2.02069,-4.03986 1.07696,-0.9266 2.52093,-1.33598 3.93947,-1.4145 1.41854,-0.0785 2.83404,0.14655 4.23982,0.35197 3.31254,0.48405 6.65159,0.8649 9.88917,1.71656 2.04284,0.53738 4.03315,1.25925 6.0722,1.81081 3.40258,0.92039 6.96639,1.36144 10.46739,0.95192 3.76917,-0.44089 7.42987,-1.85678 11.22363,-1.76474 1.55658,0.0378 3.1015,0.33171 4.58649,0.79985 1.51539,0.47772 3.00914,1.16182 4.12281,2.29512 0.84639,0.8613 1.43579,1.94539 1.87872,3.06879 0.65982,1.67352 1.01492,3.457 1.16703,5.24945 0.13475,1.58788 0.11343,3.19441 0.41433,4.75933 0.49503,2.57458 1.84746,4.92305 3.52848,6.93494 1.68102,2.01189 3.68982,3.72048 5.69641,5.40783 1.99908,1.68103 4.0106,3.35469 6.16708,4.82839 1.0121,0.69165 2.05642,1.33949 3.01736,2.10062 0.96094,0.76113 1.84466,1.6468 2.44543,2.71535 0.81492,1.44944 1.06377,3.2077 0.53758,4.87655 -0.5262,1.66885 -1.48162,3.27659 -2.67059,4.68806 z"
         id="path435"
         inkscape:connector-curvature="0"
         sodipodi:nodetypes="aaaaaaaaaaaaaaaaaaaaaaacscaascca"
         clip-path="none"
         inkscape:label="Clip - Right Foot Brightest Highlights" />
    </clipPath>
    <linearGradient
       inkscape:collect="always"
       xlink:href="#linearGradient14392-8"
       id="linearGradient437"
       gradientUnits="userSpaceOnUse"
       gradientTransform="translate(-500.00032,-116.72437)"
       x1="442.03912"
       y1="371.54401"
       x2="490.12241"
       y2="293.58548" />
    <clipPath
       clipPathUnits="userSpaceOnUse"
       id="clipPath504">
      <path
         inkscape:label="Clip - Right Arm Shadow"
         style="display:inline;fill:#020204;fill-opacity:1;stroke:none;stroke-width:0.991084"
         id="path506"
         d="m 304.84727,225.44951 c 5.97679,4.89463 9.76903,12.28597 10.94319,20.00305 0.91574,6.01859 0.32054,12.19496 -1.0124,18.13223 -1.33294,5.93726 -3.39093,11.67615 -5.43351,17.40051 -0.81452,2.2827 -1.63269,4.5871 -1.95634,6.9933 -0.32365,2.40621 -0.1187,4.95426 1.02109,7.08777 1.3066,2.44578 3.74526,4.13021 6.36677,4.92292 2.58816,0.78263 5.38374,0.76618 8.00354,0.10153 2.61979,-0.66466 5.06582,-1.96341 7.19828,-3.64929 5.41763,-4.28306 8.68657,-10.94871 9.95201,-17.81211 1.26545,-6.86339 0.68401,-13.95038 -0.49258,-20.83014 -1.60443,-9.38136 -4.30394,-18.55105 -7.74003,-27.40773 -2.52746,-6.51466 -5.7653,-12.74244 -9.61753,-18.52016 -3.77934,-5.66839 -9.14163,-10.09303 -13.10336,-15.63502 -1.37643,-1.92547 -3.03189,-3.93159 -4.38419,-5.87845 -2.91575,-4.19771 -2.25544,-3.41451 -4.06424,-6.13155 -1.31235,-1.9713 -3.38449,-2.6487 -5.56491,-3.51096 -2.18041,-0.86226 -4.629,-1.11623 -6.88065,-0.47108 -2.96781,0.85034 -5.39233,3.23113 -6.68215,6.08208 -1.28982,2.85095 -1.51545,6.12313 -1.01363,9.2201 0.64739,3.99536 2.44215,7.70258 4.46569,11.18873 2.28537,3.93724 4.93283,7.72707 8.38442,10.65407 3.60205,3.05459 7.95771,5.06875 11.61053,8.0602"
         inkscape:connector-curvature="0"
         sodipodi:nodetypes="aaaaassssaaaasssscssssc" />
    </clipPath>
    <clipPath
       clipPathUnits="userSpaceOnUse"
       id="clipPath508">
      <path
         inkscape:label="Clip - Left Arm Shadow"
         sodipodi:nodetypes="cczzzzzzzzzzzzszzzzzcssscc"
         inkscape:connector-curvature="0"
         id="path510"
         d="m 240.47307,195.03592 c -7.07309,8.03686 -14.35222,15.81627 -18.34577,24.50506 -1.97625,4.41329 -2.91077,9.20725 -4.26498,13.84932 -1.5379,5.27176 -3.62609,10.3703 -5.97071,15.33612 -2.16496,4.58531 -4.54982,9.06291 -6.93891,13.53553 -1.7382,3.25409 -3.50514,6.58104 -4.10782,10.22071 -0.47628,2.87632 -0.1985,5.84423 0.53375,8.66626 0.73225,2.82202 1.90965,5.5106 3.23776,8.10601 5.66725,11.07504 14.17003,20.62168 24.24176,27.92472 4.57063,3.31418 9.46669,6.18109 14.60245,8.52595 2.78247,1.27041 5.71355,2.40436 8.77186,2.45744 1.52915,0.0265 3.0741,-0.22544 4.47434,-0.84055 1.40023,-0.6151 2.65068,-1.60373 3.48254,-2.88709 1.02278,-1.5779 1.36992,-3.53829 1.16461,-5.40743 -0.2053,-1.86914 -0.93484,-3.65294 -1.91324,-5.25873 -2.38997,-3.92251 -6.1652,-6.76055 -9.79642,-9.57343 -7.84055,-6.07358 -15.42465,-12.48039 -22.68212,-19.23996 -2.04912,-1.90854 -4.09841,-3.87759 -5.53019,-6.28412 -1.3943,-2.34352 -2.1476,-5.01376 -2.65783,-7.69253 -1.39972,-7.34873 -1.04092,-15.08286 1.45958,-22.13343 0.97822,-2.75826 2.27118,-5.39201 3.51815,-8.03965 2.16133,-4.58906 4.20725,-9.26564 7.04933,-13.46723 3.53798,-5.23037 8.26749,-9.66049 11.15147,-15.27803 2.43423,-4.74149 3.41994,-10.07236 4.36185,-15.31831 0.73693,-4.10434 2.15042,-8.12437 2.86923,-12.23193 -1.40611,2.66567 -5.93796,7.04283 -8.71069,10.5253 z"
         style="display:inline;fill:#020204;fill-opacity:1;stroke:none" />
    </clipPath>
    <clipPath
       clipPathUnits="userSpaceOnUse"
       id="clipPath533">
      <path
         inkscape:label="Clip - Hand Lower Hightlight"
         style="display:inline;fill:#020204;fill-opacity:1;stroke:none"
         id="path535"
         d="m 386.1875,285.32775 c -0.40516,-1.10369 -1.11845,-2.08156 -1.9907,-2.86987 -0.87226,-0.78832 -1.90049,-1.39229 -2.98278,-1.85155 -2.16459,-0.91852 -4.52053,-1.26149 -6.83152,-1.69556 -2.17919,-0.40931 -4.34179,-0.90631 -6.52782,-1.27734 -2.27136,-0.38551 -4.6179,-0.63213 -6.8653,-0.1253 -1.96583,0.44333 -3.7845,1.45879 -5.27172,2.81864 -1.48723,1.35984 -2.64911,3.0564 -3.48499,4.89007 -1.47218,3.22952 -1.93451,6.86503 -1.65394,10.40316 0.20881,2.63325 0.87532,5.34594 2.60877,7.33912 1.40065,1.61052 3.38733,2.61526 5.43398,3.22092 3.52502,1.04316 7.36663,0.98822 10.86038,-0.1553 5.76689,-1.93113 10.87568,-5.77387 14.33034,-10.77903 1.13861,-1.64963 2.11217,-3.44809 2.5532,-5.4034 0.33597,-1.48955 0.34831,-3.08112 -0.1779,-4.51456"
         inkscape:connector-curvature="0"
         sodipodi:nodetypes="aaaasssaccaa" />
    </clipPath>
    <clipPath
       clipPathUnits="userSpaceOnUse"
       id="clipPath538">
      <path
         sodipodi:nodetypes="aaaasssaccaa"
         inkscape:connector-curvature="0"
         d="m 386.1875,285.32775 c -0.40516,-1.10369 -1.11845,-2.08156 -1.9907,-2.86987 -0.87226,-0.78832 -1.90049,-1.39229 -2.98278,-1.85155 -2.16459,-0.91852 -4.52053,-1.26149 -6.83152,-1.69556 -2.17919,-0.40931 -4.34179,-0.90631 -6.52782,-1.27734 -2.27136,-0.38551 -4.6179,-0.63213 -6.8653,-0.1253 -1.96583,0.44333 -3.7845,1.45879 -5.27172,2.81864 -1.48723,1.35984 -2.64911,3.0564 -3.48499,4.89007 -1.47218,3.22952 -1.93451,6.86503 -1.65394,10.40316 0.20881,2.63325 0.87532,5.34594 2.60877,7.33912 1.40065,1.61052 3.38733,2.61526 5.43398,3.22092 3.52502,1.04316 7.36663,0.98822 10.86038,-0.1553 5.76689,-1.93113 10.87568,-5.77387 14.33034,-10.77903 1.13861,-1.64963 2.11217,-3.44809 2.5532,-5.4034 0.33597,-1.48955 0.34831,-3.08112 -0.1779,-4.51456"
         id="path540"
         style="display:inline;fill:#020204;fill-opacity:1;stroke:none"
         inkscape:label="Clip - Hand Upper Highlight" />
    </clipPath>
    <clipPath
       clipPathUnits="userSpaceOnUse"
       id="clipPath622">
      <path
         inkscape:label="Clip - Right Eyelid"
         style="display:inline;fill:url(#radialGradient626);fill-opacity:1;stroke:none"
         d="m 85.75,122.36218 c -2.78042,1.91023 -5.11057,4.57487 -6.25,7.75 -1.43603,4.00163 -0.88584,8.48071 0.5,12.5 1.41949,4.11688 3.79379,8.04098 7.37932,10.51234 1.79277,1.23567 3.86809,2.08301 6.0304,2.33859 2.16231,0.25558 4.40928,-0.0949 6.34028,-1.10093 2.35312,-1.22596 4.14782,-3.37278 5.26217,-5.78076 1.11436,-2.40798 1.5888,-5.0701 1.73783,-7.71924 0.18989,-3.37546 -0.14047,-6.80646 -1.25,-10 -1.20527,-3.46909 -3.39005,-6.67055 -6.47275,-8.6666 -1.54136,-0.99803 -3.29195,-1.68356 -5.11089,-1.93515 -1.81893,-0.25158 -3.70476,-0.0633 -5.41636,0.60175 -0.97547,0.37901 -1.88744,0.9074 -2.75,1.5"
         id="path624"
         inkscape:connector-curvature="0"
         sodipodi:nodetypes="aaaaaaaa" />
    </clipPath>
    <radialGradient
       inkscape:collect="always"
       xlink:href="#linearGradient28799-3"
       id="radialGradient626"
       gradientUnits="userSpaceOnUse"
       gradientTransform="matrix(1.0857794,-0.03431182,0.03943781,1.2479887,-15.5421,-75.904827)"
       cx="223.19559"
       cy="137.66095"
       fx="223.19559"
       fy="137.66095"
       r="14.572236" />
    <clipPath
       clipPathUnits="userSpaceOnUse"
       id="clipPath631">
      <path
         inkscape:label="Clip - Left Eyelid"
         style="display:inline;fill:url(#radialGradient635);fill-opacity:1;stroke:none"
         d="m 54.23244,122.36218 c -1.78096,0.097 -3.48461,0.91899 -4.78785,2.1367 -1.30323,1.21771 -2.22137,2.81176 -2.78618,4.50357 -1.12962,3.38363 -0.87548,7.05177 -0.6187,10.60973 0.23251,3.22162 0.47041,6.50533 1.67679,9.50158 0.60319,1.49813 1.45024,2.91021 2.58034,4.06395 1.13009,1.15374 2.55173,2.04189 4.11829,2.43447 1.46884,0.36809 3.03816,0.29183 4.48279,-0.16209 1.44462,-0.45392 2.76391,-1.27887 3.84623,-2.33791 1.57904,-1.54507 2.64326,-3.5662 3.25345,-5.68947 0.61019,-2.12328 0.78416,-4.35155 0.7524,-6.56053 -0.0397,-2.76435 -0.40091,-5.53851 -1.26575,-8.16439 -0.86485,-2.62588 -2.24575,-5.10327 -4.1728,-7.08561 -0.93331,-0.96009 -1.99776,-1.80513 -3.19858,-2.39747 -1.20082,-0.59233 -2.54344,-0.92535 -3.88043,-0.85253"
         id="path633"
         inkscape:connector-curvature="0"
         sodipodi:nodetypes="zzzzzzz" />
    </clipPath>
    <radialGradient
       inkscape:collect="always"
       xlink:href="#linearGradient28799-5-5"
       id="radialGradient635"
       gradientUnits="userSpaceOnUse"
       gradientTransform="matrix(0.81524244,-0.03431182,0.02961133,1.2479887,9.5624,-75.904827)"
       cx="223.19559"
       cy="137.66095"
       fx="223.19559"
       fy="137.66095"
       r="14.572236" />
    <clipPath
       clipPathUnits="userSpaceOnUse"
       id="clipPath697">
      <path
         style="display:inline;fill:url(#radialGradient701);fill-opacity:1;stroke:none;stroke-width:0.77538"
         d="m 214.63605,148.03815 c -2.51029,-0.0409 -4.99135,0.28921 -7.27146,0.88384 -4.05254,1.05688 -7.57367,2.93934 -10.08468,5.39315 -1.62814,0.85539 -3.05003,1.89919 -4.20722,3.08639 -0.66186,0.67901 -1.24391,1.41694 -1.50131,2.24757 -0.20244,0.65333 -0.19857,1.34469 -0.28524,2.01986 -0.0324,0.25293 -0.0778,0.5073 -0.0362,0.76548 0.0208,0.12909 0.0631,0.25809 0.13756,0.38081 0.0221,0.0364 0.0528,0.0707 0.0806,0.1055 0.0825,0.15031 0.18297,0.29681 0.31473,0.43099 0.28806,0.29334 0.68023,0.53107 1.09417,0.73203 0.41394,0.20097 0.85255,0.36757 1.2815,0.54936 2.28006,0.96628 4.22773,2.32456 5.9925,3.75924 2.3677,1.92485 4.52941,4.06099 7.5099,5.46004 2.10465,0.98794 4.52773,1.552 6.92602,1.72396 2.81637,0.20193 5.58521,-0.12293 8.18167,-0.69344 2.40631,-0.52873 4.69673,-1.27132 6.75202,-2.25401 3.90702,-1.86802 6.98699,-4.60634 11.42445,-5.83442 0.96876,-0.2681 1.99041,-0.45921 2.91317,-0.78993 0.92276,-0.33072 1.76305,-0.8265 2.11948,-1.52711 0.34261,-0.67347 0.2049,-1.45031 0.23569,-2.18968 0.0329,-0.791 0.26357,-1.5559 0.33312,-2.34278 0.0695,-0.78687 -0.0382,-1.6289 -0.62199,-2.35178 -0.12955,-0.16043 -0.28324,-0.31001 -0.45163,-0.45157 -0.0509,-0.29235 -0.22134,-0.58029 -0.46622,-0.83239 -0.50487,-0.51975 -1.29334,-0.87172 -2.09515,-1.11671 -1.09824,-0.33555 -2.25599,-0.50211 -3.39891,-0.69601 -3.51093,-0.59565 -6.96955,-1.47539 -10.29467,-2.60394 -1.65302,-0.56104 -3.27073,-1.18327 -4.90416,-1.77928 -1.67927,-0.61273 -3.38672,-1.20103 -5.16515,-1.57729 -1.49109,-0.31546 -3.00643,-0.47332 -4.51259,-0.49788 z"
         id="path699"
         inkscape:connector-curvature="0"
         inkscape:label="Clip - Beak Side Highlight" />
    </clipPath>
    <radialGradient
       inkscape:collect="always"
       xlink:href="#linearGradient28469-0"
       id="radialGradient701"
       gradientUnits="userSpaceOnUse"
       gradientTransform="matrix(0.81494503,-0.25452614,0.31491054,0.43302392,-75.371375,150.73818)"
       cx="294.48483"
       cy="193.09949"
       fx="294.48483"
       fy="193.09949"
       r="31.111488" />
    <clipPath
       clipPathUnits="userSpaceOnUse"
       id="clipPath816">
      <path
         inkscape:label="Clip - Lower Beak Shadow"
         style="display:inline;fill:#fdfdfb;fill-opacity:1;stroke:none"
         d="m -26.29567,154.81433 c -1.0464,1.31136 -1.72773,2.88726 -2.13927,4.51369 -0.41153,1.62642 -0.56228,3.30801 -0.62653,4.98446 -0.12849,3.35291 0.0765,6.77015 -0.81096,10.00604 -0.94874,3.4595 -3.07595,6.45649 -5.15761,9.37795 -3.60485,5.05916 -7.248548,10.25011 -9.027058,16.20217 -1.077103,3.60469 -1.435613,7.42255 -1.04841,11.16474 -4.035298,5.9262 -7.528852,12.22112 -10.4229,18.78069 -4.386197,9.94163 -7.396115,20.5265 -8.454552,31.34105 -1.296051,13.24236 0.397579,26.86184 5.627472,39.09655 3.781309,8.84592 9.417708,16.94379 16.68566,23.2466 3.695408,3.20468 7.799668,5.93944 12.189498,8.09709 15.21252,7.47713 34.01348,7.49101 48.97296,-0.48031 7.81838,-4.16611 14.41789,-10.2582 20.78084,-16.42232 3.83183,-3.71209 7.64353,-7.51249 10.56653,-11.97551 5.62746,-8.59236 7.58747,-19.03566 8.80544,-29.23436 2.12971,-17.83321 2.1984,-36.66998 -5.62137,-52.83816 -2.69219,-5.56638 -6.27896,-10.69891 -10.58065,-15.14052 -1.14547,-7.78087 -3.40638,-15.39666 -6.69212,-22.54215 -2.37045,-5.15502 -5.2683,-10.06187 -7.47079,-15.29085 -0.90422,-2.14672 -1.68995,-4.34486 -2.69346,-6.44699 -1.00352,-2.10213 -2.24145,-4.12498 -3.92446,-5.73541 -1.72343,-1.6491 -3.87096,-2.81824 -6.13593,-3.56631 -2.26498,-0.74806 -4.64917,-1.08697 -7.03147,-1.2068 -4.7646,-0.23966 -9.53872,0.38348 -14.30559,0.19423 -3.79476,-0.15066 -7.57776,-0.81566 -11.36892,-0.59186 -1.89557,0.1119 -3.79087,0.45058 -5.55026,1.1649 -1.7594,0.71432 -3.38173,1.81713 -4.56609,3.30139"
         id="path818"
         inkscape:connector-curvature="0"
         sodipodi:nodetypes="zssacaaaaaaaaaacsszzz" />
    </clipPath>
    <clipPath
       clipPathUnits="userSpaceOnUse"
       id="clipPath820">
      <path
         sodipodi:nodetypes="zssacaaaaaaaaaacsszzz"
         inkscape:connector-curvature="0"
         id="path822"
         d="m -47.29567,161.44377 c -1.0464,1.42368 -1.72773,3.13456 -2.13927,4.9003 -0.41153,1.76572 -0.56228,3.59134 -0.62653,5.41138 -0.12849,3.64009 0.0765,7.35002 -0.81096,10.86307 -0.94874,3.75581 -3.07595,7.0095 -5.15761,10.18119 -3.60485,5.49248 -7.248548,11.12804 -9.027058,17.58991 -1.077103,3.91343 -1.435613,8.0583 -1.04841,12.12101 -4.035298,6.43379 -7.528852,13.26788 -10.4229,20.38928 -4.386197,10.79315 -7.396115,22.28463 -8.454552,34.02546 -1.296051,14.37658 0.397579,29.16259 5.627472,42.44522 3.781309,9.60359 9.417708,18.39505 16.68566,25.23771 3.695408,3.47916 7.799668,6.44816 12.189498,8.79061 15.21252,8.11756 34.01348,8.13263 48.97296,-0.52145 7.81838,-4.52294 14.41789,-11.13683 20.78084,-17.82891 3.83183,-4.03004 7.64353,-8.15595 10.56653,-13.00123 5.62746,-9.32831 7.58747,-20.66609 8.80544,-31.73832 2.12971,-19.36065 2.1984,-39.81082 -5.62137,-57.36383 -2.69219,-6.04314 -6.27896,-11.61528 -10.58065,-16.43732 -1.14547,-8.44732 -3.40638,-16.71541 -6.69212,-24.47292 -2.37045,-5.59655 -5.2683,-10.92368 -7.47079,-16.60053 -0.90422,-2.33059 -1.68995,-4.71701 -2.69346,-6.99919 -1.00352,-2.28218 -2.24145,-4.47829 -3.92446,-6.22665 -1.72343,-1.79035 -3.87096,-3.05963 -6.13593,-3.87177 -2.26498,-0.81213 -4.64917,-1.18007 -7.03147,-1.31016 -4.7646,-0.26019 -9.53872,0.41632 -14.30559,0.21086 -3.79476,-0.16356 -7.57776,-0.88552 -11.36892,-0.64255 -1.89557,0.12148 -3.79087,0.48917 -5.55026,1.26467 -1.7594,0.77551 -3.38173,1.97277 -4.56609,3.58416"
         style="display:inline;fill:#fdfdfb;fill-opacity:1;stroke:none;stroke-width:1.04195"
         inkscape:label="Clip - Upper Beak Shadow" />
    </clipPath>
  </defs>
  <metadata
     id="metadata27455">
    <rdf:RDF>
      <cc:Work
         rdf:about="">
        <dc:format>image/svg+xml</dc:format>
        <dc:type
           rdf:resource="http://purl.org/dc/dcmitype/StillImage" />
        <dc:title>Tux</dc:title>
        <dc:date>20 June 2012</dc:date>
        <dc:creator>
          <cc:Agent>
            <dc:title>Garrett LeSage</dc:title>
          </cc:Agent>
        </dc:creator>
        <cc:license
           rdf:resource="http://creativecommons.org/publicdomain/zero/1.0/" />
        <dc:contributor>
          <cc:Agent>
            <dc:title>Larry Ewing, the creator of the original Tux graphic</dc:title>
          </cc:Agent>
        </dc:contributor>
        <dc:subject>
          <rdf:Bag>
            <rdf:li>tux</rdf:li>
            <rdf:li>Linux</rdf:li>
            <rdf:li>penguin</rdf:li>
            <rdf:li>logo</rdf:li>
          </rdf:Bag>
        </dc:subject>
        <dc:rights>
          <cc:Agent>
            <dc:title>Larry Ewing, Garrett LeSage</dc:title>
          </cc:Agent>
        </dc:rights>
        <dc:source>https://github.com/garrett/Tux</dc:source>
      </cc:Work>
      <cc:License
         rdf:about="http://creativecommons.org/publicdomain/zero/1.0/">
        <cc:permits
           rdf:resource="http://creativecommons.org/ns#Reproduction" />
        <cc:permits
           rdf:resource="http://creativecommons.org/ns#Distribution" />
        <cc:permits
           rdf:resource="http://creativecommons.org/ns#DerivativeWorks" />
      </cc:License>
    </rdf:RDF>
  </metadata>
  <g
     inkscape:groupmode="layer"
     id="layer2"
     inkscape:label="Tux"
     style="display:inline"
     transform="translate(-15.23793,-19.575154)">
    <g
       id="g2599">
      <path
         inkscape:label="Body Without Tummy"
         sodipodi:nodetypes="csssccssssccsscccsccscccccscsscscsssc"
         inkscape:connector-curvature="0"
         id="path28712-2"
         d="m 140.8125,19.578125 c -7.16795,-0.07795 -14.42402,1.374646 -20.73438,4.775391 -6.70663,3.614308 -12.20088,9.395485 -15.58593,16.220703 -3.38347,6.822028 -4.712926,14.108148 -4.914065,22.132808 -0.382163,15.24684 0.34393,31.23872 1.494145,45.730473 0.3054,4.41258 0.85369,6.99499 0.29297,11.52344 -1.88652,9.62986 -10.313201,16.11178 -14.80468,24.57031 -4.954704,9.33089 -7.043403,19.88101 -10.783203,29.76172 -3.422488,9.04236 -8.227578,17.52067 -11.470703,26.62891 -4.534864,12.73604 -5.890504,26.73088 -2.894532,39.91406 2.283855,10.04965 7.054597,19.47291 13.484375,27.5332 -0.930503,1.67688 -1.832233,3.3716 -2.792968,5.03125 -2.979452,5.14693 -6.619557,10.02667 -8.316407,15.72656 -0.848425,2.84995 -1.182417,5.88981 -0.634765,8.8125 0.547652,2.92268 2.02651,5.71858 4.351562,7.57227 1.522028,1.21346 3.357446,1.99485 5.253906,2.43359 1.896461,0.43879 3.856625,0.54531 5.802735,0.50391 7.394587,-0.15718 14.559024,-2.40522 21.71289,-4.2832 4.23946,-1.11291 8.51036,-2.10105 12.80273,-2.98829 15.24055,-3.12209 32.25031,-1.87591 46.39844,0.17579 4.79197,0.72368 9.54981,1.67102 14.25977,2.8125 7.37714,1.78788 14.72878,4.06701 22.3164,4.2832 1.99729,0.0569 4.0106,-0.0306 5.96094,-0.46484 1.95034,-0.43429 3.84211,-1.22688 5.4043,-2.47266 2.32922,-1.85746 3.80834,-4.65745 4.35546,-7.58594 0.54713,-2.9285 0.20917,-5.97702 -0.64843,-8.83008 -1.71521,-5.70613 -5.38873,-10.5749 -8.43555,-15.69531 -1.20215,-2.0203 -2.32023,-4.0926 -3.51367,-6.11719 9.16873,-10.29563 16.54824,-22.20278 20.8164,-35.28125 4.65874,-14.27524 5.51426,-29.64566 3.55274,-44.5332 -1.96148,-14.88754 -6.6821,-29.32114 -12.8984,-42.99023 -7.79769,-17.13839 -14.35278,-23.331 -19.10351,-38.38086 -5.13471,-16.266273 -0.8948,-35.514213 -4.71094,-50.267583 -1.3618,-5.0173 -3.53277,-9.80681 -6.32617,-14.191405 -3.27306,-5.137474 -7.42457,-9.742407 -12.35743,-13.316406 -7.87066,-5.702527 -17.61519,-8.638455 -27.33398,-8.744141 z"
         style="display:inline;fill:#020204;fill-opacity:1;stroke:none" />
      <path
         inkscape:label="Tummy"
         style="display:inline;fill:#ffffff;fill-opacity:1;stroke:none"
         d="m 112.70417,105.45215 c -1.0464,1.31136 -1.72773,2.88726 -2.13927,4.51369 -0.41153,1.62642 -0.56228,3.30801 -0.62653,4.98446 -0.12849,3.35291 0.0765,6.77015 -0.81096,10.00604 -0.94874,3.4595 -3.07595,6.45649 -5.15761,9.37795 -3.60485,5.05916 -7.248548,10.25011 -9.027058,16.20217 -1.077103,3.60469 -1.435613,7.42255 -1.04841,11.16474 -4.035298,5.9262 -7.528852,12.22112 -10.4229,18.78069 -4.386197,9.94163 -7.396115,20.5265 -8.454552,31.34105 -1.296051,13.24236 0.397579,26.86184 5.627472,39.09655 3.781309,8.84592 9.417708,16.94379 16.68566,23.2466 3.695408,3.20468 7.799668,5.93944 12.189498,8.09709 15.21252,7.47713 34.01348,7.49101 48.97296,-0.48031 7.81838,-4.16611 14.41789,-10.2582 20.78084,-16.42232 3.83183,-3.71209 7.64353,-7.51249 10.56653,-11.97551 5.62746,-8.59236 7.58747,-19.03566 8.80544,-29.23436 2.12971,-17.83321 2.1984,-36.66998 -5.62137,-52.83816 -2.69219,-5.56638 -6.27896,-10.69891 -10.58065,-15.14052 -1.14547,-7.78087 -3.40638,-15.39666 -6.69212,-22.54215 -2.37045,-5.15502 -5.2683,-10.06187 -7.47079,-15.29085 -0.90422,-2.14672 -1.68995,-4.34486 -2.69346,-6.44699 -1.00352,-2.10213 -2.24145,-4.12498 -3.92446,-5.73541 -1.72343,-1.6491 -3.87096,-2.81824 -6.13593,-3.56631 -2.26498,-0.74806 -4.64917,-1.08697 -7.03147,-1.2068 -4.7646,-0.23966 -9.53872,0.38348 -14.30559,0.19423 -3.79476,-0.15066 -7.57776,-0.81566 -11.36892,-0.59186 -1.89557,0.1119 -3.79087,0.45058 -5.55026,1.1649 -1.7594,0.71432 -3.38173,1.81713 -4.56609,3.30139"
         id="path29719-5"
         inkscape:connector-curvature="0"
         sodipodi:nodetypes="zssacaaaaaaaaaacsszzz" />
      <path
         inkscape:label="Right Arm"
         style="display:inline;fill:#020204;fill-opacity:1;stroke:none"
         id="path29705-5-0"
         d="m 205.10134,167.08733 c 6.0848,4.89463 9.94558,12.28597 11.14096,20.00305 0.93229,6.01859 0.32634,12.19496 -1.03069,18.13223 -1.35704,5.93726 -3.45222,11.67615 -5.53172,17.40051 -0.82924,2.2827 -1.66219,4.5871 -1.99169,6.9933 -0.3295,2.40621 -0.12085,4.95426 1.03954,7.08777 1.33022,2.44578 3.81295,4.13021 6.48184,4.92292 2.63494,0.78263 5.48104,0.76618 8.14819,0.10153 2.66714,-0.66466 7.15737,-1.52591 9.32837,-3.21179 5.51555,-4.28306 6.82474,-11.71935 8.13188,-18.24961 1.36319,-6.8103 0.69637,-13.95038 -0.50149,-20.83014 -1.63342,-9.38136 -4.38172,-18.55105 -7.87991,-27.40773 -2.57314,-6.51466 -5.8695,-12.74244 -9.79135,-18.52016 -3.84764,-5.66839 -9.30685,-10.09303 -13.34018,-15.63502 -1.40131,-1.92547 -3.08668,-3.93159 -4.46342,-5.87845 -2.96845,-4.19771 -2.29621,-3.41451 -4.1377,-6.13155 -1.33607,-1.9713 -3.44566,-2.6487 -5.66548,-3.51096 -2.21982,-0.86226 -4.71266,-1.11623 -7.00501,-0.47108 -3.02145,0.85034 -5.48978,3.23113 -6.80291,6.08208 -1.31314,2.85095 -1.54284,6.12313 -1.03195,9.2201 0.65909,3.99536 2.48628,7.70258 4.54639,11.18873 2.32668,3.93724 5.02199,7.72707 8.53596,10.65407 3.66715,3.05459 8.10153,5.06875 11.82037,8.0602"
         inkscape:connector-curvature="0"
         sodipodi:nodetypes="aaaaassssaaaasssscssssc" />
      <path
         inkscape:label="Left Arm"
         sodipodi:nodetypes="cczzzzzzzzzzzzszzzzzcssscc"
         inkscape:connector-curvature="0"
         id="path14967-1-0"
         d="m 90.472909,136.67374 c -7.073089,8.03686 -14.352222,15.81627 -18.345769,24.50506 -1.976249,4.41329 -2.910774,9.20725 -4.26498,13.84932 -1.537901,5.27176 -3.626089,10.3703 -5.97071,15.33612 -2.16496,4.58531 -4.54982,9.06291 -6.93891,13.53553 -1.7382,3.25409 -3.50514,6.58104 -4.10782,10.22071 -0.47628,2.87632 -0.1985,5.84423 0.53375,8.66626 0.73225,2.82202 1.90965,5.5106 3.23776,8.10601 5.667249,11.07504 14.170032,20.62168 24.24176,27.92472 4.570626,3.31418 9.466691,6.18109 14.60245,8.52595 2.782468,1.27041 5.713552,2.40436 8.77186,2.45744 1.52915,0.0265 3.0741,-0.22544 4.47434,-0.84055 1.40023,-0.6151 2.65068,-1.60373 3.48254,-2.88709 1.02278,-1.5779 1.36992,-3.53829 1.16461,-5.40743 -0.2053,-1.86914 -0.93484,-3.65294 -1.91324,-5.25873 -2.38997,-3.92251 -6.1652,-6.76055 -9.79642,-9.57343 -7.840549,-6.07358 -15.424654,-12.48039 -22.68212,-19.23996 -2.049117,-1.90854 -4.098407,-3.87759 -5.53019,-6.28412 -1.394295,-2.34352 -2.147602,-5.01376 -2.65783,-7.69253 -1.399719,-7.34873 -1.040921,-15.08286 1.45958,-22.13343 0.978222,-2.75826 2.271183,-5.39201 3.51815,-8.03965 2.161326,-4.58906 4.207248,-9.26564 7.04933,-13.46723 3.537978,-5.23037 8.267489,-9.66049 11.15147,-15.27803 2.434229,-4.74149 3.419942,-10.07236 4.36185,-15.31831 0.736933,-4.10434 2.150416,-8.12437 2.869234,-12.23193 -1.406111,2.66567 -5.937961,7.04283 -8.710695,10.5253 z"
         style="display:inline;fill:#020204;fill-opacity:1;stroke:none" />
      <path
         inkscape:label="Right Arm Shadow"
         sodipodi:nodetypes="cssssssccsssscc"
         transform="matrix(1.0180731,0,0,1,-105.25547,-58.362183)"
         inkscape:connector-curvature="0"
         clip-path="url(#clipPath504)"
         id="path29705-9"
         d="m 290.78125,216.01843 c 0.48482,0.46774 0.98091,0.94261 1.5,1.375 3.66715,3.05459 5.61879,6.48526 9.33763,9.47671 6.0848,4.89463 12.25895,13.34358 13.45434,21.06066 0.93229,6.01859 -0.30093,9.28947 -1.80468,16.3878 -1.50374,7.09832 -5.76944,17.14832 -8.07376,23.99211 -0.9189,2.7291 1.86121,1.60306 1.49609,4.4798 -0.17944,1.41384 -0.19766,2.84238 -0.0346,4.25917 0.0227,-0.27104 0.0388,-0.5525 0.0693,-0.82194 0.44281,-3.92274 1.62331,-7.69479 2.90878,-11.39514 2.47416,-7.12214 5.31434,-14.10109 7.27196,-21.40792 1.95763,-7.30683 1.74028,-12.56443 0.71875,-18.84375 -1.28459,-7.89637 -5.79703,-15.18702 -12.1875,-20 -4.51852,-3.40313 -9.84688,-5.58465 -14.65625,-8.5625 z"
         style="display:inline;fill:#ffffff;fill-opacity:1;stroke:none" />
      <path
         inkscape:label="Left Arm Shadow"
         transform="translate(-150.00016,-58.362183)"
         clip-path="url(#clipPath508)"
         sodipodi:nodetypes="csczzczzsccczc"
         inkscape:connector-curvature="0"
         id="path15007-0"
         d="m 232.33049,224.26954 c -2.32126,2.13749 -4.33307,4.61051 -5.95338,7.31823 -2.66801,4.45854 -4.23905,9.46835 -6.17809,14.28882 -1.44362,3.58886 -3.12519,7.19314 -3.32662,11.05622 -0.10346,1.98418 0.19056,3.96588 0.25671,5.95165 0.0662,1.98578 -0.11756,4.05108 -1.08967,5.78391 -0.81338,1.44988 -2.1659,2.58902 -3.73298,3.14402 2.11547,0.70686 4.00453,2.07546 5.33532,3.86539 1.11451,1.49902 1.82759,3.25366 2.79609,4.85091 0.78716,1.29818 1.75335,2.50124 2.94285,3.44463 1.1895,0.94339 2.61141,1.61974 4.11726,1.81293 2.06623,0.26508 4.23574,-0.42815 5.76541,-1.84225 -1.92538,-18.0357 -0.16195,-36.4572 5.15013,-53.80008 0.33544,-1.09515 0.68725,-2.19828 0.77034,-3.34063 0.0831,-1.14235 -0.12896,-2.34792 -0.82414,-3.2582 -0.37014,-0.48467 -0.86838,-0.87059 -1.4302,-1.1078 -0.56182,-0.2372 -1.18588,-0.32512 -1.79136,-0.25236 -0.60549,0.0727 -1.19096,0.306 -1.68059,0.66954 -0.48964,0.36355 -0.88227,0.85651 -1.12706,1.41507 h -2e-5"
         style="display:inline;opacity:0.95;fill:#ffffff;fill-opacity:1;stroke:none" />
      <path
         inkscape:label="Right Foot"
         clip-path="none"
         sodipodi:nodetypes="aaaaaaaaaaaaaaaaaaaaaaacscaascca"
         inkscape:connector-curvature="0"
         id="path14296-0"
         d="m 263.18967,278.25167 c -2.6238,3.11482 -6.268,5.17039 -9.89648,7.01985 -6.1886,3.15437 -12.60169,5.92177 -18.41964,9.71654 -3.89802,2.54249 -7.4959,5.52671 -10.86016,8.74238 -2.87719,2.75012 -5.60582,5.68745 -8.83247,8.01771 -3.25567,2.35122 -7.01915,4.05426 -10.99061,4.6502 -4.83026,0.72481 -9.82134,-0.21289 -14.29898,-2.16416 -3.13754,-1.36728 -6.15569,-3.3229 -7.96301,-6.22931 -1.81425,-2.91754 -2.22807,-6.48813 -2.23266,-9.92375 -0.008,-6.07666 1.11824,-12.09004 2.17848,-18.07349 0.88097,-4.97177 1.71949,-9.95483 2.26013,-14.97502 0.98337,-9.13118 0.9763,-18.35278 0.3199,-27.51327 -0.10993,-1.53416 -0.23754,-3.0832 -0.008,-4.60412 0.22922,-1.52092 0.85475,-3.0367 2.02069,-4.03986 1.07696,-0.9266 2.52093,-1.33598 3.93947,-1.4145 1.41854,-0.0785 2.83404,0.14655 4.23982,0.35197 3.31254,0.48405 6.65159,0.8649 9.88917,1.71656 2.04284,0.53738 4.03315,1.25925 6.0722,1.81081 3.40258,0.92039 6.96639,1.36144 10.46739,0.95192 3.76917,-0.44089 7.42987,-1.85678 11.22363,-1.76474 1.55658,0.0378 3.1015,0.33171 4.58649,0.79985 1.51539,0.47772 3.00914,1.16182 4.12281,2.29512 0.84639,0.8613 1.43579,1.94539 1.87872,3.06879 0.65982,1.67352 1.01492,3.457 1.16703,5.24945 0.13475,1.58788 0.11343,3.19441 0.41433,4.75933 0.49503,2.57458 1.84746,4.92305 3.52848,6.93494 1.68102,2.01189 3.68982,3.72048 5.69641,5.40783 1.99908,1.68103 4.0106,3.35469 6.16708,4.82839 1.0121,0.69165 2.05642,1.33949 3.01736,2.10062 0.96094,0.76113 1.84466,1.6468 2.44543,2.71535 0.81492,1.44944 1.06377,3.2077 0.53758,4.87655 -0.5262,1.66885 -1.48162,3.27659 -2.67059,4.68806 z"
         style="display:inline;fill:#ffffff;fill-opacity:1;stroke:#000000;stroke-width:3.5;stroke-miterlimit:4;stroke-dasharray:none;stroke-opacity:1" />
      <path
         inkscape:label="Left Foot"
         style="display:inline;fill:#ffffff;fill-opacity:1;stroke:#000000;stroke-width:3.5;stroke-miterlimit:4;stroke-dasharray:none;stroke-opacity:1"
         d="m 57.57688,222.65692 c 1.59929,-0.66295 3.3982,-0.78361 5.10074,-0.46963 1.70253,0.31398 3.31141,1.04948 4.74342,2.02239 2.86402,1.94583 4.98821,4.77774 7.02263,7.57952 4.67189,6.43406 9.16868,13.00227 13.24488,19.8293 3.30635,5.53766 6.34352,11.25685 10.16415,16.45304 2.49398,3.3919 5.3066,6.53947 7.813,9.92221 2.50639,3.38273 4.72794,7.05586 5.83931,11.11662 1.44411,5.27653 0.88463,11.09291 -1.62666,15.95302 -1.76663,3.41896 -4.47646,6.35228 -7.77242,8.33898 -3.29595,1.9867 -7.17064,3.01444 -11.01635,2.87021 -6.11413,-0.2293 -11.69944,-3.28515 -17.38362,-5.54906 -11.58097,-4.6125 -24.15978,-6.0594 -36.09666,-9.65174 -3.66859,-1.10404 -7.27582,-2.4107 -10.96988,-3.42629 -1.64125,-0.45122 -3.30866,-0.8482 -4.85875,-1.55144 -1.55008,-0.70325 -2.999548,-1.7491 -3.86171,-3.21675 -0.666391,-1.13439 -0.948386,-2.47002 -0.930187,-3.78554 0.0182,-1.31552 0.325889,-2.61453 0.773815,-3.85158 0.895851,-2.47409 2.343262,-4.71374 3.320162,-7.15696 1.59511,-3.98935 1.88169,-8.38839 1.66657,-12.67942 -0.21511,-4.29103 -0.91078,-8.54478 -1.20454,-12.83115 -0.13118,-1.91406 -0.18066,-3.85256 0.18479,-5.73598 0.36545,-1.88343 1.17577,-3.72459 2.55771,-5.05541 1.27406,-1.22693 2.96492,-1.95531 4.69643,-2.31651 1.73151,-0.3612 3.51533,-0.37747 5.28367,-0.33762 1.76833,0.0399 3.54067,0.13425 5.30351,-0.0106 1.76284,-0.14488 3.53347,-0.54055 5.06911,-1.41828 1.45996,-0.83447 2.65433,-2.0745 3.64374,-3.43424 0.9894,-1.35974 1.78909,-2.84573 2.60891,-4.31396 0.81983,-1.46823 1.66834,-2.93151 2.74157,-4.22611 1.07324,-1.2946 2.38923,-2.42304 3.94266,-3.06698"
         id="path4635-1"
         inkscape:connector-curvature="0"
         sodipodi:nodetypes="ssssssssssssssss" />
      <path
         inkscape:label="Hand"
         style="display:inline;fill:#020204;fill-opacity:1;stroke:none"
         id="path29714-5-4"
         d="m 236.18734,226.96557 c -0.40516,-1.10369 -1.11845,-2.08156 -1.9907,-2.86987 -0.87226,-0.78832 -1.90049,-1.39229 -2.98278,-1.85155 -2.16459,-0.91852 -4.52053,-1.26149 -6.83152,-1.69556 -2.17919,-0.40931 -4.34179,-0.90631 -6.52782,-1.27734 -2.27136,-0.38551 -4.6179,-0.63213 -6.8653,-0.1253 -1.96583,0.44333 -3.7845,1.45879 -5.27172,2.81864 -1.48723,1.35984 -2.64911,3.0564 -3.48499,4.89007 -1.47218,3.22952 -1.93451,6.86503 -1.65394,10.40316 0.20881,2.63325 0.87532,5.34594 2.60877,7.33912 1.40065,1.61052 3.38733,2.61526 5.43398,3.22092 3.52502,1.04316 7.36663,0.98822 10.86038,-0.1553 5.76689,-1.93113 10.87568,-5.77387 14.33034,-10.77903 1.13861,-1.64963 2.11217,-3.44809 2.5532,-5.4034 0.33597,-1.48955 0.34831,-3.08112 -0.1779,-4.51456"
         inkscape:connector-curvature="0"
         sodipodi:nodetypes="aaaasssaccaa" />
      <path
         inkscape:label="Hand Lower Hightlight"
         transform="translate(-150.00016,-58.362183)"
         clip-path="url(#clipPath533)"
         inkscape:connector-curvature="0"
         id="path29714-3-9-9"
         d="m 362.21875,276.45593 c -0.54933,0.0306 -1.08144,0.0909 -1.625,0.1875 -3.46951,0.61686 -6.64705,2.80857 -8.4375,5.84375 -1.26396,2.14267 -1.83985,4.67634 -1.65625,7.15625 0.0732,-1.74163 0.52946,-3.44685 1.375,-4.96875 1.43442,-2.58185 4.03238,-4.52979 6.9375,-5.0625 1.78976,-0.32819 3.63182,-0.13095 5.4375,0.0937 1.73256,0.2156 3.48115,0.44287 5.1875,0.8125 2.64101,0.57209 5.25428,1.45135 7.46875,3 0.51646,0.36118 0.99955,0.76857 1.40625,1.25 0.40669,0.48143 0.72188,1.03792 0.84375,1.65625 0.17824,0.90428 -0.0794,1.85295 -0.53125,2.65625 -0.45189,0.8033 -1.06491,1.50665 -1.71875,2.15625 -0.52923,0.5258 -1.09482,1.03417 -1.65625,1.53125 2.559,-0.49571 5.15199,-1.19766 7.28125,-2.6875 0.89975,-0.62955 1.71523,-1.38464 2.25,-2.34375 0.53477,-0.95912 0.76245,-2.1212 0.5,-3.1875 -0.17714,-0.71971 -0.57137,-1.3824 -1.0625,-1.9375 -0.49114,-0.55511 -1.0805,-1.01217 -1.6875,-1.4375 -2.67877,-1.87701 -5.81493,-3.07854 -9.0625,-3.46875 -2.08149,-0.38286 -4.18122,-0.70597 -6.28125,-0.96875 -1.64344,-0.20564 -3.32077,-0.37313 -4.96875,-0.28125 z"
         style="display:inline;fill:url(#radialGradient18850);fill-opacity:1;stroke:none" />
      <path
         inkscape:label="Hand Upper Highlight"
         transform="translate(-150.00016,-58.36218)"
         clip-path="url(#clipPath538)"
         inkscape:connector-curvature="0"
         id="path29714-3-9-3-8"
         d="m 362.21875,276.45593 c -0.54933,0.0306 -1.08144,0.0909 -1.625,0.1875 -3.46951,0.61686 -6.64705,2.80857 -8.4375,5.84375 -1.26396,2.14267 -1.83985,4.67634 -1.65625,7.15625 0.0732,-1.74163 0.52946,-3.44685 1.375,-4.96875 1.43442,-2.58185 4.03238,-4.52979 6.9375,-5.0625 1.78976,-0.32819 3.63182,-0.13095 5.4375,0.0937 1.73256,0.2156 3.48115,0.44287 5.1875,0.8125 2.64101,0.57209 5.25428,1.45135 7.46875,3 0.51646,0.36118 0.99955,0.76857 1.40625,1.25 0.40669,0.48143 0.72188,1.03792 0.84375,1.65625 0.17824,0.90428 -0.0794,1.85295 -0.53125,2.65625 -0.45189,0.8033 -1.06491,1.50665 -1.71875,2.15625 -0.52923,0.5258 -1.09482,1.03417 -1.65625,1.53125 2.559,-0.49571 5.15199,-1.19766 7.28125,-2.6875 0.89975,-0.62955 1.71523,-1.38464 2.25,-2.34375 0.53477,-0.95912 0.76245,-2.1212 0.5,-3.1875 -0.17714,-0.71971 -0.57137,-1.3824 -1.0625,-1.9375 -0.49114,-0.55511 -1.0805,-1.01217 -1.6875,-1.4375 -2.67877,-1.87701 -5.81493,-3.07854 -9.0625,-3.46875 -2.08149,-0.38286 -4.18122,-0.70597 -6.28125,-0.96875 -1.64344,-0.20564 -3.32077,-0.37313 -4.96875,-0.28125 z"
         style="display:inline;fill:#ffffff;fill-opacity:1;stroke:none" />
      <path
         inkscape:label="Left Eyeball"
         style="display:inline;fill:#ffffff;fill-opacity:1;stroke:none"
         d="m 114.23228,63.999999 c -1.78096,0.097 -3.48461,0.91899 -4.78785,2.1367 -1.30323,1.21771 -2.22137,2.81176 -2.78618,4.50357 -1.12962,3.38363 -0.87548,7.05177 -0.6187,10.60973 0.23251,3.22162 0.47041,6.50533 1.67679,9.50158 0.60319,1.49813 1.45024,2.91021 2.58034,4.06395 1.13009,1.15374 2.55173,2.04189 4.11829,2.43447 1.46884,0.36809 3.03816,0.29183 4.48279,-0.16209 1.44462,-0.45392 2.76391,-1.27887 3.84623,-2.33791 1.57904,-1.54507 2.64326,-3.5662 3.25345,-5.68947 0.61019,-2.12328 0.78416,-4.35155 0.7524,-6.56053 -0.0397,-2.76435 -0.40091,-5.53851 -1.26575,-8.16439 -0.86485,-2.62588 -2.24575,-5.10327 -4.1728,-7.08561 -0.93331,-0.96009 -1.99776,-1.80513 -3.19858,-2.39747 -1.20082,-0.59233 -2.54344,-0.92535 -3.88043,-0.85253"
         id="path28795-9-5"
         inkscape:connector-curvature="0"
         sodipodi:nodetypes="zzzzzzz" />
      <path
         inkscape:label="Left Eye Pupil"
         style="fill:#020204;fill-opacity:1;stroke:none"
         id="path29453-9"
         d="m 109.93874,78.749427 c -0.37211,2.24574 -0.38563,4.60199 0.3864,6.74344 0.50979,1.41404 1.35041,2.69692 2.37218,3.79935 0.66903,0.72184 1.42824,1.37779 2.31576,1.80318 0.88752,0.42539 1.91578,0.60638 2.87035,0.36671 0.88113,-0.22123 1.65156,-0.78859 2.22013,-1.49715 0.56856,-0.70857 0.9476,-1.55295 1.2177,-2.42034 0.7974,-2.56075 0.66926,-5.36165 -0.12241,-7.92418 -0.5768,-1.86701 -1.53208,-3.66794 -3.02664,-4.9268 -0.71307,-0.60061 -1.54773,-1.07115 -2.45479,-1.28664 -0.90707,-0.2155 -1.88874,-0.16505 -2.73754,0.22063 -0.9423,0.42817 -1.67159,1.24304 -2.14907,2.16134 -0.47749,0.91829 -0.72288,1.93936 -0.89207,2.96046"
         inkscape:connector-curvature="0"
         sodipodi:nodetypes="aaaaaaaaa" />
      <path
         inkscape:label="Left Eye Pupil Highlight"
         style="fill:#ffffff;fill-opacity:1;stroke:none"
         d="m 114.68735,77.124997 c 0.24185,0.6337 1.05418,0.86381 1.5,1.375 0.43302,0.49651 0.88735,1.01055 1.125,1.625 0.4549,1.17616 -0.4488,2.91931 0.5,3.75 0.29782,0.26075 0.89472,0.26639 1.1875,0 1.14539,-1.04215 0.89094,-3.14433 0.4375,-4.625 -0.4115,-1.34371 -1.42747,-2.61637 -2.67923,-3.25512 -0.57882,-0.29536 -1.45077,-0.54089 -1.94577,-0.11988 -0.31898,0.2713 -0.27431,0.85878 -0.125,1.25 z"
         id="path29465-8"
         inkscape:connector-curvature="0"
         sodipodi:nodetypes="aaaaaaaaa" />
      <path
         sodipodi:nodetypes="ccccccccc"
         inkscape:label="Left Eyebrow"
         style="display:inline;fill:#ffffff;fill-opacity:1;stroke:none"
         d="m 121.56234,62.015797 c 2.50371,2.34533 4.36503,5.2397 5.625,8.30939 -0.55066,-3.38469 -1.4234,-6.10373 -3.625,-8.30939 -1.35128,-1.26581 -2.88638,-2.37775 -4.625,-3.1587 -1.52127,-0.68334 -3.21359,-1.10788 -4.18082,-1.12552 -0.96723,-0.0176 -1.2022,0.004 -1.40094,0.0134 -0.19874,0.009 -0.35739,0.0162 0.27185,0.0877 0.62924,0.0715 2.03368,0.45118 3.5411,1.12827 1.50743,0.6771 3.04253,1.78904 4.39381,3.05485 z"
         id="path28795-9-2-2"
         inkscape:connector-curvature="0" />
      <path
         inkscape:label="Right Eyeball"
         style="display:inline;fill:#ffffff;fill-opacity:1;stroke:none"
         d="m 145.74984,63.999999 c -2.78042,1.91023 -5.11057,4.57487 -6.25,7.75 -1.43603,4.00163 -0.88584,8.48071 0.5,12.5 1.41949,4.11688 3.79379,8.04098 7.37932,10.51234 1.79277,1.23567 3.86809,2.08301 6.0304,2.33859 2.16231,0.25558 4.40928,-0.0949 6.34028,-1.10093 2.35312,-1.22596 4.14782,-3.37278 5.26217,-5.78076 1.11436,-2.40798 1.5888,-5.0701 1.73783,-7.71924 0.18989,-3.37546 -0.14047,-6.80646 -1.25,-10 -1.20527,-3.46909 -3.39005,-6.67055 -6.47275,-8.6666 -1.54136,-0.99803 -3.29195,-1.68356 -5.11089,-1.93515 -1.81893,-0.25158 -3.70476,-0.0633 -5.41636,0.60175 -0.97547,0.37901 -1.88744,0.9074 -2.75,1.5"
         id="path28795-3"
         inkscape:connector-curvature="0"
         sodipodi:nodetypes="aaaaaaaa" />
      <path
         inkscape:label="Right Eye Pupil"
         style="fill:#020204;fill-opacity:1;stroke:none"
         id="path28879-6"
         d="m 152.16137,72.394767 c -1.04548,0.0749 -2.06437,0.4318 -2.95135,0.99028 -0.88699,0.55848 -1.64327,1.31521 -2.23701,2.17899 -1.18748,1.72757 -1.70894,3.84675 -1.793,5.94139 -0.0631,1.5723 0.11098,3.16512 0.63245,4.64977 0.52147,1.48465 1.40089,2.85877 2.61276,3.86251 1.24011,1.02713 2.81647,1.64364 4.42485,1.72094 1.60838,0.0773 3.23948,-0.38665 4.56105,-1.3066 1.05288,-0.73292 1.9021,-1.74168 2.50666,-2.87315 0.60455,-1.13148 0.96879,-2.38348 1.1353,-3.65549 0.29411,-2.24678 -0.0385,-4.59295 -1.07692,-6.60695 -1.03841,-2.01401 -2.80051,-3.67269 -4.92674,-4.45606 -0.92093,-0.3393 -1.90911,-0.51576 -2.88805,-0.44563"
         inkscape:connector-curvature="0"
         sodipodi:nodetypes="zzzzzzz" />
      <path
         inkscape:label="Right Eyebrow"
         style="display:inline;fill:#ffffff;fill-opacity:1;stroke:none"
         d="m 154.15609,57.731567 c 2.14641,0.46247 4.19906,1.34575 6.03125,2.5625 3.54507,2.35427 6.237,5.7965 8.125,9.625 1.27202,-5.168595 -4.65966,-9.942324 -7.125,-11.625 -1.81026,-0.850016 -3.2289,-1.931797 -7.03125,-0.5625 z"
         id="path28795-92-2"
         inkscape:connector-curvature="0"
         sodipodi:nodetypes="csccc" />
      <path
         inkscape:label="Under Beak"
         style="display:inline;fill:#000000;fill-opacity:1;stroke:none"
         d="m 122.60046,87.499999 c 1.76737,-1.98662 2.97619,-4.41053 4.67414,-6.45679 0.84898,-1.02314 1.82842,-1.95533 2.98168,-2.61681 1.15326,-0.66147 2.49198,-1.0411 3.81652,-0.9264 1.47449,0.12769 2.85454,0.86228 3.93407,1.87472 1.07954,1.01244 1.87977,2.29027 2.51865,3.62528 0.61174,1.27831 1.09776,2.64027 1.97912,3.75 0.94033,1.18398 2.25953,1.99218 3.45109,2.92288 0.59578,0.46535 1.16748,0.96911 1.6384,1.5605 0.47092,0.59139 0.83961,1.27595 0.99099,2.01662 0.15372,0.75214 0.0772,1.54506 -0.18518,2.26653 -0.26233,0.72148 -0.7067,1.37174 -1.25963,1.90429 -1.10586,1.0651 -2.61358,1.63957 -4.13381,1.85466 -3.04046,0.43016 -6.11466,-0.47583 -9.18424,-0.39142 -3.10689,0.0854 -6.14155,1.183661 -9.24754,1.07007 -1.553,-0.0568 -3.12807,-0.43624 -4.40426,-1.32301 -0.63809,-0.44339 -1.194,-1.01055 -1.59583,-1.6756 -0.40182,-0.66505 -0.64669,-1.42894 -0.67286,-2.20552 -0.025,-0.74092 0.14804,-1.48088 0.44407,-2.16055 0.29604,-0.67967 0.71269,-1.30175 1.18213,-1.87552 0.93888,-1.14753 2.08699,-2.10617 3.07249,-3.21393"
         id="path28849-2"
         inkscape:connector-curvature="0"
         sodipodi:nodetypes="zzzzzzzz" />
      <path
         id="path28461-2"
         style="display:inline;fill:#ffffff;fill-opacity:1;stroke:#000000;stroke-width:2;stroke-miterlimit:4;stroke-dasharray:none;stroke-opacity:1"
         inkscape:label="Lower Beak"
         d="m 116.73438,64.685547 c -2.74336,-0.06215 -5.51785,0.441012 -8.11719,1.34375 -4.61991,1.60447 -8.798089,4.4623 -11.966799,8.1875 -1.92939,1.2986 -3.664876,2.883227 -5.134766,4.685547 -0.8407,1.03083 -1.603984,2.151099 -2.027344,3.412109 -0.333,0.99185 -0.4464,2.041416 -0.65625,3.066406 -0.0786,0.38398 -0.171572,0.768207 -0.169922,1.160157 8.2e-4,0.19597 0.02514,0.393768 0.08594,0.580078 0.01824,0.05588 0.04738,0.106822 0.07227,0.160156 0.06476,0.227344 0.148418,0.449331 0.269532,0.652344 0.26569,0.44533 0.654899,0.806238 1.074218,1.111328 0.41932,0.30509 0.87347,0.559957 1.3125,0.835937 2.333641,1.46695 4.234459,3.528992 5.923829,5.707032 2.26654,2.92217 4.271432,6.165109 7.298832,8.289059 2.13778,1.49982 4.69657,2.35419 7.29492,2.61524 3.05132,0.30656 6.1402,-0.18468 9.08203,-1.05078 2.72638,-0.80267 5.36219,-1.93004 7.78125,-3.42188 4.59851,-2.835909 8.439,-6.993041 13.50977,-8.857421 1.10702,-0.40702 2.25889,-0.699102 3.32617,-1.201171 1.06727,-0.502071 2.07229,-1.252777 2.58203,-2.316407 0.48998,-1.02241 0.4713,-2.203702 0.63086,-3.326172 0.1707,-1.20084 0.55356,-2.360107 0.76367,-3.554687 0.2101,-1.19458 0.2353,-2.472893 -0.28125,-3.570313 -0.11462,-0.243518 -0.25759,-0.470665 -0.41797,-0.685547 -0.006,-0.443819 -0.14375,-0.882913 -0.36914,-1.265624 -0.4647,-0.789051 -1.26868,-1.323393 -2.10547,-1.695313 -1.14614,-0.50941 -2.38626,-0.760318 -3.60547,-1.054687 -3.74529,-0.90427 -7.38296,-2.241789 -10.83398,-3.955079 -1.7156,-0.85173 -3.38407,-1.794398 -5.07226,-2.699218 -1.73557,-0.93021 -3.50422,-1.825275 -5.38868,-2.396485 -1.57999,-0.478924 -3.21531,-0.718572 -4.86132,-0.755859 z"
         transform="translate(16.987948,19.575154)" />
      <path
         id="path27476-7-8"
         style="display:inline;fill:#000000;fill-opacity:1;stroke:#000000;stroke-opacity:1"
         inkscape:label="Upper Beak Undershadow"
         d="m 143.20898,80.244141 c -0.46288,-0.004 -0.92094,0.04582 -1.36132,0.1875 -0.57782,0.18589 -1.098,0.522173 -1.56641,0.908203 -0.4684,0.38604 -0.88949,0.82255 -1.32617,1.24414 -1.28653,1.24207 -2.6998,2.346256 -4.13281,3.416016 -3.15469,2.355 -6.45673,4.577594 -10.11915,6.021484 -2.39151,0.94284 -4.90488,1.539629 -7.42578,2.042969 -3.17214,0.63336 -6.39655,1.12456 -9.6289,1 -3.23235,-0.12456 -6.49267,-0.894057 -9.226565,-2.623047 -1.23733,-0.78252 -2.348817,-1.746002 -3.554687,-2.576172 -1.150701,-0.792189 -2.426671,-1.457895 -3.804688,-1.662109 0.05374,0.154612 0.130152,0.300984 0.242188,0.419922 0.17255,0.18318 0.407717,0.297694 0.648437,0.371094 0.24072,0.0734 0.491348,0.110388 0.736328,0.167968 1.17466,0.27611 2.19655,0.995835 3.09375,1.802735 0.89721,0.8069 1.702692,1.714982 2.638672,2.476562 2.537255,2.06449 5.889545,2.918837 9.160155,2.972656 3.27061,0.0538 6.50421,-0.630809 9.69531,-1.349609 2.50632,-0.56456 5.01533,-1.154129 7.42578,-2.042969 3.70276,-1.36537 7.14171,-3.431224 10.11915,-6.021484 1.34997,-1.17442 2.61556,-2.464406 4.13085,-3.416016 1.34093,-0.84211 2.84333,-1.396481 4.20704,-2.201172 0.12193,-0.072 0.24264,-0.147841 0.35156,-0.238281 0.10893,-0.0905 0.20635,-0.197519 0.26953,-0.324219 0.0828,-0.165978 0.0883,-0.354342 0.0625,-0.539062 -0.21097,-0.02093 -0.42407,-0.0353 -0.63477,-0.03711 z"
         transform="translate(16.987948,19.575154)" />
      <path
         inkscape:label="Right Nostril"
         style="display:inline;opacity:1;fill:#000000;fill-opacity:1;stroke:none"
         d="m 135.25114,88.527667 c 0.23129,0.7424 1.42778,0.61935 2.11906,0.97542 0.60659,0.31244 1.09447,0.99723 1.77651,1.01692 0.65093,0.0188 1.66398,-0.22542 1.74866,-0.87109 0.11187,-0.85303 -1.13379,-1.39511 -1.93536,-1.70762 -1.03148,-0.40216 -2.35301,-0.6062 -3.3206,-0.0682 -0.22173,0.12328 -0.46373,0.41238 -0.38827,0.65458 z"
         id="path28396-7"
         inkscape:connector-curvature="0"
         sodipodi:nodetypes="aaaaaaa" />
      <path
         inkscape:label="Left Nostril"
         style="display:inline;opacity:1;fill:#000000;fill-opacity:1;stroke:none"
         d="m 123.82694,88.107827 c -0.88816,-0.28854 -2.35748,1.27746 -1.87806,2.07886 0.13167,0.22009 0.53491,0.49916 0.80641,0.34992 0.40925,-0.22497 0.74404,-1.02958 1.18746,-1.34496 0.29608,-0.21058 0.22974,-0.97156 -0.11581,-1.08382 z"
         id="path28398-7"
         inkscape:connector-curvature="0"
         sodipodi:nodetypes="asssa" />
      <path
         sodipodi:nodetypes="aaaaaaaaa"
         inkscape:connector-curvature="0"
         id="path2203"
         d="m 153.1412,76.541624 c 0.34821,0.582076 1.18816,0.667631 1.71597,1.093639 0.51266,0.413773 1.04935,0.84111 1.39009,1.404958 0.65223,1.079299 0.0649,2.952892 1.14358,3.606205 0.33858,0.205073 0.92739,0.106976 1.16946,-0.206207 0.94703,-1.225212 0.3314,-3.251271 -0.37227,-4.630707 -0.63858,-1.25184 -1.86011,-2.328744 -3.20377,-2.740424 -0.62131,-0.190362 -1.52265,-0.280749 -1.93702,0.219821 -0.26703,0.322568 -0.12102,0.893366 0.094,1.252715 z"
         style="fill:#ffffff;fill-opacity:1;stroke:none"
         inkscape:label="Left Eye Pupil Highlight" />
    </g>
  </g>
</svg>
